<svg width="8" height="8" viewBox="0 0 8 8" fill="none" xmlns="http://www.w3.org/2000/svg">
<path d="M7.79138 0.0965732C7.68361 0.0193116 7.54956 -0.0119773 7.41873 0.00958911C7.28789 0.0311556 7.17098 0.103811 7.09371 0.211573L2.41538 6.73424L0.853709 5.17124C0.807287 5.1248 0.752171 5.08795 0.691509 5.06281C0.630847 5.03766 0.565827 5.02471 0.50016 5.0247C0.434494 5.02468 0.369467 5.0376 0.308793 5.06272C0.248119 5.08783 0.192987 5.12465 0.146542 5.17107C0.100098 5.2175 0.0632524 5.27261 0.0381086 5.33327C0.0129648 5.39394 1.54895e-05 5.45896 1.38875e-08 5.52462C-1.54617e-05 5.59029 0.0129032 5.65531 0.0380184 5.71599C0.0631336 5.77666 0.0999534 5.8318 0.146376 5.87824L2.12471 7.85624C2.17665 7.90622 2.23862 7.94458 2.30652 7.96878C2.37442 7.99298 2.44669 8.00246 2.51853 7.9966C2.59037 7.99074 2.66014 7.96966 2.72322 7.93477C2.78629 7.89988 2.84123 7.85198 2.88438 7.79424L7.90638 0.79424C7.98364 0.686472 8.01493 0.552427 7.99336 0.421591C7.97179 0.290754 7.89914 0.173843 7.79138 0.0965732Z" fill="white"/>
</svg>