<svg width="823" height="200" viewBox="0 0 823 200" fill="none" xmlns="http://www.w3.org/2000/svg">
<path d="M522.029 184.504H523.073L526.709 193H525.365L524.513 190.9H520.469L519.629 193H518.285L522.029 184.504ZM524.093 189.892L522.509 185.992H522.485L520.877 189.892H524.093ZM532.579 193H531.499V192.124H531.475C531.339 192.428 531.103 192.676 530.767 192.868C530.431 193.052 530.043 193.144 529.603 193.144C529.323 193.144 529.059 193.1 528.811 193.012C528.563 192.932 528.343 192.804 528.151 192.628C527.967 192.452 527.819 192.228 527.707 191.956C527.595 191.676 527.539 191.348 527.539 190.972V187.312H528.619V190.672C528.619 190.936 528.655 191.164 528.727 191.356C528.799 191.54 528.895 191.692 529.015 191.812C529.135 191.924 529.271 192.008 529.423 192.064C529.583 192.112 529.747 192.136 529.915 192.136C530.139 192.136 530.347 192.1 530.539 192.028C530.731 191.956 530.899 191.844 531.043 191.692C531.187 191.532 531.299 191.332 531.379 191.092C531.459 190.852 531.499 190.568 531.499 190.24V187.312H532.579V193ZM539.907 192.952C539.907 193.384 539.831 193.776 539.679 194.128C539.535 194.488 539.327 194.796 539.055 195.052C538.783 195.316 538.455 195.52 538.071 195.664C537.687 195.808 537.263 195.88 536.799 195.88C536.255 195.88 535.755 195.804 535.299 195.652C534.851 195.5 534.423 195.236 534.015 194.86L534.747 193.948C535.027 194.252 535.331 194.48 535.659 194.632C535.987 194.792 536.359 194.872 536.775 194.872C537.175 194.872 537.507 194.812 537.771 194.692C538.035 194.58 538.243 194.432 538.395 194.248C538.555 194.064 538.667 193.852 538.731 193.612C538.795 193.38 538.827 193.144 538.827 192.904V192.064H538.791C538.583 192.408 538.299 192.664 537.939 192.832C537.587 192.992 537.215 193.072 536.823 193.072C536.407 193.072 536.019 193 535.659 192.856C535.307 192.704 535.003 192.5 534.747 192.244C534.491 191.98 534.291 191.672 534.147 191.32C534.003 190.96 533.931 190.572 533.931 190.156C533.931 189.74 533.999 189.352 534.135 188.992C534.271 188.624 534.463 188.304 534.711 188.032C534.967 187.76 535.271 187.548 535.623 187.396C535.983 187.244 536.383 187.168 536.823 187.168C537.207 187.168 537.579 187.252 537.939 187.42C538.307 187.588 538.595 187.824 538.803 188.128H538.827V187.312H539.907V192.952ZM536.955 188.176C536.667 188.176 536.407 188.228 536.175 188.332C535.943 188.428 535.747 188.564 535.587 188.74C535.427 188.908 535.303 189.116 535.215 189.364C535.127 189.604 535.083 189.868 535.083 190.156C535.083 190.732 535.251 191.196 535.587 191.548C535.923 191.892 536.379 192.064 536.955 192.064C537.531 192.064 537.987 191.892 538.323 191.548C538.659 191.196 538.827 190.732 538.827 190.156C538.827 189.868 538.783 189.604 538.695 189.364C538.607 189.116 538.483 188.908 538.323 188.74C538.163 188.564 537.967 188.428 537.735 188.332C537.503 188.228 537.243 188.176 536.955 188.176Z" fill="#97A3B4"/>
<path d="M589.787 191.224C589.995 191.536 590.259 191.768 590.579 191.92C590.907 192.064 591.243 192.136 591.587 192.136C591.779 192.136 591.975 192.108 592.175 192.052C592.375 191.988 592.555 191.896 592.715 191.776C592.883 191.656 593.019 191.508 593.123 191.332C593.227 191.156 593.279 190.952 593.279 190.72C593.279 190.392 593.175 190.144 592.967 189.976C592.759 189.8 592.499 189.656 592.187 189.544C591.883 189.424 591.547 189.312 591.179 189.208C590.819 189.096 590.483 188.944 590.171 188.752C589.867 188.56 589.611 188.304 589.403 187.984C589.195 187.656 589.091 187.216 589.091 186.664C589.091 186.416 589.143 186.152 589.247 185.872C589.359 185.592 589.531 185.336 589.763 185.104C589.995 184.872 590.291 184.68 590.651 184.528C591.019 184.368 591.459 184.288 591.971 184.288C592.435 184.288 592.879 184.352 593.303 184.48C593.727 184.608 594.099 184.868 594.419 185.26L593.483 186.112C593.339 185.888 593.135 185.708 592.871 185.572C592.607 185.436 592.307 185.368 591.971 185.368C591.651 185.368 591.383 185.412 591.167 185.5C590.959 185.58 590.791 185.688 590.663 185.824C590.535 185.952 590.443 186.092 590.387 186.244C590.339 186.396 590.315 186.536 590.315 186.664C590.315 187.024 590.419 187.3 590.627 187.492C590.835 187.684 591.091 187.84 591.395 187.96C591.707 188.08 592.043 188.188 592.403 188.284C592.771 188.38 593.107 188.516 593.411 188.692C593.723 188.86 593.983 189.092 594.191 189.388C594.399 189.676 594.503 190.076 594.503 190.588C594.503 190.996 594.423 191.364 594.263 191.692C594.111 192.02 593.903 192.296 593.639 192.52C593.375 192.744 593.063 192.916 592.703 193.036C592.343 193.156 591.959 193.216 591.551 193.216C591.007 193.216 590.491 193.12 590.003 192.928C589.515 192.736 589.127 192.44 588.839 192.04L589.787 191.224ZM596.743 190.552C596.743 190.8 596.795 191.028 596.899 191.236C597.011 191.436 597.155 191.608 597.331 191.752C597.507 191.896 597.711 192.008 597.943 192.088C598.175 192.168 598.415 192.208 598.663 192.208C598.999 192.208 599.291 192.132 599.539 191.98C599.787 191.82 600.015 191.612 600.223 191.356L601.039 191.98C600.439 192.756 599.599 193.144 598.519 193.144C598.071 193.144 597.663 193.068 597.295 192.916C596.935 192.764 596.627 192.556 596.371 192.292C596.123 192.02 595.931 191.704 595.795 191.344C595.659 190.976 595.591 190.58 595.591 190.156C595.591 189.732 595.663 189.34 595.807 188.98C595.959 188.612 596.163 188.296 596.419 188.032C596.683 187.76 596.995 187.548 597.355 187.396C597.715 187.244 598.107 187.168 598.531 187.168C599.035 187.168 599.459 187.256 599.803 187.432C600.155 187.608 600.443 187.84 600.667 188.128C600.891 188.408 601.051 188.728 601.147 189.088C601.251 189.44 601.303 189.8 601.303 190.168V190.552H596.743ZM600.151 189.688C600.143 189.448 600.103 189.228 600.031 189.028C599.967 188.828 599.867 188.656 599.731 188.512C599.595 188.36 599.423 188.244 599.215 188.164C599.015 188.076 598.779 188.032 598.507 188.032C598.243 188.032 597.999 188.084 597.775 188.188C597.559 188.284 597.375 188.412 597.223 188.572C597.071 188.732 596.951 188.912 596.863 189.112C596.783 189.304 596.743 189.496 596.743 189.688H600.151ZM602.595 187.312H603.675V188.128H603.699C603.907 187.824 604.191 187.588 604.551 187.42C604.919 187.252 605.295 187.168 605.679 187.168C606.119 187.168 606.515 187.244 606.867 187.396C607.227 187.548 607.531 187.76 607.779 188.032C608.035 188.304 608.231 188.624 608.367 188.992C608.503 189.352 608.571 189.74 608.571 190.156C608.571 190.58 608.503 190.976 608.367 191.344C608.231 191.704 608.035 192.02 607.779 192.292C607.531 192.556 607.227 192.764 606.867 192.916C606.515 193.068 606.119 193.144 605.679 193.144C605.271 193.144 604.887 193.06 604.527 192.892C604.167 192.716 603.891 192.48 603.699 192.184H603.675V196.384H602.595V187.312ZM605.547 188.176C605.259 188.176 604.999 188.228 604.767 188.332C604.535 188.428 604.339 188.564 604.179 188.74C604.019 188.908 603.895 189.116 603.807 189.364C603.719 189.604 603.675 189.868 603.675 190.156C603.675 190.444 603.719 190.712 603.807 190.96C603.895 191.2 604.019 191.408 604.179 191.584C604.339 191.752 604.535 191.888 604.767 191.992C604.999 192.088 605.259 192.136 605.547 192.136C605.835 192.136 606.095 192.088 606.327 191.992C606.559 191.888 606.755 191.752 606.915 191.584C607.075 191.408 607.199 191.2 607.287 190.96C607.375 190.712 607.419 190.444 607.419 190.156C607.419 189.868 607.375 189.604 607.287 189.364C607.199 189.116 607.075 188.908 606.915 188.74C606.755 188.564 606.559 188.428 606.327 188.332C606.095 188.228 605.835 188.176 605.547 188.176ZM612.979 188.248H611.431V190.828C611.431 190.988 611.435 191.148 611.443 191.308C611.451 191.46 611.479 191.6 611.527 191.728C611.583 191.848 611.663 191.948 611.767 192.028C611.879 192.1 612.039 192.136 612.247 192.136C612.375 192.136 612.507 192.124 612.643 192.1C612.779 192.076 612.903 192.032 613.015 191.968V192.952C612.887 193.024 612.719 193.072 612.511 193.096C612.311 193.128 612.155 193.144 612.043 193.144C611.627 193.144 611.303 193.088 611.071 192.976C610.847 192.856 610.679 192.704 610.567 192.52C610.463 192.336 610.399 192.132 610.375 191.908C610.359 191.676 610.351 191.444 610.351 191.212V188.248H609.103V187.312H610.351V185.716H611.431V187.312H612.979V188.248Z" fill="#97A3B4"/>
<path d="M666.385 193.216C665.737 193.216 665.141 193.104 664.597 192.88C664.053 192.648 663.585 192.332 663.193 191.932C662.809 191.532 662.505 191.06 662.281 190.516C662.065 189.972 661.957 189.384 661.957 188.752C661.957 188.12 662.065 187.532 662.281 186.988C662.505 186.444 662.809 185.972 663.193 185.572C663.585 185.172 664.053 184.86 664.597 184.636C665.141 184.404 665.737 184.288 666.385 184.288C667.033 184.288 667.629 184.404 668.173 184.636C668.717 184.86 669.181 185.172 669.565 185.572C669.957 185.972 670.261 186.444 670.477 186.988C670.701 187.532 670.813 188.12 670.813 188.752C670.813 189.384 670.701 189.972 670.477 190.516C670.261 191.06 669.957 191.532 669.565 191.932C669.181 192.332 668.717 192.648 668.173 192.88C667.629 193.104 667.033 193.216 666.385 193.216ZM666.385 192.136C666.873 192.136 667.313 192.048 667.705 191.872C668.097 191.688 668.433 191.444 668.713 191.14C668.993 190.836 669.209 190.48 669.361 190.072C669.513 189.656 669.589 189.216 669.589 188.752C669.589 188.288 669.513 187.852 669.361 187.444C669.209 187.028 668.993 186.668 668.713 186.364C668.433 186.06 668.097 185.82 667.705 185.644C667.313 185.46 666.873 185.368 666.385 185.368C665.897 185.368 665.457 185.46 665.065 185.644C664.673 185.82 664.337 186.06 664.057 186.364C663.777 186.668 663.561 187.028 663.409 187.444C663.257 187.852 663.181 188.288 663.181 188.752C663.181 189.216 663.257 189.656 663.409 190.072C663.561 190.48 663.777 190.836 664.057 191.14C664.337 191.444 664.673 191.688 665.065 191.872C665.457 192.048 665.897 192.136 666.385 192.136ZM676.261 188.824C676.061 188.616 675.849 188.46 675.625 188.356C675.409 188.244 675.149 188.188 674.845 188.188C674.549 188.188 674.289 188.244 674.065 188.356C673.849 188.46 673.665 188.608 673.513 188.8C673.369 188.984 673.257 189.2 673.177 189.448C673.105 189.688 673.069 189.94 673.069 190.204C673.069 190.468 673.113 190.72 673.201 190.96C673.289 191.192 673.413 191.396 673.573 191.572C673.733 191.748 673.925 191.888 674.149 191.992C674.373 192.088 674.625 192.136 674.905 192.136C675.209 192.136 675.469 192.084 675.685 191.98C675.901 191.868 676.101 191.708 676.285 191.5L677.053 192.268C676.773 192.58 676.445 192.804 676.069 192.94C675.701 193.076 675.309 193.144 674.893 193.144C674.453 193.144 674.049 193.072 673.681 192.928C673.321 192.784 673.009 192.584 672.745 192.328C672.481 192.064 672.277 191.752 672.133 191.392C671.989 191.024 671.917 190.62 671.917 190.18C671.917 189.74 671.989 189.336 672.133 188.968C672.277 188.6 672.477 188.284 672.733 188.02C672.997 187.756 673.309 187.552 673.669 187.408C674.037 187.256 674.445 187.18 674.893 187.18C675.309 187.18 675.705 187.256 676.081 187.408C676.465 187.552 676.797 187.776 677.077 188.08L676.261 188.824ZM681.03 188.248H679.482V190.828C679.482 190.988 679.486 191.148 679.494 191.308C679.502 191.46 679.53 191.6 679.578 191.728C679.634 191.848 679.714 191.948 679.818 192.028C679.93 192.1 680.09 192.136 680.298 192.136C680.426 192.136 680.558 192.124 680.694 192.1C680.83 192.076 680.954 192.032 681.066 191.968V192.952C680.938 193.024 680.77 193.072 680.562 193.096C680.362 193.128 680.206 193.144 680.094 193.144C679.678 193.144 679.354 193.088 679.122 192.976C678.898 192.856 678.73 192.704 678.618 192.52C678.514 192.336 678.45 192.132 678.426 191.908C678.41 191.676 678.402 191.444 678.402 191.212V188.248H677.154V187.312H678.402V185.716H679.482V187.312H681.03V188.248Z" fill="#97A3B4"/>
<path d="M799.254 184.504H800.766L805.446 191.488H805.47V184.504H806.622V193H805.158L800.43 186.016H800.406V193H799.254V184.504ZM809.405 190.156C809.405 190.444 809.449 190.712 809.537 190.96C809.625 191.2 809.749 191.408 809.909 191.584C810.069 191.752 810.265 191.888 810.497 191.992C810.729 192.088 810.989 192.136 811.277 192.136C811.565 192.136 811.825 192.088 812.057 191.992C812.289 191.888 812.485 191.752 812.645 191.584C812.805 191.408 812.929 191.2 813.017 190.96C813.105 190.712 813.149 190.444 813.149 190.156C813.149 189.868 813.105 189.604 813.017 189.364C812.929 189.116 812.805 188.908 812.645 188.74C812.485 188.564 812.289 188.428 812.057 188.332C811.825 188.228 811.565 188.176 811.277 188.176C810.989 188.176 810.729 188.228 810.497 188.332C810.265 188.428 810.069 188.564 809.909 188.74C809.749 188.908 809.625 189.116 809.537 189.364C809.449 189.604 809.405 189.868 809.405 190.156ZM808.253 190.156C808.253 189.74 808.329 189.352 808.481 188.992C808.641 188.632 808.857 188.316 809.129 188.044C809.401 187.772 809.721 187.56 810.089 187.408C810.457 187.248 810.853 187.168 811.277 187.168C811.701 187.168 812.097 187.248 812.465 187.408C812.833 187.56 813.153 187.772 813.425 188.044C813.697 188.316 813.909 188.632 814.061 188.992C814.221 189.352 814.301 189.74 814.301 190.156C814.301 190.572 814.221 190.964 814.061 191.332C813.909 191.692 813.697 192.008 813.425 192.28C813.153 192.544 812.833 192.756 812.465 192.916C812.097 193.068 811.701 193.144 811.277 193.144C810.853 193.144 810.457 193.068 810.089 192.916C809.721 192.756 809.401 192.544 809.129 192.28C808.857 192.008 808.641 191.692 808.481 191.332C808.329 190.964 808.253 190.572 808.253 190.156ZM814.97 187.312H816.218L817.922 191.668L819.554 187.312H820.706L818.474 193H817.286L814.97 187.312Z" fill="#97A3B4"/>
<path d="M730.224 184.504H733.188C733.788 184.504 734.312 184.572 734.76 184.708C735.216 184.844 735.608 185.028 735.936 185.26C736.272 185.484 736.548 185.744 736.764 186.04C736.988 186.336 737.164 186.64 737.292 186.952C737.42 187.264 737.512 187.576 737.568 187.888C737.624 188.2 737.652 188.488 737.652 188.752C737.652 189.296 737.552 189.824 737.352 190.336C737.152 190.84 736.856 191.292 736.464 191.692C736.072 192.084 735.584 192.4 735 192.64C734.424 192.88 733.756 193 732.996 193H730.224V184.504ZM731.376 191.92H732.828C733.316 191.92 733.776 191.856 734.208 191.728C734.648 191.592 735.032 191.392 735.36 191.128C735.688 190.864 735.948 190.536 736.14 190.144C736.332 189.744 736.428 189.28 736.428 188.752C736.428 188.48 736.384 188.164 736.296 187.804C736.208 187.436 736.04 187.088 735.792 186.76C735.552 186.432 735.216 186.156 734.784 185.932C734.352 185.7 733.792 185.584 733.104 185.584H731.376V191.92ZM739.851 190.552C739.851 190.8 739.903 191.028 740.007 191.236C740.119 191.436 740.263 191.608 740.439 191.752C740.615 191.896 740.819 192.008 741.051 192.088C741.283 192.168 741.523 192.208 741.771 192.208C742.107 192.208 742.399 192.132 742.647 191.98C742.895 191.82 743.123 191.612 743.331 191.356L744.147 191.98C743.547 192.756 742.707 193.144 741.627 193.144C741.179 193.144 740.771 193.068 740.403 192.916C740.043 192.764 739.735 192.556 739.479 192.292C739.231 192.02 739.039 191.704 738.903 191.344C738.767 190.976 738.699 190.58 738.699 190.156C738.699 189.732 738.771 189.34 738.915 188.98C739.067 188.612 739.271 188.296 739.527 188.032C739.791 187.76 740.103 187.548 740.463 187.396C740.823 187.244 741.215 187.168 741.639 187.168C742.143 187.168 742.567 187.256 742.911 187.432C743.263 187.608 743.551 187.84 743.775 188.128C743.999 188.408 744.159 188.728 744.255 189.088C744.359 189.44 744.411 189.8 744.411 190.168V190.552H739.851ZM743.259 189.688C743.251 189.448 743.211 189.228 743.139 189.028C743.075 188.828 742.975 188.656 742.839 188.512C742.703 188.36 742.531 188.244 742.323 188.164C742.123 188.076 741.887 188.032 741.615 188.032C741.351 188.032 741.107 188.084 740.883 188.188C740.667 188.284 740.483 188.412 740.331 188.572C740.179 188.732 740.059 188.912 739.971 189.112C739.891 189.304 739.851 189.496 739.851 189.688H743.259ZM749.771 188.824C749.571 188.616 749.359 188.46 749.135 188.356C748.919 188.244 748.659 188.188 748.355 188.188C748.059 188.188 747.799 188.244 747.575 188.356C747.359 188.46 747.175 188.608 747.023 188.8C746.879 188.984 746.767 189.2 746.687 189.448C746.615 189.688 746.579 189.94 746.579 190.204C746.579 190.468 746.623 190.72 746.711 190.96C746.799 191.192 746.923 191.396 747.083 191.572C747.243 191.748 747.435 191.888 747.659 191.992C747.883 192.088 748.135 192.136 748.415 192.136C748.719 192.136 748.979 192.084 749.195 191.98C749.411 191.868 749.611 191.708 749.795 191.5L750.563 192.268C750.283 192.58 749.955 192.804 749.579 192.94C749.211 193.076 748.819 193.144 748.403 193.144C747.963 193.144 747.559 193.072 747.191 192.928C746.831 192.784 746.519 192.584 746.255 192.328C745.991 192.064 745.787 191.752 745.643 191.392C745.499 191.024 745.427 190.62 745.427 190.18C745.427 189.74 745.499 189.336 745.643 188.968C745.787 188.6 745.987 188.284 746.243 188.02C746.507 187.756 746.819 187.552 747.179 187.408C747.547 187.256 747.955 187.18 748.403 187.18C748.819 187.18 749.215 187.256 749.591 187.408C749.975 187.552 750.307 187.776 750.587 188.08L749.771 188.824Z" fill="#97A3B4"/>
<path d="M49.9042 184.504H51.0562V190.576C51.0562 191.112 50.9722 191.552 50.8042 191.896C50.6362 192.232 50.4242 192.5 50.1682 192.7C49.9202 192.892 49.6522 193.024 49.3642 193.096C49.0762 193.176 48.8122 193.216 48.5722 193.216C47.9722 193.216 47.4642 193.064 47.0482 192.76C46.6402 192.448 46.3802 191.98 46.2682 191.356L47.3962 191.104C47.4602 191.424 47.5922 191.676 47.7922 191.86C47.9922 192.044 48.2522 192.136 48.5722 192.136C48.8602 192.136 49.0882 192.08 49.2562 191.968C49.4322 191.856 49.5682 191.712 49.6642 191.536C49.7602 191.352 49.8242 191.144 49.8562 190.912C49.8882 190.68 49.9042 190.444 49.9042 190.204V184.504ZM52.7892 188.008C53.0932 187.728 53.4452 187.52 53.8452 187.384C54.2452 187.24 54.6452 187.168 55.0452 187.168C55.4612 187.168 55.8172 187.22 56.1132 187.324C56.4172 187.428 56.6652 187.568 56.8572 187.744C57.0492 187.92 57.1892 188.124 57.2772 188.356C57.3732 188.58 57.4212 188.816 57.4212 189.064V191.968C57.4212 192.168 57.4252 192.352 57.4332 192.52C57.4412 192.688 57.4532 192.848 57.4692 193H56.5092C56.4852 192.712 56.4732 192.424 56.4732 192.136H56.4492C56.2092 192.504 55.9252 192.764 55.5972 192.916C55.2692 193.068 54.8892 193.144 54.4572 193.144C54.1932 193.144 53.9412 193.108 53.7012 193.036C53.4612 192.964 53.2492 192.856 53.0652 192.712C52.8892 192.568 52.7492 192.392 52.6452 192.184C52.5412 191.968 52.4892 191.72 52.4892 191.44C52.4892 191.072 52.5692 190.764 52.7292 190.516C52.8972 190.268 53.1212 190.068 53.4012 189.916C53.6892 189.756 54.0212 189.644 54.3972 189.58C54.7812 189.508 55.1892 189.472 55.6212 189.472H56.4132V189.232C56.4132 189.088 56.3852 188.944 56.3292 188.8C56.2732 188.656 56.1892 188.528 56.0772 188.416C55.9652 188.296 55.8252 188.204 55.6572 188.14C55.4892 188.068 55.2892 188.032 55.0572 188.032C54.8492 188.032 54.6652 188.052 54.5052 188.092C54.3532 188.132 54.2132 188.184 54.0852 188.248C53.9572 188.304 53.8412 188.372 53.7372 188.452C53.6332 188.532 53.5332 188.608 53.4372 188.68L52.7892 188.008ZM55.8372 190.264C55.5812 190.264 55.3172 190.28 55.0452 190.312C54.7812 190.336 54.5372 190.388 54.3132 190.468C54.0972 190.548 53.9172 190.66 53.7732 190.804C53.6372 190.948 53.5692 191.132 53.5692 191.356C53.5692 191.684 53.6772 191.92 53.8932 192.064C54.1172 192.208 54.4172 192.28 54.7932 192.28C55.0892 192.28 55.3412 192.232 55.5492 192.136C55.7572 192.032 55.9252 191.9 56.0532 191.74C56.1812 191.58 56.2732 191.404 56.3292 191.212C56.3852 191.012 56.4132 190.816 56.4132 190.624V190.264H55.8372ZM58.9879 187.312H60.0679V188.188H60.0919C60.2279 187.884 60.4639 187.64 60.7999 187.456C61.1359 187.264 61.5239 187.168 61.9639 187.168C62.2359 187.168 62.4959 187.212 62.7439 187.3C62.9999 187.38 63.2199 187.508 63.4039 187.684C63.5959 187.86 63.7479 188.088 63.8599 188.368C63.9719 188.64 64.0279 188.964 64.0279 189.34V193H62.9479V189.64C62.9479 189.376 62.9119 189.152 62.8399 188.968C62.7679 188.776 62.6719 188.624 62.5519 188.512C62.4319 188.392 62.2919 188.308 62.1319 188.26C61.9799 188.204 61.8199 188.176 61.6519 188.176C61.4279 188.176 61.2199 188.212 61.0279 188.284C60.8359 188.356 60.6679 188.472 60.5239 188.632C60.3799 188.784 60.2679 188.98 60.1879 189.22C60.1079 189.46 60.0679 189.744 60.0679 190.072V193H58.9879V187.312Z" fill="#97A3B4"/>
<path d="M0.408 164.752C0.408 164.44 0.424 164.116 0.456 163.78C0.488 163.444 0.544 163.116 0.624 162.796C0.712 162.468 0.824 162.156 0.96 161.86C1.104 161.564 1.284 161.308 1.5 161.092C1.724 160.868 1.984 160.692 2.28 160.564C2.584 160.428 2.936 160.36 3.336 160.36C3.736 160.36 4.084 160.428 4.38 160.564C4.684 160.692 4.944 160.868 5.16 161.092C5.384 161.308 5.564 161.564 5.7 161.86C5.844 162.156 5.956 162.468 6.036 162.796C6.124 163.116 6.184 163.444 6.216 163.78C6.248 164.116 6.264 164.44 6.264 164.752C6.264 165.2 6.224 165.68 6.144 166.192C6.064 166.704 5.916 167.18 5.7 167.62C5.484 168.06 5.184 168.424 4.8 168.712C4.424 169 3.936 169.144 3.336 169.144C2.736 169.144 2.244 169 1.86 168.712C1.484 168.424 1.188 168.06 0.972 167.62C0.756 167.18 0.608 166.704 0.528 166.192C0.448 165.68 0.408 165.2 0.408 164.752ZM1.56 164.752C1.56 165.032 1.576 165.364 1.608 165.748C1.648 166.132 1.728 166.504 1.848 166.864C1.968 167.216 2.144 167.516 2.376 167.764C2.616 168.012 2.936 168.136 3.336 168.136C3.736 168.136 4.052 168.012 4.284 167.764C4.524 167.516 4.704 167.216 4.824 166.864C4.944 166.504 5.02 166.132 5.052 165.748C5.092 165.364 5.112 165.032 5.112 164.752C5.112 164.56 5.104 164.344 5.088 164.104C5.08 163.856 5.052 163.608 5.004 163.36C4.964 163.104 4.904 162.86 4.824 162.628C4.744 162.388 4.636 162.176 4.5 161.992C4.372 161.8 4.212 161.648 4.02 161.536C3.828 161.424 3.6 161.368 3.336 161.368C3.072 161.368 2.844 161.424 2.652 161.536C2.46 161.648 2.296 161.8 2.16 161.992C2.032 162.176 1.928 162.388 1.848 162.628C1.768 162.86 1.704 163.104 1.656 163.36C1.616 163.608 1.588 163.856 1.572 164.104C1.564 164.344 1.56 164.56 1.56 164.752Z" fill="#97A3B4"/>
<path d="M5.652 122.584H2.208L2.172 124.708C2.228 124.684 2.308 124.66 2.412 124.636C2.516 124.612 2.62 124.592 2.724 124.576C2.836 124.56 2.944 124.548 3.048 124.54C3.152 124.532 3.24 124.528 3.312 124.528C3.712 124.528 4.072 124.596 4.392 124.732C4.72 124.868 5 125.06 5.232 125.308C5.464 125.556 5.64 125.852 5.76 126.196C5.888 126.54 5.952 126.92 5.952 127.336C5.952 127.76 5.872 128.144 5.712 128.488C5.56 128.832 5.348 129.128 5.076 129.376C4.804 129.624 4.488 129.816 4.128 129.952C3.768 130.08 3.38 130.144 2.964 130.144C2.388 130.144 1.868 129.996 1.404 129.7C0.94 129.404 0.608 128.98 0.408 128.428L1.572 128.032C1.724 128.424 1.928 128.708 2.184 128.884C2.44 129.052 2.76 129.136 3.144 129.136C3.368 129.136 3.58 129.096 3.78 129.016C3.988 128.936 4.164 128.824 4.308 128.68C4.46 128.528 4.58 128.344 4.668 128.128C4.756 127.912 4.8 127.668 4.8 127.396C4.8 126.772 4.608 126.308 4.224 126.004C3.848 125.692 3.356 125.536 2.748 125.536C2.532 125.536 2.256 125.576 1.92 125.656C1.592 125.728 1.284 125.836 0.996 125.98L1.092 121.504H5.652V122.584ZM7.07597 125.752C7.07597 125.44 7.09197 125.116 7.12397 124.78C7.15597 124.444 7.21197 124.116 7.29197 123.796C7.37997 123.468 7.49197 123.156 7.62797 122.86C7.77197 122.564 7.95197 122.308 8.16797 122.092C8.39197 121.868 8.65197 121.692 8.94797 121.564C9.25197 121.428 9.60397 121.36 10.004 121.36C10.404 121.36 10.752 121.428 11.048 121.564C11.352 121.692 11.612 121.868 11.828 122.092C12.052 122.308 12.232 122.564 12.368 122.86C12.512 123.156 12.624 123.468 12.704 123.796C12.792 124.116 12.852 124.444 12.884 124.78C12.916 125.116 12.932 125.44 12.932 125.752C12.932 126.2 12.892 126.68 12.812 127.192C12.732 127.704 12.584 128.18 12.368 128.62C12.152 129.06 11.852 129.424 11.468 129.712C11.092 130 10.604 130.144 10.004 130.144C9.40397 130.144 8.91197 130 8.52797 129.712C8.15197 129.424 7.85597 129.06 7.63997 128.62C7.42397 128.18 7.27597 127.704 7.19597 127.192C7.11597 126.68 7.07597 126.2 7.07597 125.752ZM8.22797 125.752C8.22797 126.032 8.24397 126.364 8.27597 126.748C8.31597 127.132 8.39597 127.504 8.51597 127.864C8.63597 128.216 8.81197 128.516 9.04397 128.764C9.28397 129.012 9.60397 129.136 10.004 129.136C10.404 129.136 10.72 129.012 10.952 128.764C11.192 128.516 11.372 128.216 11.492 127.864C11.612 127.504 11.688 127.132 11.72 126.748C11.76 126.364 11.78 126.032 11.78 125.752C11.78 125.56 11.772 125.344 11.756 125.104C11.748 124.856 11.72 124.608 11.672 124.36C11.632 124.104 11.572 123.86 11.492 123.628C11.412 123.388 11.304 123.176 11.168 122.992C11.04 122.8 10.88 122.648 10.688 122.536C10.496 122.424 10.268 122.368 10.004 122.368C9.73997 122.368 9.51197 122.424 9.31997 122.536C9.12797 122.648 8.96397 122.8 8.82797 122.992C8.69997 123.176 8.59597 123.388 8.51597 123.628C8.43597 123.86 8.37197 124.104 8.32397 124.36C8.28397 124.608 8.25597 124.856 8.23997 125.104C8.23197 125.344 8.22797 125.56 8.22797 125.752ZM14.1519 120.928H15.2319V126.784L17.6799 124.324H19.1799L16.5279 126.904L19.4079 130H17.8719L15.2319 127.048V130H14.1519V120.928Z" fill="#97A3B4"/>
<path d="M3.24 83.824L1.68 85.264L1.008 84.46L3.372 82.504H4.392V91H3.24V83.824ZM7.07597 86.752C7.07597 86.44 7.09197 86.116 7.12397 85.78C7.15597 85.444 7.21197 85.116 7.29197 84.796C7.37997 84.468 7.49197 84.156 7.62797 83.86C7.77197 83.564 7.95197 83.308 8.16797 83.092C8.39197 82.868 8.65197 82.692 8.94797 82.564C9.25197 82.428 9.60397 82.36 10.004 82.36C10.404 82.36 10.752 82.428 11.048 82.564C11.352 82.692 11.612 82.868 11.828 83.092C12.052 83.308 12.232 83.564 12.368 83.86C12.512 84.156 12.624 84.468 12.704 84.796C12.792 85.116 12.852 85.444 12.884 85.78C12.916 86.116 12.932 86.44 12.932 86.752C12.932 87.2 12.892 87.68 12.812 88.192C12.732 88.704 12.584 89.18 12.368 89.62C12.152 90.06 11.852 90.424 11.468 90.712C11.092 91 10.604 91.144 10.004 91.144C9.40397 91.144 8.91197 91 8.52797 90.712C8.15197 90.424 7.85597 90.06 7.63997 89.62C7.42397 89.18 7.27597 88.704 7.19597 88.192C7.11597 87.68 7.07597 87.2 7.07597 86.752ZM8.22797 86.752C8.22797 87.032 8.24397 87.364 8.27597 87.748C8.31597 88.132 8.39597 88.504 8.51597 88.864C8.63597 89.216 8.81197 89.516 9.04397 89.764C9.28397 90.012 9.60397 90.136 10.004 90.136C10.404 90.136 10.72 90.012 10.952 89.764C11.192 89.516 11.372 89.216 11.492 88.864C11.612 88.504 11.688 88.132 11.72 87.748C11.76 87.364 11.78 87.032 11.78 86.752C11.78 86.56 11.772 86.344 11.756 86.104C11.748 85.856 11.72 85.608 11.672 85.36C11.632 85.104 11.572 84.86 11.492 84.628C11.412 84.388 11.304 84.176 11.168 83.992C11.04 83.8 10.88 83.648 10.688 83.536C10.496 83.424 10.268 83.368 10.004 83.368C9.73997 83.368 9.51197 83.424 9.31997 83.536C9.12797 83.648 8.96397 83.8 8.82797 83.992C8.69997 84.176 8.59597 84.388 8.51597 84.628C8.43597 84.86 8.37197 85.104 8.32397 85.36C8.28397 85.608 8.25597 85.856 8.23997 86.104C8.23197 86.344 8.22797 86.56 8.22797 86.752ZM13.7439 86.752C13.7439 86.44 13.7599 86.116 13.7919 85.78C13.8239 85.444 13.8799 85.116 13.9599 84.796C14.0479 84.468 14.1599 84.156 14.2959 83.86C14.4399 83.564 14.6199 83.308 14.8359 83.092C15.0599 82.868 15.3199 82.692 15.6159 82.564C15.9199 82.428 16.2719 82.36 16.6719 82.36C17.0719 82.36 17.4199 82.428 17.7159 82.564C18.0199 82.692 18.2799 82.868 18.4959 83.092C18.7199 83.308 18.8999 83.564 19.0359 83.86C19.1799 84.156 19.2919 84.468 19.3719 84.796C19.4599 85.116 19.5199 85.444 19.5519 85.78C19.5839 86.116 19.5999 86.44 19.5999 86.752C19.5999 87.2 19.5599 87.68 19.4799 88.192C19.3999 88.704 19.2519 89.18 19.0359 89.62C18.8199 90.06 18.5199 90.424 18.1359 90.712C17.7599 91 17.2719 91.144 16.6719 91.144C16.0719 91.144 15.5799 91 15.1959 90.712C14.8199 90.424 14.5239 90.06 14.3079 89.62C14.0919 89.18 13.9439 88.704 13.8639 88.192C13.7839 87.68 13.7439 87.2 13.7439 86.752ZM14.8959 86.752C14.8959 87.032 14.9119 87.364 14.9439 87.748C14.9839 88.132 15.0639 88.504 15.1839 88.864C15.3039 89.216 15.4799 89.516 15.7119 89.764C15.9519 90.012 16.2719 90.136 16.6719 90.136C17.0719 90.136 17.3879 90.012 17.6199 89.764C17.8599 89.516 18.0399 89.216 18.1599 88.864C18.2799 88.504 18.3559 88.132 18.3879 87.748C18.4279 87.364 18.4479 87.032 18.4479 86.752C18.4479 86.56 18.4399 86.344 18.4239 86.104C18.4159 85.856 18.3879 85.608 18.3399 85.36C18.2999 85.104 18.2399 84.86 18.1599 84.628C18.0799 84.388 17.9719 84.176 17.8359 83.992C17.7079 83.8 17.5479 83.648 17.3559 83.536C17.1639 83.424 16.9359 83.368 16.6719 83.368C16.4079 83.368 16.1799 83.424 15.9879 83.536C15.7959 83.648 15.6319 83.8 15.4959 83.992C15.3679 84.176 15.2639 84.388 15.1839 84.628C15.1039 84.86 15.0399 85.104 14.9919 85.36C14.9519 85.608 14.9239 85.856 14.9079 86.104C14.8999 86.344 14.8959 86.56 14.8959 86.752ZM20.8199 81.928H21.8999V87.784L24.3479 85.324H25.8479L23.1959 87.904L26.0759 91H24.5399L21.8999 88.048V91H20.8199V81.928Z" fill="#97A3B4"/>
<path d="M3.24 44.824L1.68 46.264L1.008 45.46L3.372 43.504H4.392V52H3.24V44.824ZM12.32 44.584H8.87597L8.83997 46.708C8.89597 46.684 8.97597 46.66 9.07997 46.636C9.18397 46.612 9.28797 46.592 9.39197 46.576C9.50397 46.56 9.61197 46.548 9.71597 46.54C9.81997 46.532 9.90797 46.528 9.97997 46.528C10.38 46.528 10.74 46.596 11.06 46.732C11.388 46.868 11.668 47.06 11.9 47.308C12.132 47.556 12.308 47.852 12.428 48.196C12.556 48.54 12.62 48.92 12.62 49.336C12.62 49.76 12.54 50.144 12.38 50.488C12.228 50.832 12.016 51.128 11.744 51.376C11.472 51.624 11.156 51.816 10.796 51.952C10.436 52.08 10.048 52.144 9.63197 52.144C9.05597 52.144 8.53597 51.996 8.07197 51.7C7.60797 51.404 7.27597 50.98 7.07597 50.428L8.23997 50.032C8.39197 50.424 8.59597 50.708 8.85197 50.884C9.10797 51.052 9.42797 51.136 9.81197 51.136C10.036 51.136 10.248 51.096 10.448 51.016C10.656 50.936 10.832 50.824 10.976 50.68C11.128 50.528 11.248 50.344 11.336 50.128C11.424 49.912 11.468 49.668 11.468 49.396C11.468 48.772 11.276 48.308 10.892 48.004C10.516 47.692 10.024 47.536 9.41597 47.536C9.19997 47.536 8.92397 47.576 8.58797 47.656C8.25997 47.728 7.95197 47.836 7.66397 47.98L7.75997 43.504H12.32V44.584ZM13.7439 47.752C13.7439 47.44 13.7599 47.116 13.7919 46.78C13.8239 46.444 13.8799 46.116 13.9599 45.796C14.0479 45.468 14.1599 45.156 14.2959 44.86C14.4399 44.564 14.6199 44.308 14.8359 44.092C15.0599 43.868 15.3199 43.692 15.6159 43.564C15.9199 43.428 16.2719 43.36 16.6719 43.36C17.0719 43.36 17.4199 43.428 17.7159 43.564C18.0199 43.692 18.2799 43.868 18.4959 44.092C18.7199 44.308 18.8999 44.564 19.0359 44.86C19.1799 45.156 19.2919 45.468 19.3719 45.796C19.4599 46.116 19.5199 46.444 19.5519 46.78C19.5839 47.116 19.5999 47.44 19.5999 47.752C19.5999 48.2 19.5599 48.68 19.4799 49.192C19.3999 49.704 19.2519 50.18 19.0359 50.62C18.8199 51.06 18.5199 51.424 18.1359 51.712C17.7599 52 17.2719 52.144 16.6719 52.144C16.0719 52.144 15.5799 52 15.1959 51.712C14.8199 51.424 14.5239 51.06 14.3079 50.62C14.0919 50.18 13.9439 49.704 13.8639 49.192C13.7839 48.68 13.7439 48.2 13.7439 47.752ZM14.8959 47.752C14.8959 48.032 14.9119 48.364 14.9439 48.748C14.9839 49.132 15.0639 49.504 15.1839 49.864C15.3039 50.216 15.4799 50.516 15.7119 50.764C15.9519 51.012 16.2719 51.136 16.6719 51.136C17.0719 51.136 17.3879 51.012 17.6199 50.764C17.8599 50.516 18.0399 50.216 18.1599 49.864C18.2799 49.504 18.3559 49.132 18.3879 48.748C18.4279 48.364 18.4479 48.032 18.4479 47.752C18.4479 47.56 18.4399 47.344 18.4239 47.104C18.4159 46.856 18.3879 46.608 18.3399 46.36C18.2999 46.104 18.2399 45.86 18.1599 45.628C18.0799 45.388 17.9719 45.176 17.8359 44.992C17.7079 44.8 17.5479 44.648 17.3559 44.536C17.1639 44.424 16.9359 44.368 16.6719 44.368C16.4079 44.368 16.1799 44.424 15.9879 44.536C15.7959 44.648 15.6319 44.8 15.4959 44.992C15.3679 45.176 15.2639 45.388 15.1839 45.628C15.1039 45.86 15.0399 46.104 14.9919 46.36C14.9519 46.608 14.9239 46.856 14.9079 47.104C14.8999 47.344 14.8959 47.56 14.8959 47.752ZM20.8199 42.928H21.8999V48.784L24.3479 46.324H25.8479L23.1959 48.904L26.0759 52H24.5399L21.8999 49.048V52H20.8199V42.928Z" fill="#97A3B4"/>
<path d="M0.552 11.776L3.96 8.392C4.08 8.28 4.196 8.16 4.308 8.032C4.42 7.896 4.52 7.756 4.608 7.612C4.696 7.468 4.764 7.316 4.812 7.156C4.868 6.996 4.896 6.828 4.896 6.652C4.896 6.444 4.856 6.256 4.776 6.088C4.704 5.92 4.6 5.78 4.464 5.668C4.336 5.548 4.18 5.456 3.996 5.392C3.82 5.328 3.632 5.296 3.432 5.296C3.016 5.296 2.672 5.412 2.4 5.644C2.128 5.876 1.956 6.196 1.884 6.604L0.636 6.496C0.692 6.12 0.8 5.796 0.96 5.524C1.128 5.244 1.332 5.012 1.572 4.828C1.82 4.644 2.1 4.508 2.412 4.42C2.732 4.332 3.076 4.288 3.444 4.288C3.812 4.288 4.156 4.34 4.476 4.444C4.804 4.54 5.088 4.688 5.328 4.888C5.576 5.08 5.768 5.324 5.904 5.62C6.048 5.908 6.12 6.248 6.12 6.64C6.12 6.92 6.076 7.184 5.988 7.432C5.908 7.672 5.8 7.9 5.664 8.116C5.528 8.332 5.372 8.536 5.196 8.728C5.02 8.92 4.836 9.108 4.644 9.292L1.848 11.992H6.12V13H0.552V11.776ZM7.07597 8.752C7.07597 8.44 7.09197 8.116 7.12397 7.78C7.15597 7.444 7.21197 7.116 7.29197 6.796C7.37997 6.468 7.49197 6.156 7.62797 5.86C7.77197 5.564 7.95197 5.308 8.16797 5.092C8.39197 4.868 8.65197 4.692 8.94797 4.564C9.25197 4.428 9.60397 4.36 10.004 4.36C10.404 4.36 10.752 4.428 11.048 4.564C11.352 4.692 11.612 4.868 11.828 5.092C12.052 5.308 12.232 5.564 12.368 5.86C12.512 6.156 12.624 6.468 12.704 6.796C12.792 7.116 12.852 7.444 12.884 7.78C12.916 8.116 12.932 8.44 12.932 8.752C12.932 9.2 12.892 9.68 12.812 10.192C12.732 10.704 12.584 11.18 12.368 11.62C12.152 12.06 11.852 12.424 11.468 12.712C11.092 13 10.604 13.144 10.004 13.144C9.40397 13.144 8.91197 13 8.52797 12.712C8.15197 12.424 7.85597 12.06 7.63997 11.62C7.42397 11.18 7.27597 10.704 7.19597 10.192C7.11597 9.68 7.07597 9.2 7.07597 8.752ZM8.22797 8.752C8.22797 9.032 8.24397 9.364 8.27597 9.748C8.31597 10.132 8.39597 10.504 8.51597 10.864C8.63597 11.216 8.81197 11.516 9.04397 11.764C9.28397 12.012 9.60397 12.136 10.004 12.136C10.404 12.136 10.72 12.012 10.952 11.764C11.192 11.516 11.372 11.216 11.492 10.864C11.612 10.504 11.688 10.132 11.72 9.748C11.76 9.364 11.78 9.032 11.78 8.752C11.78 8.56 11.772 8.344 11.756 8.104C11.748 7.856 11.72 7.608 11.672 7.36C11.632 7.104 11.572 6.86 11.492 6.628C11.412 6.388 11.304 6.176 11.168 5.992C11.04 5.8 10.88 5.648 10.688 5.536C10.496 5.424 10.268 5.368 10.004 5.368C9.73997 5.368 9.51197 5.424 9.31997 5.536C9.12797 5.648 8.96397 5.8 8.82797 5.992C8.69997 6.176 8.59597 6.388 8.51597 6.628C8.43597 6.86 8.37197 7.104 8.32397 7.36C8.28397 7.608 8.25597 7.856 8.23997 8.104C8.23197 8.344 8.22797 8.56 8.22797 8.752ZM13.7439 8.752C13.7439 8.44 13.7599 8.116 13.7919 7.78C13.8239 7.444 13.8799 7.116 13.9599 6.796C14.0479 6.468 14.1599 6.156 14.2959 5.86C14.4399 5.564 14.6199 5.308 14.8359 5.092C15.0599 4.868 15.3199 4.692 15.6159 4.564C15.9199 4.428 16.2719 4.36 16.6719 4.36C17.0719 4.36 17.4199 4.428 17.7159 4.564C18.0199 4.692 18.2799 4.868 18.4959 5.092C18.7199 5.308 18.8999 5.564 19.0359 5.86C19.1799 6.156 19.2919 6.468 19.3719 6.796C19.4599 7.116 19.5199 7.444 19.5519 7.78C19.5839 8.116 19.5999 8.44 19.5999 8.752C19.5999 9.2 19.5599 9.68 19.4799 10.192C19.3999 10.704 19.2519 11.18 19.0359 11.62C18.8199 12.06 18.5199 12.424 18.1359 12.712C17.7599 13 17.2719 13.144 16.6719 13.144C16.0719 13.144 15.5799 13 15.1959 12.712C14.8199 12.424 14.5239 12.06 14.3079 11.62C14.0919 11.18 13.9439 10.704 13.8639 10.192C13.7839 9.68 13.7439 9.2 13.7439 8.752ZM14.8959 8.752C14.8959 9.032 14.9119 9.364 14.9439 9.748C14.9839 10.132 15.0639 10.504 15.1839 10.864C15.3039 11.216 15.4799 11.516 15.7119 11.764C15.9519 12.012 16.2719 12.136 16.6719 12.136C17.0719 12.136 17.3879 12.012 17.6199 11.764C17.8599 11.516 18.0399 11.216 18.1599 10.864C18.2799 10.504 18.3559 10.132 18.3879 9.748C18.4279 9.364 18.4479 9.032 18.4479 8.752C18.4479 8.56 18.4399 8.344 18.4239 8.104C18.4159 7.856 18.3879 7.608 18.3399 7.36C18.2999 7.104 18.2399 6.86 18.1599 6.628C18.0799 6.388 17.9719 6.176 17.8359 5.992C17.7079 5.8 17.5479 5.648 17.3559 5.536C17.1639 5.424 16.9359 5.368 16.6719 5.368C16.4079 5.368 16.1799 5.424 15.9879 5.536C15.7959 5.648 15.6319 5.8 15.4959 5.992C15.3679 6.176 15.2639 6.388 15.1839 6.628C15.1039 6.86 15.0399 7.104 14.9919 7.36C14.9519 7.608 14.9239 7.856 14.9079 8.104C14.8999 8.344 14.8959 8.56 14.8959 8.752ZM20.8199 3.928H21.8999V9.784L24.3479 7.324H25.8479L23.1959 9.904L26.0759 13H24.5399L21.8999 10.048V13H20.8199V3.928Z" fill="#97A3B4"/>
<path d="M113.145 184.504H118.485V185.584H114.297V188.248H118.197V189.328H114.297V193H113.145V184.504ZM120.575 190.552C120.575 190.8 120.627 191.028 120.731 191.236C120.843 191.436 120.987 191.608 121.163 191.752C121.339 191.896 121.543 192.008 121.775 192.088C122.007 192.168 122.247 192.208 122.495 192.208C122.831 192.208 123.123 192.132 123.371 191.98C123.619 191.82 123.847 191.612 124.055 191.356L124.871 191.98C124.271 192.756 123.431 193.144 122.351 193.144C121.903 193.144 121.495 193.068 121.127 192.916C120.767 192.764 120.459 192.556 120.203 192.292C119.955 192.02 119.763 191.704 119.627 191.344C119.491 190.976 119.423 190.58 119.423 190.156C119.423 189.732 119.495 189.34 119.639 188.98C119.791 188.612 119.995 188.296 120.251 188.032C120.515 187.76 120.827 187.548 121.187 187.396C121.547 187.244 121.939 187.168 122.363 187.168C122.867 187.168 123.291 187.256 123.635 187.432C123.987 187.608 124.275 187.84 124.499 188.128C124.723 188.408 124.883 188.728 124.979 189.088C125.083 189.44 125.135 189.8 125.135 190.168V190.552H120.575ZM123.983 189.688C123.975 189.448 123.935 189.228 123.863 189.028C123.799 188.828 123.699 188.656 123.563 188.512C123.427 188.36 123.255 188.244 123.047 188.164C122.847 188.076 122.611 188.032 122.339 188.032C122.075 188.032 121.831 188.084 121.607 188.188C121.391 188.284 121.207 188.412 121.055 188.572C120.903 188.732 120.783 188.912 120.695 189.112C120.615 189.304 120.575 189.496 120.575 189.688H123.983ZM126.427 183.928H127.507V188.128H127.531C127.723 187.832 127.999 187.6 128.359 187.432C128.719 187.256 129.103 187.168 129.511 187.168C129.951 187.168 130.347 187.244 130.699 187.396C131.059 187.548 131.363 187.76 131.611 188.032C131.867 188.296 132.063 188.612 132.199 188.98C132.335 189.34 132.403 189.732 132.403 190.156C132.403 190.58 132.335 190.972 132.199 191.332C132.063 191.692 131.867 192.008 131.611 192.28C131.363 192.552 131.059 192.764 130.699 192.916C130.347 193.068 129.951 193.144 129.511 193.144C129.127 193.144 128.751 193.06 128.383 192.892C128.023 192.724 127.739 192.488 127.531 192.184H127.507V193H126.427V183.928ZM129.379 192.136C129.667 192.136 129.927 192.088 130.159 191.992C130.391 191.888 130.587 191.752 130.747 191.584C130.907 191.408 131.031 191.2 131.119 190.96C131.207 190.712 131.251 190.444 131.251 190.156C131.251 189.868 131.207 189.604 131.119 189.364C131.031 189.116 130.907 188.908 130.747 188.74C130.587 188.564 130.391 188.428 130.159 188.332C129.927 188.228 129.667 188.176 129.379 188.176C129.091 188.176 128.831 188.228 128.599 188.332C128.367 188.428 128.171 188.564 128.011 188.74C127.851 188.908 127.727 189.116 127.639 189.364C127.551 189.604 127.507 189.868 127.507 190.156C127.507 190.444 127.551 190.712 127.639 190.96C127.727 191.2 127.851 191.408 128.011 191.584C128.171 191.752 128.367 191.888 128.599 191.992C128.831 192.088 129.091 192.136 129.379 192.136Z" fill="#97A3B4"/>
<path d="M181.238 184.504H182.954L185.654 190.936H185.702L188.378 184.504H190.094V193H188.942V186.016H188.918L186.05 193H185.282L182.414 186.016H182.39V193H181.238V184.504ZM191.945 188.008C192.249 187.728 192.601 187.52 193.001 187.384C193.401 187.24 193.801 187.168 194.201 187.168C194.617 187.168 194.973 187.22 195.269 187.324C195.573 187.428 195.821 187.568 196.013 187.744C196.205 187.92 196.345 188.124 196.433 188.356C196.529 188.58 196.577 188.816 196.577 189.064V191.968C196.577 192.168 196.581 192.352 196.589 192.52C196.597 192.688 196.609 192.848 196.625 193H195.665C195.641 192.712 195.629 192.424 195.629 192.136H195.605C195.365 192.504 195.081 192.764 194.753 192.916C194.425 193.068 194.045 193.144 193.613 193.144C193.349 193.144 193.097 193.108 192.857 193.036C192.617 192.964 192.405 192.856 192.221 192.712C192.045 192.568 191.905 192.392 191.801 192.184C191.697 191.968 191.645 191.72 191.645 191.44C191.645 191.072 191.725 190.764 191.885 190.516C192.053 190.268 192.277 190.068 192.557 189.916C192.845 189.756 193.177 189.644 193.553 189.58C193.937 189.508 194.345 189.472 194.777 189.472H195.569V189.232C195.569 189.088 195.541 188.944 195.485 188.8C195.429 188.656 195.345 188.528 195.233 188.416C195.121 188.296 194.981 188.204 194.813 188.14C194.645 188.068 194.445 188.032 194.213 188.032C194.005 188.032 193.821 188.052 193.661 188.092C193.509 188.132 193.369 188.184 193.241 188.248C193.113 188.304 192.997 188.372 192.893 188.452C192.789 188.532 192.689 188.608 192.593 188.68L191.945 188.008ZM194.993 190.264C194.737 190.264 194.473 190.28 194.201 190.312C193.937 190.336 193.693 190.388 193.469 190.468C193.253 190.548 193.073 190.66 192.929 190.804C192.793 190.948 192.725 191.132 192.725 191.356C192.725 191.684 192.833 191.92 193.049 192.064C193.273 192.208 193.573 192.28 193.949 192.28C194.245 192.28 194.497 192.232 194.705 192.136C194.913 192.032 195.081 191.9 195.209 191.74C195.337 191.58 195.429 191.404 195.485 191.212C195.541 191.012 195.569 190.816 195.569 190.624V190.264H194.993ZM198.144 187.312H199.224V188.188H199.248C199.32 188.036 199.416 187.9 199.536 187.78C199.656 187.652 199.788 187.544 199.932 187.456C200.084 187.368 200.248 187.3 200.424 187.252C200.6 187.196 200.776 187.168 200.952 187.168C201.128 187.168 201.288 187.192 201.432 187.24L201.384 188.404C201.296 188.38 201.208 188.36 201.12 188.344C201.032 188.328 200.944 188.32 200.856 188.32C200.328 188.32 199.924 188.468 199.644 188.764C199.364 189.06 199.224 189.52 199.224 190.144V193H198.144V187.312Z" fill="#97A3B4"/>
<path d="M253.143 184.504H254.187L257.823 193H256.479L255.627 190.9H251.583L250.743 193H249.399L253.143 184.504ZM255.207 189.892L253.623 185.992H253.599L251.991 189.892H255.207ZM258.652 187.312H259.732V188.128H259.756C259.964 187.824 260.248 187.588 260.608 187.42C260.976 187.252 261.352 187.168 261.736 187.168C262.176 187.168 262.572 187.244 262.924 187.396C263.284 187.548 263.588 187.76 263.836 188.032C264.092 188.304 264.288 188.624 264.424 188.992C264.56 189.352 264.628 189.74 264.628 190.156C264.628 190.58 264.56 190.976 264.424 191.344C264.288 191.704 264.092 192.02 263.836 192.292C263.588 192.556 263.284 192.764 262.924 192.916C262.572 193.068 262.176 193.144 261.736 193.144C261.328 193.144 260.944 193.06 260.584 192.892C260.224 192.716 259.948 192.48 259.756 192.184H259.732V196.384H258.652V187.312ZM261.604 188.176C261.316 188.176 261.056 188.228 260.824 188.332C260.592 188.428 260.396 188.564 260.236 188.74C260.076 188.908 259.952 189.116 259.864 189.364C259.776 189.604 259.732 189.868 259.732 190.156C259.732 190.444 259.776 190.712 259.864 190.96C259.952 191.2 260.076 191.408 260.236 191.584C260.396 191.752 260.592 191.888 260.824 191.992C261.056 192.088 261.316 192.136 261.604 192.136C261.892 192.136 262.152 192.088 262.384 191.992C262.616 191.888 262.812 191.752 262.972 191.584C263.132 191.408 263.256 191.2 263.344 190.96C263.432 190.712 263.476 190.444 263.476 190.156C263.476 189.868 263.432 189.604 263.344 189.364C263.256 189.116 263.132 188.908 262.972 188.74C262.812 188.564 262.616 188.428 262.384 188.332C262.152 188.228 261.892 188.176 261.604 188.176ZM265.988 187.312H267.068V188.188H267.092C267.164 188.036 267.26 187.9 267.38 187.78C267.5 187.652 267.632 187.544 267.776 187.456C267.928 187.368 268.092 187.3 268.268 187.252C268.444 187.196 268.62 187.168 268.796 187.168C268.972 187.168 269.132 187.192 269.276 187.24L269.228 188.404C269.14 188.38 269.052 188.36 268.964 188.344C268.876 188.328 268.788 188.32 268.7 188.32C268.172 188.32 267.768 188.468 267.488 188.764C267.208 189.06 267.068 189.52 267.068 190.144V193H265.988V187.312Z" fill="#97A3B4"/>
<path d="M318.459 184.504H320.175L322.875 190.936H322.923L325.599 184.504H327.315V193H326.163V186.016H326.139L323.271 193H322.503L319.635 186.016H319.611V193H318.459V184.504ZM329.166 188.008C329.47 187.728 329.822 187.52 330.222 187.384C330.622 187.24 331.022 187.168 331.422 187.168C331.838 187.168 332.194 187.22 332.49 187.324C332.794 187.428 333.042 187.568 333.234 187.744C333.426 187.92 333.566 188.124 333.654 188.356C333.75 188.58 333.798 188.816 333.798 189.064V191.968C333.798 192.168 333.802 192.352 333.81 192.52C333.818 192.688 333.83 192.848 333.846 193H332.886C332.862 192.712 332.85 192.424 332.85 192.136H332.826C332.586 192.504 332.302 192.764 331.974 192.916C331.646 193.068 331.266 193.144 330.834 193.144C330.57 193.144 330.318 193.108 330.078 193.036C329.838 192.964 329.626 192.856 329.442 192.712C329.266 192.568 329.126 192.392 329.022 192.184C328.918 191.968 328.866 191.72 328.866 191.44C328.866 191.072 328.946 190.764 329.106 190.516C329.274 190.268 329.498 190.068 329.778 189.916C330.066 189.756 330.398 189.644 330.774 189.58C331.158 189.508 331.566 189.472 331.998 189.472H332.79V189.232C332.79 189.088 332.762 188.944 332.706 188.8C332.65 188.656 332.566 188.528 332.454 188.416C332.342 188.296 332.202 188.204 332.034 188.14C331.866 188.068 331.666 188.032 331.434 188.032C331.226 188.032 331.042 188.052 330.882 188.092C330.73 188.132 330.59 188.184 330.462 188.248C330.334 188.304 330.218 188.372 330.114 188.452C330.01 188.532 329.91 188.608 329.814 188.68L329.166 188.008ZM332.214 190.264C331.958 190.264 331.694 190.28 331.422 190.312C331.158 190.336 330.914 190.388 330.69 190.468C330.474 190.548 330.294 190.66 330.15 190.804C330.014 190.948 329.946 191.132 329.946 191.356C329.946 191.684 330.054 191.92 330.27 192.064C330.494 192.208 330.794 192.28 331.17 192.28C331.466 192.28 331.718 192.232 331.926 192.136C332.134 192.032 332.302 191.9 332.43 191.74C332.558 191.58 332.65 191.404 332.706 191.212C332.762 191.012 332.79 190.816 332.79 190.624V190.264H332.214ZM334.681 187.312H335.929L337.621 191.752H337.645L339.253 187.312H340.417L337.717 194.224C337.621 194.472 337.521 194.696 337.417 194.896C337.313 195.104 337.189 195.28 337.045 195.424C336.901 195.568 336.725 195.68 336.517 195.76C336.317 195.84 336.069 195.88 335.773 195.88C335.613 195.88 335.449 195.868 335.281 195.844C335.121 195.828 334.965 195.788 334.813 195.724L334.945 194.74C335.161 194.828 335.377 194.872 335.593 194.872C335.761 194.872 335.901 194.848 336.013 194.8C336.133 194.76 336.233 194.696 336.313 194.608C336.401 194.528 336.473 194.432 336.529 194.32C336.585 194.208 336.641 194.08 336.697 193.936L337.045 193.036L334.681 187.312Z" fill="#97A3B4"/>
<path d="M459.074 184.504H460.226V190.576C460.226 191.112 460.142 191.552 459.974 191.896C459.806 192.232 459.594 192.5 459.338 192.7C459.09 192.892 458.822 193.024 458.534 193.096C458.246 193.176 457.982 193.216 457.742 193.216C457.142 193.216 456.634 193.064 456.218 192.76C455.81 192.448 455.55 191.98 455.438 191.356L456.566 191.104C456.63 191.424 456.762 191.676 456.962 191.86C457.162 192.044 457.422 192.136 457.742 192.136C458.03 192.136 458.258 192.08 458.426 191.968C458.602 191.856 458.738 191.712 458.834 191.536C458.93 191.352 458.994 191.144 459.026 190.912C459.058 190.68 459.074 190.444 459.074 190.204V184.504ZM466.975 193H465.895V192.124H465.871C465.735 192.428 465.499 192.676 465.163 192.868C464.827 193.052 464.439 193.144 463.999 193.144C463.719 193.144 463.455 193.1 463.207 193.012C462.959 192.932 462.739 192.804 462.547 192.628C462.363 192.452 462.215 192.228 462.103 191.956C461.991 191.676 461.935 191.348 461.935 190.972V187.312H463.015V190.672C463.015 190.936 463.051 191.164 463.123 191.356C463.195 191.54 463.291 191.692 463.411 191.812C463.531 191.924 463.667 192.008 463.819 192.064C463.979 192.112 464.143 192.136 464.311 192.136C464.535 192.136 464.743 192.1 464.935 192.028C465.127 191.956 465.295 191.844 465.439 191.692C465.583 191.532 465.695 191.332 465.775 191.092C465.855 190.852 465.895 190.568 465.895 190.24V187.312H466.975V193ZM468.687 183.928H469.767V193H468.687V183.928Z" fill="#97A3B4"/>
<path d="M392.182 184.504H393.334V190.576C393.334 191.112 393.25 191.552 393.082 191.896C392.914 192.232 392.702 192.5 392.446 192.7C392.198 192.892 391.93 193.024 391.642 193.096C391.354 193.176 391.09 193.216 390.85 193.216C390.25 193.216 389.742 193.064 389.326 192.76C388.918 192.448 388.658 191.98 388.546 191.356L389.674 191.104C389.738 191.424 389.87 191.676 390.07 191.86C390.27 192.044 390.53 192.136 390.85 192.136C391.138 192.136 391.366 192.08 391.534 191.968C391.71 191.856 391.846 191.712 391.942 191.536C392.038 191.352 392.102 191.144 392.134 190.912C392.166 190.68 392.182 190.444 392.182 190.204V184.504ZM400.083 193H399.003V192.124H398.979C398.843 192.428 398.607 192.676 398.271 192.868C397.935 193.052 397.547 193.144 397.107 193.144C396.827 193.144 396.563 193.1 396.315 193.012C396.067 192.932 395.847 192.804 395.655 192.628C395.471 192.452 395.323 192.228 395.211 191.956C395.099 191.676 395.043 191.348 395.043 190.972V187.312H396.123V190.672C396.123 190.936 396.159 191.164 396.231 191.356C396.303 191.54 396.399 191.692 396.519 191.812C396.639 191.924 396.775 192.008 396.927 192.064C397.087 192.112 397.251 192.136 397.419 192.136C397.643 192.136 397.851 192.1 398.043 192.028C398.235 191.956 398.403 191.844 398.547 191.692C398.691 191.532 398.803 191.332 398.883 191.092C398.963 190.852 399.003 190.568 399.003 190.24V187.312H400.083V193ZM401.711 187.312H402.791V188.188H402.815C402.951 187.884 403.187 187.64 403.523 187.456C403.859 187.264 404.247 187.168 404.687 187.168C404.959 187.168 405.219 187.212 405.467 187.3C405.723 187.38 405.943 187.508 406.127 187.684C406.319 187.86 406.471 188.088 406.583 188.368C406.695 188.64 406.751 188.964 406.751 189.34V193H405.671V189.64C405.671 189.376 405.635 189.152 405.563 188.968C405.491 188.776 405.395 188.624 405.275 188.512C405.155 188.392 405.015 188.308 404.855 188.26C404.703 188.204 404.543 188.176 404.375 188.176C404.151 188.176 403.943 188.212 403.751 188.284C403.559 188.356 403.391 188.472 403.247 188.632C403.103 188.784 402.991 188.98 402.911 189.22C402.831 189.46 402.791 189.744 402.791 190.072V193H401.711V187.312Z" fill="#97A3B4"/>
<path fill-rule="evenodd" clip-rule="evenodd" d="M31 160L36.0066 138.386L53.5592 137.457L65.8284 129.351L78.6553 128.905L88.0026 116.984L96.2239 85.994L101.494 74.9057L115.57 98.0344L127.017 101.554L135.393 94.8394L145.5 65.2412L174.477 125.254L186.407 99.4058L200.085 112.38L207.458 92.599L208.896 83.1089L219.999 73.4169L225.734 60.2465L232.071 78.644L231.022 90.7239L236.869 92.5107L241.405 87.1333L252.964 2L264.265 113.636L274.079 97.7232V88.6352L282.469 79.244L286.396 72.0456L293.625 61.2196L310.809 72.5084L319.364 78.644L326.27 74.6723L338.315 92.5239L355.836 57.4378L360.961 76.5711L371.947 89.8075L382.597 85.5681L387.571 76.5685L395.533 72.5031L396.536 64.776L405.622 45.7772L418.961 51.173L426.139 37.3683L441.32 145.061L454.36 122.909L471.544 121.36L492.136 137.082L500.136 75.7536L510.172 79.2057L514.895 71.9981L517.555 74.3004L522.548 73.5976L525.4 76.699L533.325 78.7218L533.467 85.5839L542.939 89.9341L554.776 88.9715L555.398 77.4849L558.376 32.3535L567.264 33.1315L577.666 43.4867L603.69 22.3108L618.376 37.3683H623.075H628.375L634.823 46.8119L642.654 57.4378L684.487 61.2196L691.211 45.7772L719.405 89.8009L735.633 51.173L752.308 64.7299L768.048 47.6815L785.463 61.2196L798.622 70.0527L806.01 67.3527L814.168 60.2465L822 51.173V160H96.4722H31Z" fill="url(#paint0_linear)"/>
<path d="M31 161L36.0629 138.573L53.6256 137.643L65.9018 129.525L78.7361 129.079L88.0888 117.142L96.3148 86.1092L101.697 75.0056L115.672 98.1661L127.126 101.69L135.507 94.9667L145.463 64.862L174.613 125.423L186.55 99.5393L200.236 112.531L207.613 92.7232L209.052 83.2201L220.162 73.5149L225.899 60.3263L232.24 78.7491L231.191 90.8456L237.041 92.6348L241.58 87.25L253.146 2L264.453 113.789L274.273 97.8545V88.754L282.667 79.3499L286.597 72.1416L293.83 61.3008L311.024 72.6051L319.584 78.7491L326.494 74.7719L338.546 92.648L356.076 57.5138L361.205 76.6733L372.197 89.9279L382.853 85.6827L387.83 76.6707L395.797 72.5998L396.801 64.862L405.892 45.8372L419.239 51.2404L426.421 37.4168L441.61 145.257L454.658 123.075L471.852 121.523L492.456 137.267L500.46 75.8547L510.502 79.3116L515.227 72.0941L517.889 74.3995L522.885 73.6958L525.739 76.8014L533.668 78.827L533.81 85.6985L543.288 90.0546L555.132 89.0907L555.754 77.5884L558.734 32.3951L567.627 33.1742L578.034 43.5436L604.074 22.3387L618.555 37.4168H628.557L643.044 57.5138L662.697 61.3008H684.687L691.412 45.8372L706.821 70.0263L719.615 90.8456L736.232 51.2404C736.232 51.2404 751.44 65.8939 753.187 64.862C754.934 63.8302 769.467 47.6493 769.467 47.6493L783.564 60.3263L800.413 72.1416L814.407 61.3008L821 51.2404H819.108H820.123" stroke="#0081C2" stroke-width="1.5"/>
<path fill-rule="evenodd" clip-rule="evenodd" d="M235 37C235 35.8954 235.895 35 237 35H313C314.105 35 315 35.8954 315 37V55C315 56.1046 314.105 57 313 57H281.826C281.297 57 280.79 57.2097 280.415 57.5831L276.412 61.5709C275.631 62.3484 274.369 62.3484 273.588 61.5709L269.585 57.5831C269.21 57.2097 268.703 57 268.174 57H237C235.895 57 235 56.1046 235 55V37Z" fill="#4E5353"/>
<path d="M258.764 48.924C258.9 49.332 259.08 49.636 259.304 49.836C259.536 50.036 259.876 50.136 260.324 50.136C260.548 50.136 260.756 50.1 260.948 50.028C261.148 49.948 261.324 49.844 261.476 49.716C261.628 49.58 261.748 49.42 261.836 49.236C261.924 49.044 261.968 48.832 261.968 48.6C261.968 48.248 261.892 47.968 261.74 47.76C261.596 47.544 261.408 47.384 261.176 47.28C260.944 47.168 260.688 47.096 260.408 47.064C260.128 47.032 259.852 47.016 259.58 47.016V46.008C260.02 46.008 260.38 45.98 260.66 45.924C260.94 45.86 261.16 45.772 261.32 45.66C261.48 45.548 261.592 45.408 261.656 45.24C261.72 45.072 261.752 44.884 261.752 44.676C261.752 44.22 261.616 43.876 261.344 43.644C261.072 43.412 260.732 43.296 260.324 43.296C260.012 43.296 259.728 43.388 259.472 43.572C259.224 43.748 259.036 43.984 258.908 44.28L257.732 43.884C257.956 43.34 258.296 42.94 258.752 42.684C259.216 42.42 259.732 42.288 260.3 42.288C260.644 42.288 260.972 42.336 261.284 42.432C261.604 42.52 261.884 42.66 262.124 42.852C262.364 43.044 262.552 43.288 262.688 43.584C262.832 43.872 262.904 44.212 262.904 44.604C262.904 45.052 262.768 45.452 262.496 45.804C262.232 46.156 261.884 46.396 261.452 46.524V46.548C261.716 46.596 261.952 46.684 262.16 46.812C262.368 46.94 262.544 47.1 262.688 47.292C262.832 47.484 262.94 47.7 263.012 47.94C263.084 48.172 263.12 48.42 263.12 48.684C263.12 49.092 263.04 49.452 262.88 49.764C262.728 50.068 262.52 50.324 262.256 50.532C262 50.732 261.7 50.884 261.356 50.988C261.02 51.092 260.664 51.144 260.288 51.144C259.64 51.144 259.068 50.996 258.572 50.7C258.084 50.404 257.744 49.936 257.552 49.296L258.764 48.924ZM269.32 43.584H265.876L265.84 45.708C265.896 45.684 265.976 45.66 266.08 45.636C266.184 45.612 266.288 45.592 266.392 45.576C266.504 45.56 266.612 45.548 266.716 45.54C266.82 45.532 266.908 45.528 266.98 45.528C267.38 45.528 267.74 45.596 268.06 45.732C268.388 45.868 268.668 46.06 268.9 46.308C269.132 46.556 269.308 46.852 269.428 47.196C269.556 47.54 269.62 47.92 269.62 48.336C269.62 48.76 269.54 49.144 269.38 49.488C269.228 49.832 269.016 50.128 268.744 50.376C268.472 50.624 268.156 50.816 267.796 50.952C267.436 51.08 267.048 51.144 266.632 51.144C266.056 51.144 265.536 50.996 265.072 50.7C264.608 50.404 264.276 49.98 264.076 49.428L265.24 49.032C265.392 49.424 265.596 49.708 265.852 49.884C266.108 50.052 266.428 50.136 266.812 50.136C267.036 50.136 267.248 50.096 267.448 50.016C267.656 49.936 267.832 49.824 267.976 49.68C268.128 49.528 268.248 49.344 268.336 49.128C268.424 48.912 268.468 48.668 268.468 48.396C268.468 47.772 268.276 47.308 267.892 47.004C267.516 46.692 267.024 46.536 266.416 46.536C266.2 46.536 265.924 46.576 265.588 46.656C265.26 46.728 264.952 46.836 264.664 46.98L264.76 42.504H269.32V43.584ZM271.896 52.584H270.912L271.74 49.632H272.904L271.896 52.584ZM276.316 45.792H276.364C276.628 45.664 276.94 45.6 277.3 45.6C277.604 45.6 277.912 45.652 278.224 45.756C278.536 45.86 278.816 46.024 279.064 46.248C279.32 46.464 279.528 46.744 279.688 47.088C279.848 47.424 279.928 47.824 279.928 48.288C279.928 48.76 279.848 49.176 279.688 49.536C279.536 49.888 279.328 50.184 279.064 50.424C278.8 50.664 278.492 50.844 278.14 50.964C277.788 51.084 277.412 51.144 277.012 51.144C276.612 51.144 276.236 51.08 275.884 50.952C275.532 50.824 275.224 50.64 274.96 50.4C274.696 50.16 274.484 49.872 274.324 49.536C274.172 49.2 274.096 48.824 274.096 48.408C274.096 48.144 274.116 47.904 274.156 47.688C274.196 47.472 274.252 47.268 274.324 47.076C274.404 46.876 274.496 46.684 274.6 46.5C274.704 46.308 274.82 46.108 274.948 45.9L277.096 42.504H278.452L276.316 45.792ZM275.248 48.372C275.248 48.628 275.288 48.864 275.368 49.08C275.456 49.296 275.576 49.484 275.728 49.644C275.888 49.796 276.076 49.916 276.292 50.004C276.508 50.092 276.748 50.136 277.012 50.136C277.276 50.136 277.516 50.092 277.732 50.004C277.948 49.916 278.132 49.796 278.284 49.644C278.444 49.484 278.564 49.296 278.644 49.08C278.732 48.864 278.776 48.628 278.776 48.372C278.776 48.116 278.732 47.88 278.644 47.664C278.564 47.448 278.444 47.264 278.284 47.112C278.132 46.952 277.948 46.828 277.732 46.74C277.516 46.652 277.276 46.608 277.012 46.608C276.748 46.608 276.508 46.652 276.292 46.74C276.076 46.828 275.888 46.952 275.728 47.112C275.576 47.264 275.456 47.448 275.368 47.664C275.288 47.88 275.248 48.116 275.248 48.372ZM282.984 45.792H283.032C283.296 45.664 283.608 45.6 283.968 45.6C284.272 45.6 284.58 45.652 284.892 45.756C285.204 45.86 285.484 46.024 285.732 46.248C285.988 46.464 286.196 46.744 286.356 47.088C286.516 47.424 286.596 47.824 286.596 48.288C286.596 48.76 286.516 49.176 286.356 49.536C286.204 49.888 285.996 50.184 285.732 50.424C285.468 50.664 285.16 50.844 284.808 50.964C284.456 51.084 284.08 51.144 283.68 51.144C283.28 51.144 282.904 51.08 282.552 50.952C282.2 50.824 281.892 50.64 281.628 50.4C281.364 50.16 281.152 49.872 280.992 49.536C280.84 49.2 280.764 48.824 280.764 48.408C280.764 48.144 280.784 47.904 280.824 47.688C280.864 47.472 280.92 47.268 280.992 47.076C281.072 46.876 281.164 46.684 281.268 46.5C281.372 46.308 281.488 46.108 281.616 45.9L283.764 42.504H285.12L282.984 45.792ZM281.916 48.372C281.916 48.628 281.956 48.864 282.036 49.08C282.124 49.296 282.244 49.484 282.396 49.644C282.556 49.796 282.744 49.916 282.96 50.004C283.176 50.092 283.416 50.136 283.68 50.136C283.944 50.136 284.184 50.092 284.4 50.004C284.616 49.916 284.8 49.796 284.952 49.644C285.112 49.484 285.232 49.296 285.312 49.08C285.4 48.864 285.444 48.628 285.444 48.372C285.444 48.116 285.4 47.88 285.312 47.664C285.232 47.448 285.112 47.264 284.952 47.112C284.8 46.952 284.616 46.828 284.4 46.74C284.184 46.652 283.944 46.608 283.68 46.608C283.416 46.608 283.176 46.652 282.96 46.74C282.744 46.828 282.556 46.952 282.396 47.112C282.244 47.264 282.124 47.448 282.036 47.664C281.956 47.88 281.916 48.116 281.916 48.372ZM287.42 46.752C287.42 46.44 287.436 46.116 287.468 45.78C287.5 45.444 287.556 45.116 287.636 44.796C287.724 44.468 287.836 44.156 287.972 43.86C288.116 43.564 288.296 43.308 288.512 43.092C288.736 42.868 288.996 42.692 289.292 42.564C289.596 42.428 289.948 42.36 290.348 42.36C290.748 42.36 291.096 42.428 291.392 42.564C291.696 42.692 291.956 42.868 292.172 43.092C292.396 43.308 292.576 43.564 292.712 43.86C292.856 44.156 292.968 44.468 293.048 44.796C293.136 45.116 293.196 45.444 293.228 45.78C293.26 46.116 293.276 46.44 293.276 46.752C293.276 47.2 293.236 47.68 293.156 48.192C293.076 48.704 292.928 49.18 292.712 49.62C292.496 50.06 292.196 50.424 291.812 50.712C291.436 51 290.948 51.144 290.348 51.144C289.748 51.144 289.256 51 288.872 50.712C288.496 50.424 288.2 50.06 287.984 49.62C287.768 49.18 287.62 48.704 287.54 48.192C287.46 47.68 287.42 47.2 287.42 46.752ZM288.572 46.752C288.572 47.032 288.588 47.364 288.62 47.748C288.66 48.132 288.74 48.504 288.86 48.864C288.98 49.216 289.156 49.516 289.388 49.764C289.628 50.012 289.948 50.136 290.348 50.136C290.748 50.136 291.064 50.012 291.296 49.764C291.536 49.516 291.716 49.216 291.836 48.864C291.956 48.504 292.032 48.132 292.064 47.748C292.104 47.364 292.124 47.032 292.124 46.752C292.124 46.56 292.116 46.344 292.1 46.104C292.092 45.856 292.064 45.608 292.016 45.36C291.976 45.104 291.916 44.86 291.836 44.628C291.756 44.388 291.648 44.176 291.512 43.992C291.384 43.8 291.224 43.648 291.032 43.536C290.84 43.424 290.612 43.368 290.348 43.368C290.084 43.368 289.856 43.424 289.664 43.536C289.472 43.648 289.308 43.8 289.172 43.992C289.044 44.176 288.94 44.388 288.86 44.628C288.78 44.86 288.716 45.104 288.668 45.36C288.628 45.608 288.6 45.856 288.584 46.104C288.576 46.344 288.572 46.56 288.572 46.752Z" fill="white"/>
<defs>
<linearGradient id="paint0_linear" x1="228.75" y1="81" x2="228.75" y2="160" gradientUnits="userSpaceOnUse">
<stop stop-color="#0081C2" stop-opacity="0.22"/>
<stop offset="1" stop-color="white" stop-opacity="0.176942"/>
</linearGradient>
</defs>
</svg>
