<svg width="200" height="200" viewBox="0 0 200 200" fill="none" xmlns="http://www.w3.org/2000/svg">
<mask id="path-1-inside-1" fill="white">
<path d="M200 100C200 155.228 155.228 200 100 200C44.7715 200 0 155.228 0 100C0 44.7715 44.7715 0 100 0C155.228 0 200 44.7715 200 100ZM66.3609 100C66.3609 118.578 81.4216 133.639 100 133.639C118.578 133.639 133.639 118.578 133.639 100C133.639 81.4216 118.578 66.3609 100 66.3609C81.4216 66.3609 66.3609 81.4216 66.3609 100Z"/>
</mask>
<path d="M200 100C200 155.228 155.228 200 100 200C44.7715 200 0 155.228 0 100C0 44.7715 44.7715 0 100 0C155.228 0 200 44.7715 200 100ZM66.3609 100C66.3609 118.578 81.4216 133.639 100 133.639C118.578 133.639 133.639 118.578 133.639 100C133.639 81.4216 118.578 66.3609 100 66.3609C81.4216 66.3609 66.3609 81.4216 66.3609 100Z" fill="#5073B8" fill-opacity="0.1" stroke="#5073B8" stroke-width="2" mask="url(#path-1-inside-1)"/>
<mask id="path-2-inside-2" fill="white">
<path d="M162.291 21.7705C148.675 10.929 132.466 3.82876 115.265 1.17194C98.064 -1.48487 80.4676 0.393708 64.2154 6.62194C47.9631 12.8502 33.6179 23.2124 22.5979 36.6841C11.5779 50.1557 4.26476 66.2703 1.3816 83.4347C-1.50157 100.599 0.145058 118.219 6.15867 134.551C12.1723 150.884 22.3446 165.365 35.67 176.561C48.9953 187.758 65.0122 195.283 82.137 198.392C99.2619 201.501 116.902 200.086 133.312 194.288L111.099 131.414C105.631 133.346 99.7541 133.817 94.0486 132.781C88.343 131.746 83.0066 129.239 78.567 125.508C74.1274 121.778 70.7382 116.953 68.7346 111.512C66.7311 106.07 66.1825 100.2 67.1431 94.4809C68.1036 88.7622 70.5402 83.3933 74.2117 78.9049C77.8833 74.4165 82.6628 70.9641 88.0776 68.889C93.4924 66.8139 99.355 66.188 105.086 67.0732C110.817 67.9584 116.217 70.324 120.754 73.9361L162.291 21.7705Z"/>
</mask>
<path d="M162.291 21.7705C148.675 10.929 132.466 3.82876 115.265 1.17194C98.064 -1.48487 80.4676 0.393708 64.2154 6.62194C47.9631 12.8502 33.6179 23.2124 22.5979 36.6841C11.5779 50.1557 4.26476 66.2703 1.3816 83.4347C-1.50157 100.599 0.145058 118.219 6.15867 134.551C12.1723 150.884 22.3446 165.365 35.67 176.561C48.9953 187.758 65.0122 195.283 82.137 198.392C99.2619 201.501 116.902 200.086 133.312 194.288L111.099 131.414C105.631 133.346 99.7541 133.817 94.0486 132.781C88.343 131.746 83.0066 129.239 78.567 125.508C74.1274 121.778 70.7382 116.953 68.7346 111.512C66.7311 106.07 66.1825 100.2 67.1431 94.4809C68.1036 88.7622 70.5402 83.3933 74.2117 78.9049C77.8833 74.4165 82.6628 70.9641 88.0776 68.889C93.4924 66.8139 99.355 66.188 105.086 67.0732C110.817 67.9584 116.217 70.324 120.754 73.9361L162.291 21.7705Z" fill="#F16548" fill-opacity="0.1" stroke="#ECA8AF" stroke-width="2" mask="url(#path-2-inside-2)"/>
</svg>
