<svg width="1240" height="240" viewBox="0 0 1240 240" fill="none" xmlns="http://www.w3.org/2000/svg">
<path d="M42.9999 221V0H44.138V15.9057H283.254V0H284.392V15.9057H523.507V0H524.645V15.9057H763.761V0H764.899V15.9057H1004.01V0H1005.15V15.9057H1238.57V16.7425H1005.15V66.966H1238.57V0H1239.71V169.098H1240V169.935H1239.71V221H42.9999ZM1238.57 220.163V169.94H1005.15V220.163H1238.57ZM1004.01 220.163V169.94H764.899V220.163H1004.01ZM763.753 220.163V169.94H524.645V220.163H763.753ZM523.499 220.163V169.94H284.392V220.163H523.499ZM283.245 220.163V169.94H44.4302V169.103H283.254V118.879H44.138V220.163H283.245ZM1238.57 169.098V118.875H1005.15V169.098H1238.57ZM1004 169.098V118.875H764.899V169.098H1004ZM763.747 169.098V118.875H524.645V169.098H763.747ZM523.493 169.098V118.875H284.392V169.098H523.493ZM1238.56 118.033V67.8066H1005.15V118.03L1238.56 118.033ZM1003.99 118.033V67.8066H764.899V118.03L1003.99 118.033ZM763.741 118.033V67.8066H524.645V118.03L763.741 118.033ZM523.487 118.033V67.8066H284.392V118.03L523.487 118.033ZM283.233 118.033V67.8066H44.138V118.03L283.233 118.033ZM1004.01 66.9699V16.7463H764.899V66.9699H1004.01ZM763.761 66.9699V16.7463H524.645V66.9699H763.761ZM523.507 66.9699V16.7463H284.392V66.9699H523.507ZM283.254 66.9699V16.7463H44.138V66.9699H283.254Z" fill="#E5E8ED"/>
<path d="M62.2211 231.45C62.0211 231.19 61.7677 230.99 61.4611 230.85C61.1544 230.71 60.8377 230.64 60.5111 230.64C60.1111 230.64 59.7477 230.717 59.4211 230.87C59.1011 231.017 58.8244 231.22 58.5911 231.48C58.3644 231.74 58.1877 232.047 58.0611 232.4C57.9344 232.747 57.8711 233.12 57.8711 233.52C57.8711 233.893 57.9311 234.247 58.0511 234.58C58.1711 234.913 58.3444 235.207 58.5711 235.46C58.7977 235.713 59.0744 235.913 59.4011 236.06C59.7277 236.207 60.0977 236.28 60.5111 236.28C60.9177 236.28 61.2744 236.197 61.5811 236.03C61.8877 235.863 62.1477 235.63 62.3611 235.33L63.1711 235.94C63.1177 236.013 63.0244 236.12 62.8911 236.26C62.7577 236.393 62.5811 236.53 62.3611 236.67C62.1411 236.803 61.8744 236.92 61.5611 237.02C61.2544 237.127 60.8977 237.18 60.4911 237.18C59.9311 237.18 59.4244 237.073 58.9711 236.86C58.5244 236.647 58.1411 236.367 57.8211 236.02C57.5077 235.673 57.2677 235.283 57.1011 234.85C56.9344 234.41 56.8511 233.967 56.8511 233.52C56.8511 232.973 56.9411 232.47 57.1211 232.01C57.3011 231.543 57.5511 231.143 57.8711 230.81C58.1977 230.47 58.5877 230.207 59.0411 230.02C59.4944 229.833 59.9944 229.74 60.5411 229.74C61.0077 229.74 61.4644 229.83 61.9111 230.01C62.3644 230.19 62.7344 230.467 63.0211 230.84L62.2211 231.45ZM68.3021 237H67.4021V236.27H67.3821C67.2688 236.523 67.0721 236.73 66.7921 236.89C66.5121 237.043 66.1888 237.12 65.8221 237.12C65.5888 237.12 65.3688 237.083 65.1621 237.01C64.9554 236.943 64.7721 236.837 64.6121 236.69C64.4588 236.543 64.3354 236.357 64.2421 236.13C64.1488 235.897 64.1021 235.623 64.1021 235.31V232.26H65.0021V235.06C65.0021 235.28 65.0321 235.47 65.0921 235.63C65.1521 235.783 65.2321 235.91 65.3321 236.01C65.4321 236.103 65.5454 236.173 65.6721 236.22C65.8054 236.26 65.9421 236.28 66.0821 236.28C66.2688 236.28 66.4421 236.25 66.6021 236.19C66.7621 236.13 66.9021 236.037 67.0221 235.91C67.1421 235.777 67.2354 235.61 67.3021 235.41C67.3688 235.21 67.4021 234.973 67.4021 234.7V232.26H68.3021V237ZM72.1787 233.45C72.0721 233.317 71.9387 233.207 71.7787 233.12C71.6254 233.027 71.4354 232.98 71.2087 232.98C70.9954 232.98 70.8087 233.027 70.6487 233.12C70.4954 233.207 70.4187 233.337 70.4187 233.51C70.4187 233.65 70.4621 233.763 70.5487 233.85C70.6421 233.937 70.7487 234.007 70.8687 234.06C70.9954 234.113 71.1287 234.153 71.2687 234.18C71.4087 234.207 71.5287 234.23 71.6287 234.25C71.8221 234.297 72.0021 234.353 72.1687 234.42C72.3421 234.487 72.4887 234.573 72.6087 234.68C72.7354 234.787 72.8321 234.917 72.8987 235.07C72.9721 235.223 73.0087 235.41 73.0087 235.63C73.0087 235.897 72.9521 236.127 72.8387 236.32C72.7254 236.507 72.5787 236.66 72.3987 236.78C72.2187 236.9 72.0121 236.987 71.7787 237.04C71.5521 237.093 71.3221 237.12 71.0887 237.12C70.6954 237.12 70.3487 237.06 70.0487 236.94C69.7554 236.82 69.4921 236.6 69.2587 236.28L69.9387 235.72C70.0854 235.867 70.2487 235.997 70.4287 236.11C70.6087 236.223 70.8287 236.28 71.0887 236.28C71.2021 236.28 71.3154 236.27 71.4287 236.25C71.5487 236.223 71.6521 236.187 71.7387 236.14C71.8321 236.087 71.9054 236.023 71.9587 235.95C72.0187 235.87 72.0487 235.78 72.0487 235.68C72.0487 235.547 72.0054 235.437 71.9187 235.35C71.8387 235.263 71.7387 235.197 71.6187 235.15C71.5054 235.097 71.3821 235.057 71.2487 235.03C71.1221 234.997 71.0087 234.97 70.9087 234.95C70.7154 234.903 70.5321 234.85 70.3587 234.79C70.1854 234.73 70.0321 234.65 69.8987 234.55C69.7654 234.45 69.6587 234.323 69.5787 234.17C69.4987 234.017 69.4587 233.827 69.4587 233.6C69.4587 233.353 69.5087 233.14 69.6087 232.96C69.7154 232.773 69.8521 232.62 70.0187 232.5C70.1921 232.38 70.3854 232.29 70.5987 232.23C70.8187 232.17 71.0387 232.14 71.2587 232.14C71.5787 232.14 71.8854 232.2 72.1787 232.32C72.4721 232.44 72.7054 232.64 72.8787 232.92L72.1787 233.45ZM76.6421 233.04H75.3521V235.19C75.3521 235.323 75.3554 235.457 75.3621 235.59C75.3688 235.717 75.3921 235.833 75.4321 235.94C75.4788 236.04 75.5454 236.123 75.6321 236.19C75.7254 236.25 75.8588 236.28 76.0321 236.28C76.1388 236.28 76.2488 236.27 76.3621 236.25C76.4754 236.23 76.5788 236.193 76.6721 236.14V236.96C76.5654 237.02 76.4254 237.06 76.2521 237.08C76.0854 237.107 75.9554 237.12 75.8621 237.12C75.5154 237.12 75.2454 237.073 75.0521 236.98C74.8654 236.88 74.7254 236.753 74.6321 236.6C74.5454 236.447 74.4921 236.277 74.4721 236.09C74.4588 235.897 74.4521 235.703 74.4521 235.51V233.04H73.4121V232.26H74.4521V230.93H75.3521V232.26H76.6421V233.04ZM78.5333 234.63C78.5333 234.87 78.5699 235.093 78.6433 235.3C78.7166 235.5 78.8199 235.673 78.9533 235.82C79.0866 235.96 79.2499 236.073 79.4433 236.16C79.6366 236.24 79.8533 236.28 80.0933 236.28C80.3333 236.28 80.5499 236.24 80.7433 236.16C80.9366 236.073 81.0999 235.96 81.2333 235.82C81.3666 235.673 81.4699 235.5 81.5433 235.3C81.6166 235.093 81.6533 234.87 81.6533 234.63C81.6533 234.39 81.6166 234.17 81.5433 233.97C81.4699 233.763 81.3666 233.59 81.2333 233.45C81.0999 233.303 80.9366 233.19 80.7433 233.11C80.5499 233.023 80.3333 232.98 80.0933 232.98C79.8533 232.98 79.6366 233.023 79.4433 233.11C79.2499 233.19 79.0866 233.303 78.9533 233.45C78.8199 233.59 78.7166 233.763 78.6433 233.97C78.5699 234.17 78.5333 234.39 78.5333 234.63ZM77.5733 234.63C77.5733 234.283 77.6366 233.96 77.7633 233.66C77.8966 233.36 78.0766 233.097 78.3033 232.87C78.5299 232.643 78.7966 232.467 79.1033 232.34C79.4099 232.207 79.7399 232.14 80.0933 232.14C80.4466 232.14 80.7766 232.207 81.0833 232.34C81.3899 232.467 81.6566 232.643 81.8833 232.87C82.1099 233.097 82.2866 233.36 82.4133 233.66C82.5466 233.96 82.6133 234.283 82.6133 234.63C82.6133 234.977 82.5466 235.303 82.4133 235.61C82.2866 235.91 82.1099 236.173 81.8833 236.4C81.6566 236.62 81.3899 236.797 81.0833 236.93C80.7766 237.057 80.4466 237.12 80.0933 237.12C79.7399 237.12 79.4099 237.057 79.1033 236.93C78.7966 236.797 78.5299 236.62 78.3033 236.4C78.0766 236.173 77.8966 235.91 77.7633 235.61C77.6366 235.303 77.5733 234.977 77.5733 234.63ZM83.7408 232.26H84.5808V233H84.6008C84.6208 232.933 84.6708 232.85 84.7508 232.75C84.8374 232.65 84.9441 232.557 85.0708 232.47C85.2041 232.377 85.3574 232.3 85.5308 232.24C85.7108 232.173 85.9074 232.14 86.1208 232.14C86.4741 232.14 86.7708 232.213 87.0108 232.36C87.2508 232.507 87.4474 232.727 87.6008 233.02C87.7541 232.727 87.9708 232.507 88.2508 232.36C88.5308 232.213 88.8141 232.14 89.1008 232.14C89.4674 232.14 89.7674 232.2 90.0008 232.32C90.2341 232.44 90.4174 232.6 90.5508 232.8C90.6841 232.993 90.7741 233.217 90.8208 233.47C90.8741 233.717 90.9008 233.973 90.9008 234.24V237H90.0008V234.36C90.0008 234.18 89.9874 234.007 89.9608 233.84C89.9408 233.673 89.8941 233.527 89.8208 233.4C89.7474 233.273 89.6441 233.173 89.5108 233.1C89.3774 233.02 89.2008 232.98 88.9808 232.98C88.5474 232.98 88.2374 233.113 88.0508 233.38C87.8641 233.647 87.7708 233.99 87.7708 234.41V237H86.8708V234.52C86.8708 234.293 86.8574 234.087 86.8308 233.9C86.8108 233.713 86.7641 233.553 86.6908 233.42C86.6241 233.28 86.5241 233.173 86.3908 233.1C86.2641 233.02 86.0908 232.98 85.8708 232.98C85.7108 232.98 85.5541 233.013 85.4008 233.08C85.2541 233.14 85.1241 233.233 85.0108 233.36C84.8974 233.487 84.8074 233.65 84.7408 233.85C84.6741 234.043 84.6408 234.273 84.6408 234.54V237H83.7408V232.26ZM92.9364 234.96C92.9364 235.167 92.9797 235.357 93.0664 235.53C93.1597 235.697 93.2797 235.84 93.4264 235.96C93.5731 236.08 93.7431 236.173 93.9364 236.24C94.1297 236.307 94.3297 236.34 94.5364 236.34C94.8164 236.34 95.0597 236.277 95.2664 236.15C95.4731 236.017 95.6631 235.843 95.8364 235.63L96.5164 236.15C96.0164 236.797 95.3164 237.12 94.4164 237.12C94.0431 237.12 93.7031 237.057 93.3964 236.93C93.0964 236.803 92.8397 236.63 92.6264 236.41C92.4197 236.183 92.2597 235.92 92.1464 235.62C92.0331 235.313 91.9764 234.983 91.9764 234.63C91.9764 234.277 92.0364 233.95 92.1564 233.65C92.2831 233.343 92.4531 233.08 92.6664 232.86C92.8864 232.633 93.1464 232.457 93.4464 232.33C93.7464 232.203 94.0731 232.14 94.4264 232.14C94.8464 232.14 95.1997 232.213 95.4864 232.36C95.7797 232.507 96.0197 232.7 96.2064 232.94C96.3931 233.173 96.5264 233.44 96.6064 233.74C96.6931 234.033 96.7364 234.333 96.7364 234.64V234.96H92.9364ZM95.7764 234.24C95.7697 234.04 95.7364 233.857 95.6764 233.69C95.6231 233.523 95.5397 233.38 95.4264 233.26C95.3131 233.133 95.1697 233.037 94.9964 232.97C94.8297 232.897 94.6331 232.86 94.4064 232.86C94.1864 232.86 93.9831 232.903 93.7964 232.99C93.6164 233.07 93.4631 233.177 93.3364 233.31C93.2097 233.443 93.1097 233.593 93.0364 233.76C92.9697 233.92 92.9364 234.08 92.9364 234.24H95.7764ZM97.813 232.26H98.713V232.99H98.733C98.793 232.863 98.873 232.75 98.973 232.65C99.073 232.543 99.183 232.453 99.303 232.38C99.4297 232.307 99.5664 232.25 99.713 232.21C99.8597 232.163 100.006 232.14 100.153 232.14C100.3 232.14 100.433 232.16 100.553 232.2L100.513 233.17C100.44 233.15 100.366 233.133 100.293 233.12C100.22 233.107 100.146 233.1 100.073 233.1C99.633 233.1 99.2964 233.223 99.063 233.47C98.8297 233.717 98.713 234.1 98.713 234.62V237H97.813V232.26ZM103.727 232.26H104.767L106.187 235.89L107.547 232.26H108.507L106.647 237H105.657L103.727 232.26ZM109.977 234.96C109.977 235.167 110.021 235.357 110.107 235.53C110.201 235.697 110.321 235.84 110.467 235.96C110.614 236.08 110.784 236.173 110.977 236.24C111.171 236.307 111.371 236.34 111.577 236.34C111.857 236.34 112.101 236.277 112.307 236.15C112.514 236.017 112.704 235.843 112.877 235.63L113.557 236.15C113.057 236.797 112.357 237.12 111.457 237.12C111.084 237.12 110.744 237.057 110.437 236.93C110.137 236.803 109.881 236.63 109.667 236.41C109.461 236.183 109.301 235.92 109.187 235.62C109.074 235.313 109.017 234.983 109.017 234.63C109.017 234.277 109.077 233.95 109.197 233.65C109.324 233.343 109.494 233.08 109.707 232.86C109.927 232.633 110.187 232.457 110.487 232.33C110.787 232.203 111.114 232.14 111.467 232.14C111.887 232.14 112.241 232.213 112.527 232.36C112.821 232.507 113.061 232.7 113.247 232.94C113.434 233.173 113.567 233.44 113.647 233.74C113.734 234.033 113.777 234.333 113.777 234.64V234.96H109.977ZM112.817 234.24C112.811 234.04 112.777 233.857 112.717 233.69C112.664 233.523 112.581 233.38 112.467 233.26C112.354 233.133 112.211 233.037 112.037 232.97C111.871 232.897 111.674 232.86 111.447 232.86C111.227 232.86 111.024 232.903 110.837 232.99C110.657 233.07 110.504 233.177 110.377 233.31C110.251 233.443 110.151 233.593 110.077 233.76C110.011 233.92 109.977 234.08 109.977 234.24H112.817ZM114.854 232.26H115.754V232.99H115.774C115.834 232.863 115.914 232.75 116.014 232.65C116.114 232.543 116.224 232.453 116.344 232.38C116.471 232.307 116.607 232.25 116.754 232.21C116.901 232.163 117.047 232.14 117.194 232.14C117.341 232.14 117.474 232.16 117.594 232.2L117.554 233.17C117.481 233.15 117.407 233.133 117.334 233.12C117.261 233.107 117.187 233.1 117.114 233.1C116.674 233.1 116.337 233.223 116.104 233.47C115.871 233.717 115.754 234.1 115.754 234.62V237H114.854V232.26ZM118.625 232.26H119.525V237H118.625V232.26ZM118.415 230.56C118.415 230.38 118.479 230.227 118.605 230.1C118.739 229.967 118.895 229.9 119.075 229.9C119.255 229.9 119.409 229.967 119.535 230.1C119.669 230.227 119.735 230.38 119.735 230.56C119.735 230.74 119.669 230.897 119.535 231.03C119.409 231.157 119.255 231.22 119.075 231.22C118.895 231.22 118.739 231.157 118.605 231.03C118.479 230.897 118.415 230.74 118.415 230.56ZM121.308 233.04H120.288V232.26H121.308V231.2C121.308 230.567 121.428 230.097 121.668 229.79C121.914 229.477 122.334 229.32 122.928 229.32C123.028 229.32 123.131 229.323 123.238 229.33C123.351 229.337 123.471 229.357 123.598 229.39L123.498 230.19C123.411 230.157 123.328 230.133 123.248 230.12C123.168 230.107 123.081 230.1 122.988 230.1C122.821 230.1 122.688 230.127 122.588 230.18C122.488 230.227 122.408 230.297 122.348 230.39C122.294 230.483 122.258 230.597 122.238 230.73C122.224 230.857 122.218 231.003 122.218 231.17V232.26H123.288V233.04H122.208V237H121.308V233.04ZM124.358 232.26H125.258V237H124.358V232.26ZM124.148 230.56C124.148 230.38 124.211 230.227 124.338 230.1C124.471 229.967 124.628 229.9 124.808 229.9C124.988 229.9 125.141 229.967 125.268 230.1C125.401 230.227 125.468 230.38 125.468 230.56C125.468 230.74 125.401 230.897 125.268 231.03C125.141 231.157 124.988 231.22 124.808 231.22C124.628 231.22 124.471 231.157 124.338 231.03C124.211 230.897 124.148 230.74 124.148 230.56ZM130.08 233.52C129.913 233.347 129.737 233.217 129.55 233.13C129.37 233.037 129.153 232.99 128.9 232.99C128.653 232.99 128.437 233.037 128.25 233.13C128.07 233.217 127.917 233.34 127.79 233.5C127.67 233.653 127.577 233.833 127.51 234.04C127.45 234.24 127.42 234.45 127.42 234.67C127.42 234.89 127.457 235.1 127.53 235.3C127.603 235.493 127.707 235.663 127.84 235.81C127.973 235.957 128.133 236.073 128.32 236.16C128.507 236.24 128.717 236.28 128.95 236.28C129.203 236.28 129.42 236.237 129.6 236.15C129.78 236.057 129.947 235.923 130.1 235.75L130.74 236.39C130.507 236.65 130.233 236.837 129.92 236.95C129.613 237.063 129.287 237.12 128.94 237.12C128.573 237.12 128.237 237.06 127.93 236.94C127.63 236.82 127.37 236.653 127.15 236.44C126.93 236.22 126.76 235.96 126.64 235.66C126.52 235.353 126.46 235.017 126.46 234.65C126.46 234.283 126.52 233.947 126.64 233.64C126.76 233.333 126.927 233.07 127.14 232.85C127.36 232.63 127.62 232.46 127.92 232.34C128.227 232.213 128.567 232.15 128.94 232.15C129.287 232.15 129.617 232.213 129.93 232.34C130.25 232.46 130.527 232.647 130.76 232.9L130.08 233.52ZM131.534 232.84C131.788 232.607 132.081 232.433 132.414 232.32C132.748 232.2 133.081 232.14 133.414 232.14C133.761 232.14 134.058 232.183 134.304 232.27C134.558 232.357 134.764 232.473 134.924 232.62C135.084 232.767 135.201 232.937 135.274 233.13C135.354 233.317 135.394 233.513 135.394 233.72V236.14C135.394 236.307 135.398 236.46 135.404 236.6C135.411 236.74 135.421 236.873 135.434 237H134.634C134.614 236.76 134.604 236.52 134.604 236.28H134.584C134.384 236.587 134.148 236.803 133.874 236.93C133.601 237.057 133.284 237.12 132.924 237.12C132.704 237.12 132.494 237.09 132.294 237.03C132.094 236.97 131.918 236.88 131.764 236.76C131.618 236.64 131.501 236.493 131.414 236.32C131.328 236.14 131.284 235.933 131.284 235.7C131.284 235.393 131.351 235.137 131.484 234.93C131.624 234.723 131.811 234.557 132.044 234.43C132.284 234.297 132.561 234.203 132.874 234.15C133.194 234.09 133.534 234.06 133.894 234.06H134.554V233.86C134.554 233.74 134.531 233.62 134.484 233.5C134.438 233.38 134.368 233.273 134.274 233.18C134.181 233.08 134.064 233.003 133.924 232.95C133.784 232.89 133.618 232.86 133.424 232.86C133.251 232.86 133.098 232.877 132.964 232.91C132.838 232.943 132.721 232.987 132.614 233.04C132.508 233.087 132.411 233.143 132.324 233.21C132.238 233.277 132.154 233.34 132.074 233.4L131.534 232.84ZM134.074 234.72C133.861 234.72 133.641 234.733 133.414 234.76C133.194 234.78 132.991 234.823 132.804 234.89C132.624 234.957 132.474 235.05 132.354 235.17C132.241 235.29 132.184 235.443 132.184 235.63C132.184 235.903 132.274 236.1 132.454 236.22C132.641 236.34 132.891 236.4 133.204 236.4C133.451 236.4 133.661 236.36 133.834 236.28C134.008 236.193 134.148 236.083 134.254 235.95C134.361 235.817 134.438 235.67 134.484 235.51C134.531 235.343 134.554 235.18 134.554 235.02V234.72H134.074ZM139.24 233.04H137.95V235.19C137.95 235.323 137.953 235.457 137.96 235.59C137.966 235.717 137.99 235.833 138.03 235.94C138.076 236.04 138.143 236.123 138.23 236.19C138.323 236.25 138.456 236.28 138.63 236.28C138.736 236.28 138.846 236.27 138.96 236.25C139.073 236.23 139.176 236.193 139.27 236.14V236.96C139.163 237.02 139.023 237.06 138.85 237.08C138.683 237.107 138.553 237.12 138.46 237.12C138.113 237.12 137.843 237.073 137.65 236.98C137.463 236.88 137.323 236.753 137.23 236.6C137.143 236.447 137.09 236.277 137.07 236.09C137.056 235.897 137.05 235.703 137.05 235.51V233.04H136.01V232.26H137.05V230.93H137.95V232.26H139.24V233.04ZM140.471 232.26H141.371V237H140.471V232.26ZM140.261 230.56C140.261 230.38 140.324 230.227 140.451 230.1C140.584 229.967 140.741 229.9 140.921 229.9C141.101 229.9 141.254 229.967 141.381 230.1C141.514 230.227 141.581 230.38 141.581 230.56C141.581 230.74 141.514 230.897 141.381 231.03C141.254 231.157 141.101 231.22 140.921 231.22C140.741 231.22 140.584 231.157 140.451 231.03C140.324 230.897 140.261 230.74 140.261 230.56ZM143.533 234.63C143.533 234.87 143.57 235.093 143.643 235.3C143.717 235.5 143.82 235.673 143.953 235.82C144.087 235.96 144.25 236.073 144.443 236.16C144.637 236.24 144.853 236.28 145.093 236.28C145.333 236.28 145.55 236.24 145.743 236.16C145.937 236.073 146.1 235.96 146.233 235.82C146.367 235.673 146.47 235.5 146.543 235.3C146.617 235.093 146.653 234.87 146.653 234.63C146.653 234.39 146.617 234.17 146.543 233.97C146.47 233.763 146.367 233.59 146.233 233.45C146.1 233.303 145.937 233.19 145.743 233.11C145.55 233.023 145.333 232.98 145.093 232.98C144.853 232.98 144.637 233.023 144.443 233.11C144.25 233.19 144.087 233.303 143.953 233.45C143.82 233.59 143.717 233.763 143.643 233.97C143.57 234.17 143.533 234.39 143.533 234.63ZM142.573 234.63C142.573 234.283 142.637 233.96 142.763 233.66C142.897 233.36 143.077 233.097 143.303 232.87C143.53 232.643 143.797 232.467 144.103 232.34C144.41 232.207 144.74 232.14 145.093 232.14C145.447 232.14 145.777 232.207 146.083 232.34C146.39 232.467 146.657 232.643 146.883 232.87C147.11 233.097 147.287 233.36 147.413 233.66C147.547 233.96 147.613 234.283 147.613 234.63C147.613 234.977 147.547 235.303 147.413 235.61C147.287 235.91 147.11 236.173 146.883 236.4C146.657 236.62 146.39 236.797 146.083 236.93C145.777 237.057 145.447 237.12 145.093 237.12C144.74 237.12 144.41 237.057 144.103 236.93C143.797 236.797 143.53 236.62 143.303 236.4C143.077 236.173 142.897 235.91 142.763 235.61C142.637 235.303 142.573 234.977 142.573 234.63ZM148.741 232.26H149.641V232.99H149.661C149.774 232.737 149.971 232.533 150.251 232.38C150.531 232.22 150.854 232.14 151.221 232.14C151.447 232.14 151.664 232.177 151.871 232.25C152.084 232.317 152.267 232.423 152.421 232.57C152.581 232.717 152.707 232.907 152.801 233.14C152.894 233.367 152.941 233.637 152.941 233.95V237H152.041V234.2C152.041 233.98 152.011 233.793 151.951 233.64C151.891 233.48 151.811 233.353 151.711 233.26C151.611 233.16 151.494 233.09 151.361 233.05C151.234 233.003 151.101 232.98 150.961 232.98C150.774 232.98 150.601 233.01 150.441 233.07C150.281 233.13 150.141 233.227 150.021 233.36C149.901 233.487 149.807 233.65 149.741 233.85C149.674 234.05 149.641 234.287 149.641 234.56V237H148.741V232.26Z" fill="#161919"/>
<path d="M11.5609 216.077C11.5609 215.817 11.5743 215.547 11.6009 215.267C11.6276 214.987 11.6743 214.714 11.7409 214.447C11.8143 214.174 11.9076 213.914 12.0209 213.667C12.1409 213.421 12.2909 213.207 12.4709 213.027C12.6576 212.841 12.8743 212.694 13.1209 212.587C13.3743 212.474 13.6676 212.417 14.0009 212.417C14.3343 212.417 14.6243 212.474 14.8709 212.587C15.1243 212.694 15.3409 212.841 15.5209 213.027C15.7076 213.207 15.8576 213.421 15.9709 213.667C16.0909 213.914 16.1843 214.174 16.2509 214.447C16.3243 214.714 16.3743 214.987 16.4009 215.267C16.4276 215.547 16.4409 215.817 16.4409 216.077C16.4409 216.451 16.4076 216.851 16.3409 217.277C16.2743 217.704 16.1509 218.101 15.9709 218.467C15.7909 218.834 15.5409 219.137 15.2209 219.377C14.9076 219.617 14.5009 219.737 14.0009 219.737C13.5009 219.737 13.0909 219.617 12.7709 219.377C12.4576 219.137 12.2109 218.834 12.0309 218.467C11.8509 218.101 11.7276 217.704 11.6609 217.277C11.5943 216.851 11.5609 216.451 11.5609 216.077ZM12.5209 216.077C12.5209 216.311 12.5343 216.587 12.5609 216.907C12.5943 217.227 12.6609 217.537 12.7609 217.837C12.8609 218.131 13.0076 218.381 13.2009 218.587C13.4009 218.794 13.6676 218.897 14.0009 218.897C14.3343 218.897 14.5976 218.794 14.7909 218.587C14.9909 218.381 15.1409 218.131 15.2409 217.837C15.3409 217.537 15.4043 217.227 15.4309 216.907C15.4643 216.587 15.4809 216.311 15.4809 216.077C15.4809 215.917 15.4743 215.737 15.4609 215.537C15.4543 215.331 15.4309 215.124 15.3909 214.917C15.3576 214.704 15.3076 214.501 15.2409 214.307C15.1743 214.107 15.0843 213.931 14.9709 213.777C14.8643 213.617 14.7309 213.491 14.5709 213.397C14.4109 213.304 14.2209 213.257 14.0009 213.257C13.7809 213.257 13.5909 213.304 13.4309 213.397C13.2709 213.491 13.1343 213.617 13.0209 213.777C12.9143 213.931 12.8276 214.107 12.7609 214.307C12.6943 214.501 12.6409 214.704 12.6009 214.917C12.5676 215.124 12.5443 215.331 12.5309 215.537C12.5243 215.737 12.5209 215.917 12.5209 216.077Z" fill="#161919"/>
<path d="M4.70924 164.501H1.83924L1.80924 166.271C1.8559 166.251 1.92257 166.231 2.00924 166.211C2.0959 166.191 2.18257 166.174 2.26924 166.161C2.36257 166.147 2.45257 166.137 2.53924 166.131C2.6259 166.124 2.69924 166.121 2.75924 166.121C3.09257 166.121 3.39257 166.177 3.65924 166.291C3.93257 166.404 4.1659 166.564 4.35924 166.771C4.55257 166.977 4.69924 167.224 4.79924 167.511C4.9059 167.797 4.95924 168.114 4.95924 168.461C4.95924 168.814 4.89257 169.134 4.75924 169.421C4.63257 169.707 4.4559 169.954 4.22924 170.161C4.00257 170.367 3.73924 170.527 3.43924 170.641C3.13924 170.747 2.8159 170.801 2.46924 170.801C1.98924 170.801 1.5559 170.677 1.16924 170.431C0.78257 170.184 0.505904 169.831 0.339237 169.371L1.30924 169.041C1.4359 169.367 1.6059 169.604 1.81924 169.751C2.03257 169.891 2.29924 169.961 2.61924 169.961C2.8059 169.961 2.98257 169.927 3.14924 169.861C3.32257 169.794 3.46924 169.701 3.58924 169.581C3.7159 169.454 3.8159 169.301 3.88924 169.121C3.96257 168.941 3.99924 168.737 3.99924 168.511C3.99924 167.991 3.83924 167.604 3.51924 167.351C3.2059 167.091 2.7959 166.961 2.28924 166.961C2.10924 166.961 1.87924 166.994 1.59924 167.061C1.3259 167.121 1.06924 167.211 0.829237 167.331L0.909237 163.601H4.70924V164.501ZM5.89588 167.141C5.89588 166.881 5.90921 166.611 5.93588 166.331C5.96254 166.051 6.00921 165.777 6.07588 165.511C6.14921 165.237 6.24254 164.977 6.35588 164.731C6.47588 164.484 6.62588 164.271 6.80588 164.091C6.99254 163.904 7.20921 163.757 7.45588 163.651C7.70921 163.537 8.00254 163.481 8.33588 163.481C8.66921 163.481 8.95921 163.537 9.20588 163.651C9.45921 163.757 9.67588 163.904 9.85588 164.091C10.0425 164.271 10.1925 164.484 10.3059 164.731C10.4259 164.977 10.5192 165.237 10.5859 165.511C10.6592 165.777 10.7092 166.051 10.7359 166.331C10.7625 166.611 10.7759 166.881 10.7759 167.141C10.7759 167.514 10.7425 167.914 10.6759 168.341C10.6092 168.767 10.4859 169.164 10.3059 169.531C10.1259 169.897 9.87588 170.201 9.55588 170.441C9.24254 170.681 8.83588 170.801 8.33588 170.801C7.83588 170.801 7.42588 170.681 7.10588 170.441C6.79254 170.201 6.54588 169.897 6.36588 169.531C6.18588 169.164 6.06254 168.767 5.99588 168.341C5.92921 167.914 5.89588 167.514 5.89588 167.141ZM6.85588 167.141C6.85588 167.374 6.86921 167.651 6.89588 167.971C6.92921 168.291 6.99588 168.601 7.09588 168.901C7.19588 169.194 7.34254 169.444 7.53588 169.651C7.73588 169.857 8.00254 169.961 8.33588 169.961C8.66921 169.961 8.93254 169.857 9.12588 169.651C9.32588 169.444 9.47588 169.194 9.57588 168.901C9.67588 168.601 9.73921 168.291 9.76588 167.971C9.79921 167.651 9.81588 167.374 9.81588 167.141C9.81588 166.981 9.80921 166.801 9.79588 166.601C9.78921 166.394 9.76588 166.187 9.72588 165.981C9.69254 165.767 9.64254 165.564 9.57588 165.371C9.50921 165.171 9.41921 164.994 9.30588 164.841C9.19921 164.681 9.06588 164.554 8.90588 164.461C8.74588 164.367 8.55588 164.321 8.33588 164.321C8.11588 164.321 7.92588 164.367 7.76588 164.461C7.60588 164.554 7.46921 164.681 7.35588 164.841C7.24921 164.994 7.16254 165.171 7.09588 165.371C7.02921 165.564 6.97588 165.767 6.93588 165.981C6.90254 166.187 6.87921 166.394 6.86588 166.601C6.85921 166.801 6.85588 166.981 6.85588 167.141ZM11.7925 163.121H12.6925V168.001L14.7325 165.951H15.9825L13.7725 168.101L16.1725 170.681H14.8925L12.6925 168.221V170.681H11.7925V163.121Z" fill="#161919"/>
<path d="M2.69924 114.638L1.39924 115.838L0.839237 115.168L2.80924 113.538H3.65924V120.618H2.69924V114.638ZM5.89588 117.078C5.89588 116.818 5.90921 116.548 5.93588 116.268C5.96254 115.988 6.00921 115.715 6.07588 115.448C6.14921 115.175 6.24254 114.915 6.35588 114.668C6.47588 114.421 6.62588 114.208 6.80588 114.028C6.99254 113.841 7.20921 113.695 7.45588 113.588C7.70921 113.475 8.00254 113.418 8.33588 113.418C8.66921 113.418 8.95921 113.475 9.20588 113.588C9.45921 113.695 9.67588 113.841 9.85588 114.028C10.0425 114.208 10.1925 114.421 10.3059 114.668C10.4259 114.915 10.5192 115.175 10.5859 115.448C10.6592 115.715 10.7092 115.988 10.7359 116.268C10.7625 116.548 10.7759 116.818 10.7759 117.078C10.7759 117.451 10.7425 117.851 10.6759 118.278C10.6092 118.705 10.4859 119.101 10.3059 119.468C10.1259 119.835 9.87588 120.138 9.55588 120.378C9.24254 120.618 8.83588 120.738 8.33588 120.738C7.83588 120.738 7.42588 120.618 7.10588 120.378C6.79254 120.138 6.54588 119.835 6.36588 119.468C6.18588 119.101 6.06254 118.705 5.99588 118.278C5.92921 117.851 5.89588 117.451 5.89588 117.078ZM6.85588 117.078C6.85588 117.311 6.86921 117.588 6.89588 117.908C6.92921 118.228 6.99588 118.538 7.09588 118.838C7.19588 119.131 7.34254 119.381 7.53588 119.588C7.73588 119.795 8.00254 119.898 8.33588 119.898C8.66921 119.898 8.93254 119.795 9.12588 119.588C9.32588 119.381 9.47588 119.131 9.57588 118.838C9.67588 118.538 9.73921 118.228 9.76588 117.908C9.79921 117.588 9.81588 117.311 9.81588 117.078C9.81588 116.918 9.80921 116.738 9.79588 116.538C9.78921 116.331 9.76588 116.125 9.72588 115.918C9.69254 115.705 9.64254 115.501 9.57588 115.308C9.50921 115.108 9.41921 114.931 9.30588 114.778C9.19921 114.618 9.06588 114.491 8.90588 114.398C8.74588 114.305 8.55588 114.258 8.33588 114.258C8.11588 114.258 7.92588 114.305 7.76588 114.398C7.60588 114.491 7.46921 114.618 7.35588 114.778C7.24921 114.931 7.16254 115.108 7.09588 115.308C7.02921 115.501 6.97588 115.705 6.93588 115.918C6.90254 116.125 6.87921 116.331 6.86588 116.538C6.85921 116.738 6.85588 116.918 6.85588 117.078ZM11.4525 117.078C11.4525 116.818 11.4659 116.548 11.4925 116.268C11.5192 115.988 11.5659 115.715 11.6325 115.448C11.7059 115.175 11.7992 114.915 11.9125 114.668C12.0325 114.421 12.1825 114.208 12.3625 114.028C12.5492 113.841 12.7659 113.695 13.0125 113.588C13.2659 113.475 13.5592 113.418 13.8925 113.418C14.2259 113.418 14.5159 113.475 14.7625 113.588C15.0159 113.695 15.2325 113.841 15.4125 114.028C15.5992 114.208 15.7492 114.421 15.8625 114.668C15.9825 114.915 16.0759 115.175 16.1425 115.448C16.2159 115.715 16.2659 115.988 16.2925 116.268C16.3192 116.548 16.3325 116.818 16.3325 117.078C16.3325 117.451 16.2992 117.851 16.2325 118.278C16.1659 118.705 16.0425 119.101 15.8625 119.468C15.6825 119.835 15.4325 120.138 15.1125 120.378C14.7992 120.618 14.3925 120.738 13.8925 120.738C13.3925 120.738 12.9825 120.618 12.6625 120.378C12.3492 120.138 12.1025 119.835 11.9225 119.468C11.7425 119.101 11.6192 118.705 11.5525 118.278C11.4859 117.851 11.4525 117.451 11.4525 117.078ZM12.4125 117.078C12.4125 117.311 12.4259 117.588 12.4525 117.908C12.4859 118.228 12.5525 118.538 12.6525 118.838C12.7525 119.131 12.8992 119.381 13.0925 119.588C13.2925 119.795 13.5592 119.898 13.8925 119.898C14.2259 119.898 14.4892 119.795 14.6825 119.588C14.8825 119.381 15.0325 119.131 15.1325 118.838C15.2325 118.538 15.2959 118.228 15.3225 117.908C15.3559 117.588 15.3725 117.311 15.3725 117.078C15.3725 116.918 15.3659 116.738 15.3525 116.538C15.3459 116.331 15.3225 116.125 15.2825 115.918C15.2492 115.705 15.1992 115.501 15.1325 115.308C15.0659 115.108 14.9759 114.931 14.8625 114.778C14.7559 114.618 14.6225 114.491 14.4625 114.398C14.3025 114.305 14.1125 114.258 13.8925 114.258C13.6725 114.258 13.4825 114.305 13.3225 114.398C13.1625 114.491 13.0259 114.618 12.9125 114.778C12.8059 114.931 12.7192 115.108 12.6525 115.308C12.5859 115.501 12.5325 115.705 12.4925 115.918C12.4592 116.125 12.4359 116.331 12.4225 116.538C12.4159 116.738 12.4125 116.918 12.4125 117.078ZM17.3492 113.058H18.2492V117.938L20.2892 115.888H21.5392L19.3292 118.038L21.7292 120.618H20.4492L18.2492 118.158V120.618H17.3492V113.058Z" fill="#161919"/>
<path d="M2.69924 62.9067L1.39924 64.1067L0.839237 63.4367L2.80924 61.8067H3.65924V68.8867H2.69924V62.9067ZM10.2659 62.7067H7.39588L7.36588 64.4767C7.41254 64.4567 7.47921 64.4367 7.56588 64.4167C7.65254 64.3967 7.73921 64.3801 7.82588 64.3667C7.91921 64.3534 8.00921 64.3434 8.09588 64.3367C8.18254 64.3301 8.25588 64.3267 8.31588 64.3267C8.64921 64.3267 8.94921 64.3834 9.21588 64.4967C9.48921 64.6101 9.72254 64.7701 9.91588 64.9767C10.1092 65.1834 10.2559 65.4301 10.3559 65.7167C10.4625 66.0034 10.5159 66.3201 10.5159 66.6667C10.5159 67.0201 10.4492 67.3401 10.3159 67.6267C10.1892 67.9134 10.0125 68.1601 9.78588 68.3667C9.55921 68.5734 9.29588 68.7334 8.99588 68.8467C8.69588 68.9534 8.37254 69.0067 8.02588 69.0067C7.54588 69.0067 7.11254 68.8834 6.72588 68.6367C6.33921 68.3901 6.06254 68.0367 5.89588 67.5767L6.86588 67.2467C6.99254 67.5734 7.16254 67.8101 7.37588 67.9567C7.58921 68.0967 7.85588 68.1667 8.17588 68.1667C8.36254 68.1667 8.53921 68.1334 8.70588 68.0667C8.87921 68.0001 9.02588 67.9067 9.14588 67.7867C9.27254 67.6601 9.37254 67.5067 9.44588 67.3267C9.51921 67.1467 9.55588 66.9434 9.55588 66.7167C9.55588 66.1967 9.39588 65.8101 9.07588 65.5567C8.76254 65.2967 8.35254 65.1667 7.84588 65.1667C7.66588 65.1667 7.43588 65.2001 7.15588 65.2667C6.88254 65.3267 6.62588 65.4167 6.38588 65.5367L6.46588 61.8067H10.2659V62.7067ZM11.4525 65.3467C11.4525 65.0867 11.4659 64.8167 11.4925 64.5367C11.5192 64.2567 11.5659 63.9834 11.6325 63.7167C11.7059 63.4434 11.7992 63.1834 11.9125 62.9367C12.0325 62.6901 12.1825 62.4767 12.3625 62.2967C12.5492 62.1101 12.7659 61.9634 13.0125 61.8567C13.2659 61.7434 13.5592 61.6867 13.8925 61.6867C14.2259 61.6867 14.5159 61.7434 14.7625 61.8567C15.0159 61.9634 15.2325 62.1101 15.4125 62.2967C15.5992 62.4767 15.7492 62.6901 15.8625 62.9367C15.9825 63.1834 16.0759 63.4434 16.1425 63.7167C16.2159 63.9834 16.2659 64.2567 16.2925 64.5367C16.3192 64.8167 16.3325 65.0867 16.3325 65.3467C16.3325 65.7201 16.2992 66.1201 16.2325 66.5467C16.1659 66.9734 16.0425 67.3701 15.8625 67.7367C15.6825 68.1034 15.4325 68.4067 15.1125 68.6467C14.7992 68.8867 14.3925 69.0067 13.8925 69.0067C13.3925 69.0067 12.9825 68.8867 12.6625 68.6467C12.3492 68.4067 12.1025 68.1034 11.9225 67.7367C11.7425 67.3701 11.6192 66.9734 11.5525 66.5467C11.4859 66.1201 11.4525 65.7201 11.4525 65.3467ZM12.4125 65.3467C12.4125 65.5801 12.4259 65.8567 12.4525 66.1767C12.4859 66.4967 12.5525 66.8067 12.6525 67.1067C12.7525 67.4001 12.8992 67.6501 13.0925 67.8567C13.2925 68.0634 13.5592 68.1667 13.8925 68.1667C14.2259 68.1667 14.4892 68.0634 14.6825 67.8567C14.8825 67.6501 15.0325 67.4001 15.1325 67.1067C15.2325 66.8067 15.2959 66.4967 15.3225 66.1767C15.3559 65.8567 15.3725 65.5801 15.3725 65.3467C15.3725 65.1867 15.3659 65.0067 15.3525 64.8067C15.3459 64.6001 15.3225 64.3934 15.2825 64.1867C15.2492 63.9734 15.1992 63.7701 15.1325 63.5767C15.0659 63.3767 14.9759 63.2001 14.8625 63.0467C14.7559 62.8867 14.6225 62.7601 14.4625 62.6667C14.3025 62.5734 14.1125 62.5267 13.8925 62.5267C13.6725 62.5267 13.4825 62.5734 13.3225 62.6667C13.1625 62.7601 13.0259 62.8867 12.9125 63.0467C12.8059 63.2001 12.7192 63.3767 12.6525 63.5767C12.5859 63.7701 12.5325 63.9734 12.4925 64.1867C12.4592 64.3934 12.4359 64.6001 12.4225 64.8067C12.4159 65.0067 12.4125 65.1867 12.4125 65.3467ZM17.3492 61.3267H18.2492V66.2067L20.2892 64.1567H21.5392L19.3292 66.3067L21.7292 68.8867H20.4492L18.2492 66.4267V68.8867H17.3492V61.3267Z" fill="#161919"/>
<path d="M0.459237 16.9702L3.29924 14.1502C3.39924 14.0569 3.4959 13.9569 3.58924 13.8502C3.68257 13.7369 3.7659 13.6202 3.83924 13.5002C3.91257 13.3802 3.96924 13.2536 4.00924 13.1202C4.0559 12.9869 4.07924 12.8469 4.07924 12.7002C4.07924 12.5269 4.0459 12.3702 3.97924 12.2302C3.91924 12.0902 3.83257 11.9736 3.71924 11.8802C3.61257 11.7802 3.48257 11.7036 3.32924 11.6502C3.18257 11.5969 3.0259 11.5702 2.85924 11.5702C2.51257 11.5702 2.2259 11.6669 1.99924 11.8602C1.77257 12.0536 1.62924 12.3202 1.56924 12.6602L0.529237 12.5702C0.575904 12.2569 0.665904 11.9869 0.799237 11.7602C0.939237 11.5269 1.10924 11.3336 1.30924 11.1802C1.5159 11.0269 1.74924 10.9136 2.00924 10.8402C2.2759 10.7669 2.56257 10.7302 2.86924 10.7302C3.1759 10.7302 3.46257 10.7736 3.72924 10.8602C4.00257 10.9402 4.23924 11.0636 4.43924 11.2302C4.6459 11.3902 4.8059 11.5936 4.91924 11.8402C5.03924 12.0802 5.09924 12.3636 5.09924 12.6902C5.09924 12.9236 5.06257 13.1436 4.98924 13.3502C4.92257 13.5502 4.83257 13.7402 4.71924 13.9202C4.6059 14.1002 4.4759 14.2702 4.32924 14.4302C4.18257 14.5902 4.02924 14.7469 3.86924 14.9002L1.53924 17.1502H5.09924V17.9902H0.459237V16.9702ZM5.89588 14.4502C5.89588 14.1902 5.90921 13.9202 5.93588 13.6402C5.96254 13.3602 6.00921 13.0869 6.07588 12.8202C6.14921 12.5469 6.24254 12.2869 6.35588 12.0402C6.47588 11.7936 6.62588 11.5802 6.80588 11.4002C6.99254 11.2136 7.20921 11.0669 7.45588 10.9602C7.70921 10.8469 8.00254 10.7902 8.33588 10.7902C8.66921 10.7902 8.95921 10.8469 9.20588 10.9602C9.45921 11.0669 9.67588 11.2136 9.85588 11.4002C10.0425 11.5802 10.1925 11.7936 10.3059 12.0402C10.4259 12.2869 10.5192 12.5469 10.5859 12.8202C10.6592 13.0869 10.7092 13.3602 10.7359 13.6402C10.7625 13.9202 10.7759 14.1902 10.7759 14.4502C10.7759 14.8236 10.7425 15.2236 10.6759 15.6502C10.6092 16.0769 10.4859 16.4736 10.3059 16.8402C10.1259 17.2069 9.87588 17.5102 9.55588 17.7502C9.24254 17.9902 8.83588 18.1102 8.33588 18.1102C7.83588 18.1102 7.42588 17.9902 7.10588 17.7502C6.79254 17.5102 6.54588 17.2069 6.36588 16.8402C6.18588 16.4736 6.06254 16.0769 5.99588 15.6502C5.92921 15.2236 5.89588 14.8236 5.89588 14.4502ZM6.85588 14.4502C6.85588 14.6836 6.86921 14.9602 6.89588 15.2802C6.92921 15.6002 6.99588 15.9102 7.09588 16.2102C7.19588 16.5036 7.34254 16.7536 7.53588 16.9602C7.73588 17.1669 8.00254 17.2702 8.33588 17.2702C8.66921 17.2702 8.93254 17.1669 9.12588 16.9602C9.32588 16.7536 9.47588 16.5036 9.57588 16.2102C9.67588 15.9102 9.73921 15.6002 9.76588 15.2802C9.79921 14.9602 9.81588 14.6836 9.81588 14.4502C9.81588 14.2902 9.80921 14.1102 9.79588 13.9102C9.78921 13.7036 9.76588 13.4969 9.72588 13.2902C9.69254 13.0769 9.64254 12.8736 9.57588 12.6802C9.50921 12.4802 9.41921 12.3036 9.30588 12.1502C9.19921 11.9902 9.06588 11.8636 8.90588 11.7702C8.74588 11.6769 8.55588 11.6302 8.33588 11.6302C8.11588 11.6302 7.92588 11.6769 7.76588 11.7702C7.60588 11.8636 7.46921 11.9902 7.35588 12.1502C7.24921 12.3036 7.16254 12.4802 7.09588 12.6802C7.02921 12.8736 6.97588 13.0769 6.93588 13.2902C6.90254 13.4969 6.87921 13.7036 6.86588 13.9102C6.85921 14.1102 6.85588 14.2902 6.85588 14.4502ZM11.4525 14.4502C11.4525 14.1902 11.4659 13.9202 11.4925 13.6402C11.5192 13.3602 11.5659 13.0869 11.6325 12.8202C11.7059 12.5469 11.7992 12.2869 11.9125 12.0402C12.0325 11.7936 12.1825 11.5802 12.3625 11.4002C12.5492 11.2136 12.7659 11.0669 13.0125 10.9602C13.2659 10.8469 13.5592 10.7902 13.8925 10.7902C14.2259 10.7902 14.5159 10.8469 14.7625 10.9602C15.0159 11.0669 15.2325 11.2136 15.4125 11.4002C15.5992 11.5802 15.7492 11.7936 15.8625 12.0402C15.9825 12.2869 16.0759 12.5469 16.1425 12.8202C16.2159 13.0869 16.2659 13.3602 16.2925 13.6402C16.3192 13.9202 16.3325 14.1902 16.3325 14.4502C16.3325 14.8236 16.2992 15.2236 16.2325 15.6502C16.1659 16.0769 16.0425 16.4736 15.8625 16.8402C15.6825 17.2069 15.4325 17.5102 15.1125 17.7502C14.7992 17.9902 14.3925 18.1102 13.8925 18.1102C13.3925 18.1102 12.9825 17.9902 12.6625 17.7502C12.3492 17.5102 12.1025 17.2069 11.9225 16.8402C11.7425 16.4736 11.6192 16.0769 11.5525 15.6502C11.4859 15.2236 11.4525 14.8236 11.4525 14.4502ZM12.4125 14.4502C12.4125 14.6836 12.4259 14.9602 12.4525 15.2802C12.4859 15.6002 12.5525 15.9102 12.6525 16.2102C12.7525 16.5036 12.8992 16.7536 13.0925 16.9602C13.2925 17.1669 13.5592 17.2702 13.8925 17.2702C14.2259 17.2702 14.4892 17.1669 14.6825 16.9602C14.8825 16.7536 15.0325 16.5036 15.1325 16.2102C15.2325 15.9102 15.2959 15.6002 15.3225 15.2802C15.3559 14.9602 15.3725 14.6836 15.3725 14.4502C15.3725 14.2902 15.3659 14.1102 15.3525 13.9102C15.3459 13.7036 15.3225 13.4969 15.2825 13.2902C15.2492 13.0769 15.1992 12.8736 15.1325 12.6802C15.0659 12.4802 14.9759 12.3036 14.8625 12.1502C14.7559 11.9902 14.6225 11.8636 14.4625 11.7702C14.3025 11.6769 14.1125 11.6302 13.8925 11.6302C13.6725 11.6302 13.4825 11.6769 13.3225 11.7702C13.1625 11.8636 13.0259 11.9902 12.9125 12.1502C12.8059 12.3036 12.7192 12.4802 12.6525 12.6802C12.5859 12.8736 12.5325 13.0769 12.4925 13.2902C12.4592 13.4969 12.4359 13.7036 12.4225 13.9102C12.4159 14.1102 12.4125 14.2902 12.4125 14.4502ZM17.3492 10.4302H18.2492V15.3102L20.2892 13.2602H21.5392L19.3292 15.4102L21.7292 17.9902H20.4492L18.2492 15.5302V17.9902H17.3492V10.4302Z" fill="#161919"/>
<rect x="98.0992" y="81.1" width="3.8" height="139.8" rx="0.9" fill="#0081C2" fill-opacity="0.2" stroke="#0081C2" stroke-width="0.2"/>
<rect x="107.1" y="186.1" width="3.8" height="34.8" rx="0.9" fill="#DB5461" fill-opacity="0.2" stroke="#DB5461" stroke-width="0.2"/>
<rect x="116.099" y="142.1" width="3.8" height="78.8" rx="0.9" fill="#4E5353" fill-opacity="0.2" stroke="#4E5353" stroke-width="0.2"/>
<rect x="89.0973" y="116.1" width="3.8" height="104.8" rx="0.9" fill="#21BA30" fill-opacity="0.2" stroke="#21BA30" stroke-width="0.2"/>
<path d="M245.039 229.92H247.529C247.982 229.92 248.356 229.983 248.649 230.11C248.942 230.23 249.172 230.387 249.339 230.58C249.512 230.767 249.632 230.98 249.699 231.22C249.766 231.453 249.799 231.68 249.799 231.9C249.799 232.12 249.766 232.35 249.699 232.59C249.632 232.823 249.512 233.037 249.339 233.23C249.172 233.417 248.942 233.573 248.649 233.7C248.356 233.82 247.982 233.88 247.529 233.88H245.999V237H245.039V229.92ZM245.999 233.04H247.259C247.446 233.04 247.629 233.027 247.809 233C247.996 232.967 248.159 232.91 248.299 232.83C248.446 232.75 248.562 232.637 248.649 232.49C248.736 232.337 248.779 232.14 248.779 231.9C248.779 231.66 248.736 231.467 248.649 231.32C248.562 231.167 248.446 231.05 248.299 230.97C248.159 230.89 247.996 230.837 247.809 230.81C247.629 230.777 247.446 230.76 247.259 230.76H245.999V233.04ZM252.445 229.92H253.315L256.345 237H255.225L254.515 235.25H251.145L250.445 237H249.325L252.445 229.92ZM254.165 234.41L252.845 231.16H252.825L251.485 234.41H254.165ZM257.828 230.82H255.548V229.92H261.068V230.82H258.788V237H257.828V230.82ZM262.09 229.92H266.66V230.82H263.05V232.93H266.41V233.83H263.05V236.1H266.84V237H262.09V229.92ZM268.203 229.92H269.163V232.98H269.243L272.373 229.92H273.713L270.293 233.19L273.943 237H272.543L269.243 233.46H269.163V237H268.203V229.92ZM282.401 231.45C282.201 231.19 281.947 230.99 281.641 230.85C281.334 230.71 281.017 230.64 280.691 230.64C280.291 230.64 279.927 230.717 279.601 230.87C279.281 231.017 279.004 231.22 278.771 231.48C278.544 231.74 278.367 232.047 278.241 232.4C278.114 232.747 278.051 233.12 278.051 233.52C278.051 233.893 278.111 234.247 278.231 234.58C278.351 234.913 278.524 235.207 278.751 235.46C278.977 235.713 279.254 235.913 279.581 236.06C279.907 236.207 280.277 236.28 280.691 236.28C281.097 236.28 281.454 236.197 281.761 236.03C282.067 235.863 282.327 235.63 282.541 235.33L283.351 235.94C283.297 236.013 283.204 236.12 283.071 236.26C282.937 236.393 282.761 236.53 282.541 236.67C282.321 236.803 282.054 236.92 281.741 237.02C281.434 237.127 281.077 237.18 280.671 237.18C280.111 237.18 279.604 237.073 279.151 236.86C278.704 236.647 278.321 236.367 278.001 236.02C277.687 235.673 277.447 235.283 277.281 234.85C277.114 234.41 277.031 233.967 277.031 233.52C277.031 232.973 277.121 232.47 277.301 232.01C277.481 231.543 277.731 231.143 278.051 230.81C278.377 230.47 278.767 230.207 279.221 230.02C279.674 229.833 280.174 229.74 280.721 229.74C281.187 229.74 281.644 229.83 282.091 230.01C282.544 230.19 282.914 230.467 283.201 230.84L282.401 231.45ZM285.012 234.63C285.012 234.87 285.048 235.093 285.122 235.3C285.195 235.5 285.298 235.673 285.432 235.82C285.565 235.96 285.728 236.073 285.922 236.16C286.115 236.24 286.332 236.28 286.572 236.28C286.812 236.28 287.028 236.24 287.222 236.16C287.415 236.073 287.578 235.96 287.712 235.82C287.845 235.673 287.948 235.5 288.022 235.3C288.095 235.093 288.132 234.87 288.132 234.63C288.132 234.39 288.095 234.17 288.022 233.97C287.948 233.763 287.845 233.59 287.712 233.45C287.578 233.303 287.415 233.19 287.222 233.11C287.028 233.023 286.812 232.98 286.572 232.98C286.332 232.98 286.115 233.023 285.922 233.11C285.728 233.19 285.565 233.303 285.432 233.45C285.298 233.59 285.195 233.763 285.122 233.97C285.048 234.17 285.012 234.39 285.012 234.63ZM284.052 234.63C284.052 234.283 284.115 233.96 284.242 233.66C284.375 233.36 284.555 233.097 284.782 232.87C285.008 232.643 285.275 232.467 285.582 232.34C285.888 232.207 286.218 232.14 286.572 232.14C286.925 232.14 287.255 232.207 287.562 232.34C287.868 232.467 288.135 232.643 288.362 232.87C288.588 233.097 288.765 233.36 288.892 233.66C289.025 233.96 289.092 234.283 289.092 234.63C289.092 234.977 289.025 235.303 288.892 235.61C288.765 235.91 288.588 236.173 288.362 236.4C288.135 236.62 287.868 236.797 287.562 236.93C287.255 237.057 286.925 237.12 286.572 237.12C286.218 237.12 285.888 237.057 285.582 236.93C285.275 236.797 285.008 236.62 284.782 236.4C284.555 236.173 284.375 235.91 284.242 235.61C284.115 235.303 284.052 234.977 284.052 234.63ZM290.219 232.26H291.119V232.99H291.139C291.253 232.737 291.449 232.533 291.729 232.38C292.009 232.22 292.333 232.14 292.699 232.14C292.926 232.14 293.143 232.177 293.349 232.25C293.563 232.317 293.746 232.423 293.899 232.57C294.059 232.717 294.186 232.907 294.279 233.14C294.373 233.367 294.419 233.637 294.419 233.95V237H293.519V234.2C293.519 233.98 293.489 233.793 293.429 233.64C293.369 233.48 293.289 233.353 293.189 233.26C293.089 233.16 292.973 233.09 292.839 233.05C292.713 233.003 292.579 232.98 292.439 232.98C292.253 232.98 292.079 233.01 291.919 233.07C291.759 233.13 291.619 233.227 291.499 233.36C291.379 233.487 291.286 233.65 291.219 233.85C291.153 234.05 291.119 234.287 291.119 234.56V237H290.219V232.26ZM298.296 233.45C298.189 233.317 298.056 233.207 297.896 233.12C297.743 233.027 297.553 232.98 297.326 232.98C297.113 232.98 296.926 233.027 296.766 233.12C296.613 233.207 296.536 233.337 296.536 233.51C296.536 233.65 296.579 233.763 296.666 233.85C296.759 233.937 296.866 234.007 296.986 234.06C297.113 234.113 297.246 234.153 297.386 234.18C297.526 234.207 297.646 234.23 297.746 234.25C297.939 234.297 298.119 234.353 298.286 234.42C298.459 234.487 298.606 234.573 298.726 234.68C298.853 234.787 298.949 234.917 299.016 235.07C299.089 235.223 299.126 235.41 299.126 235.63C299.126 235.897 299.069 236.127 298.956 236.32C298.843 236.507 298.696 236.66 298.516 236.78C298.336 236.9 298.129 236.987 297.896 237.04C297.669 237.093 297.439 237.12 297.206 237.12C296.813 237.12 296.466 237.06 296.166 236.94C295.873 236.82 295.609 236.6 295.376 236.28L296.056 235.72C296.203 235.867 296.366 235.997 296.546 236.11C296.726 236.223 296.946 236.28 297.206 236.28C297.319 236.28 297.433 236.27 297.546 236.25C297.666 236.223 297.769 236.187 297.856 236.14C297.949 236.087 298.023 236.023 298.076 235.95C298.136 235.87 298.166 235.78 298.166 235.68C298.166 235.547 298.123 235.437 298.036 235.35C297.956 235.263 297.856 235.197 297.736 235.15C297.623 235.097 297.499 235.057 297.366 235.03C297.239 234.997 297.126 234.97 297.026 234.95C296.833 234.903 296.649 234.85 296.476 234.79C296.303 234.73 296.149 234.65 296.016 234.55C295.883 234.45 295.776 234.323 295.696 234.17C295.616 234.017 295.576 233.827 295.576 233.6C295.576 233.353 295.626 233.14 295.726 232.96C295.833 232.773 295.969 232.62 296.136 232.5C296.309 232.38 296.503 232.29 296.716 232.23C296.936 232.17 297.156 232.14 297.376 232.14C297.696 232.14 298.003 232.2 298.296 232.32C298.589 232.44 298.823 232.64 298.996 232.92L298.296 233.45ZM304.419 237H303.519V236.27H303.499C303.386 236.523 303.189 236.73 302.909 236.89C302.629 237.043 302.306 237.12 301.939 237.12C301.706 237.12 301.486 237.083 301.279 237.01C301.073 236.943 300.889 236.837 300.729 236.69C300.576 236.543 300.453 236.357 300.359 236.13C300.266 235.897 300.219 235.623 300.219 235.31V232.26H301.119V235.06C301.119 235.28 301.149 235.47 301.209 235.63C301.269 235.783 301.349 235.91 301.449 236.01C301.549 236.103 301.663 236.173 301.789 236.22C301.923 236.26 302.059 236.28 302.199 236.28C302.386 236.28 302.559 236.25 302.719 236.19C302.879 236.13 303.019 236.037 303.139 235.91C303.259 235.777 303.353 235.61 303.419 235.41C303.486 235.21 303.519 234.973 303.519 234.7V232.26H304.419V237ZM305.776 232.26H306.616V233H306.636C306.656 232.933 306.706 232.85 306.786 232.75C306.873 232.65 306.979 232.557 307.106 232.47C307.239 232.377 307.393 232.3 307.566 232.24C307.746 232.173 307.943 232.14 308.156 232.14C308.509 232.14 308.806 232.213 309.046 232.36C309.286 232.507 309.483 232.727 309.636 233.02C309.789 232.727 310.006 232.507 310.286 232.36C310.566 232.213 310.849 232.14 311.136 232.14C311.503 232.14 311.803 232.2 312.036 232.32C312.269 232.44 312.453 232.6 312.586 232.8C312.719 232.993 312.809 233.217 312.856 233.47C312.909 233.717 312.936 233.973 312.936 234.24V237H312.036V234.36C312.036 234.18 312.023 234.007 311.996 233.84C311.976 233.673 311.929 233.527 311.856 233.4C311.783 233.273 311.679 233.173 311.546 233.1C311.413 233.02 311.236 232.98 311.016 232.98C310.583 232.98 310.273 233.113 310.086 233.38C309.899 233.647 309.806 233.99 309.806 234.41V237H308.906V234.52C308.906 234.293 308.893 234.087 308.866 233.9C308.846 233.713 308.799 233.553 308.726 233.42C308.659 233.28 308.559 233.173 308.426 233.1C308.299 233.02 308.126 232.98 307.906 232.98C307.746 232.98 307.589 233.013 307.436 233.08C307.289 233.14 307.159 233.233 307.046 233.36C306.933 233.487 306.843 233.65 306.776 233.85C306.709 234.043 306.676 234.273 306.676 234.54V237H305.776V232.26ZM314.972 234.96C314.972 235.167 315.015 235.357 315.102 235.53C315.195 235.697 315.315 235.84 315.462 235.96C315.608 236.08 315.778 236.173 315.972 236.24C316.165 236.307 316.365 236.34 316.572 236.34C316.852 236.34 317.095 236.277 317.302 236.15C317.508 236.017 317.698 235.843 317.872 235.63L318.552 236.15C318.052 236.797 317.352 237.12 316.452 237.12C316.078 237.12 315.738 237.057 315.432 236.93C315.132 236.803 314.875 236.63 314.662 236.41C314.455 236.183 314.295 235.92 314.182 235.62C314.068 235.313 314.012 234.983 314.012 234.63C314.012 234.277 314.072 233.95 314.192 233.65C314.318 233.343 314.488 233.08 314.702 232.86C314.922 232.633 315.182 232.457 315.482 232.33C315.782 232.203 316.108 232.14 316.462 232.14C316.882 232.14 317.235 232.213 317.522 232.36C317.815 232.507 318.055 232.7 318.242 232.94C318.428 233.173 318.562 233.44 318.642 233.74C318.728 234.033 318.772 234.333 318.772 234.64V234.96H314.972ZM317.812 234.24C317.805 234.04 317.772 233.857 317.712 233.69C317.658 233.523 317.575 233.38 317.462 233.26C317.348 233.133 317.205 233.037 317.032 232.97C316.865 232.897 316.668 232.86 316.442 232.86C316.222 232.86 316.018 232.903 315.832 232.99C315.652 233.07 315.498 233.177 315.372 233.31C315.245 233.443 315.145 233.593 315.072 233.76C315.005 233.92 314.972 234.08 314.972 234.24H317.812ZM319.848 232.26H320.748V232.99H320.768C320.828 232.863 320.908 232.75 321.008 232.65C321.108 232.543 321.218 232.453 321.338 232.38C321.465 232.307 321.602 232.25 321.748 232.21C321.895 232.163 322.042 232.14 322.188 232.14C322.335 232.14 322.468 232.16 322.588 232.2L322.548 233.17C322.475 233.15 322.402 233.133 322.328 233.12C322.255 233.107 322.182 233.1 322.108 233.1C321.668 233.1 321.332 233.223 321.098 233.47C320.865 233.717 320.748 234.1 320.748 234.62V237H319.848V232.26Z" fill="#161919"/>
<rect x="277.1" y="126.1" width="3.8" height="94.8" rx="0.9" fill="#0081C2" fill-opacity="0.2" stroke="#0081C2" stroke-width="0.2"/>
<rect x="286.099" y="166.1" width="3.8" height="54.8" rx="0.9" fill="#DB5461" fill-opacity="0.2" stroke="#DB5461" stroke-width="0.2"/>
<rect x="295.1" y="97.1" width="3.8" height="123.8" rx="0.9" fill="#4E5353" fill-opacity="0.2" stroke="#4E5353" stroke-width="0.2"/>
<rect x="268.099" y="186.1" width="3.8" height="34.8" rx="0.9" fill="#21BA30" fill-opacity="0.2" stroke="#21BA30" stroke-width="0.2"/>
<path d="M432.008 229.92H434.498C434.951 229.92 435.325 229.983 435.618 230.11C435.911 230.23 436.141 230.387 436.308 230.58C436.481 230.767 436.601 230.98 436.668 231.22C436.735 231.453 436.768 231.68 436.768 231.9C436.768 232.12 436.735 232.35 436.668 232.59C436.601 232.823 436.481 233.037 436.308 233.23C436.141 233.417 435.911 233.573 435.618 233.7C435.325 233.82 434.951 233.88 434.498 233.88H432.968V237H432.008V229.92ZM432.968 233.04H434.228C434.415 233.04 434.598 233.027 434.778 233C434.965 232.967 435.128 232.91 435.268 232.83C435.415 232.75 435.531 232.637 435.618 232.49C435.705 232.337 435.748 232.14 435.748 231.9C435.748 231.66 435.705 231.467 435.618 231.32C435.531 231.167 435.415 231.05 435.268 230.97C435.128 230.89 434.965 230.837 434.778 230.81C434.598 230.777 434.415 230.76 434.228 230.76H432.968V233.04ZM439.413 229.92H440.283L443.313 237H442.193L441.483 235.25H438.113L437.413 237H436.293L439.413 229.92ZM441.133 234.41L439.813 231.16H439.793L438.453 234.41H441.133ZM444.796 230.82H442.516V229.92H448.036V230.82H445.756V237H444.796V230.82ZM449.059 229.92H453.629V230.82H450.019V232.93H453.379V233.83H450.019V236.1H453.809V237H449.059V229.92ZM455.172 229.92H456.132V232.98H456.212L459.342 229.92H460.682L457.262 233.19L460.912 237H459.512L456.212 233.46H456.132V237H455.172V229.92ZM464.65 235.52C464.823 235.78 465.043 235.973 465.31 236.1C465.583 236.22 465.863 236.28 466.15 236.28C466.31 236.28 466.473 236.257 466.64 236.21C466.806 236.157 466.956 236.08 467.09 235.98C467.23 235.88 467.343 235.757 467.43 235.61C467.516 235.463 467.56 235.293 467.56 235.1C467.56 234.827 467.473 234.62 467.3 234.48C467.126 234.333 466.91 234.213 466.65 234.12C466.396 234.02 466.116 233.927 465.81 233.84C465.51 233.747 465.23 233.62 464.97 233.46C464.716 233.3 464.503 233.087 464.33 232.82C464.156 232.547 464.07 232.18 464.07 231.72C464.07 231.513 464.113 231.293 464.2 231.06C464.293 230.827 464.436 230.613 464.63 230.42C464.823 230.227 465.07 230.067 465.37 229.94C465.676 229.807 466.043 229.74 466.47 229.74C466.856 229.74 467.226 229.793 467.58 229.9C467.933 230.007 468.243 230.223 468.51 230.55L467.73 231.26C467.61 231.073 467.44 230.923 467.22 230.81C467 230.697 466.75 230.64 466.47 230.64C466.203 230.64 465.98 230.677 465.8 230.75C465.626 230.817 465.486 230.907 465.38 231.02C465.273 231.127 465.196 231.243 465.15 231.37C465.11 231.497 465.09 231.613 465.09 231.72C465.09 232.02 465.176 232.25 465.35 232.41C465.523 232.57 465.736 232.7 465.99 232.8C466.25 232.9 466.53 232.99 466.83 233.07C467.136 233.15 467.416 233.263 467.67 233.41C467.93 233.55 468.146 233.743 468.32 233.99C468.493 234.23 468.58 234.563 468.58 234.99C468.58 235.33 468.513 235.637 468.38 235.91C468.253 236.183 468.08 236.413 467.86 236.6C467.64 236.787 467.38 236.93 467.08 237.03C466.78 237.13 466.46 237.18 466.12 237.18C465.666 237.18 465.236 237.1 464.83 236.94C464.423 236.78 464.1 236.533 463.86 236.2L464.65 235.52ZM473.966 237H473.066V236.27H473.046C472.933 236.523 472.736 236.73 472.456 236.89C472.176 237.043 471.853 237.12 471.486 237.12C471.253 237.12 471.033 237.083 470.826 237.01C470.62 236.943 470.436 236.837 470.276 236.69C470.123 236.543 470 236.357 469.906 236.13C469.813 235.897 469.766 235.623 469.766 235.31V232.26H470.666V235.06C470.666 235.28 470.696 235.47 470.756 235.63C470.816 235.783 470.896 235.91 470.996 236.01C471.096 236.103 471.21 236.173 471.336 236.22C471.47 236.26 471.606 236.28 471.746 236.28C471.933 236.28 472.106 236.25 472.266 236.19C472.426 236.13 472.566 236.037 472.686 235.91C472.806 235.777 472.9 235.61 472.966 235.41C473.033 235.21 473.066 234.973 473.066 234.7V232.26H473.966V237ZM475.323 232.26H476.223V232.99H476.243C476.303 232.863 476.383 232.75 476.483 232.65C476.583 232.543 476.693 232.453 476.813 232.38C476.939 232.307 477.076 232.25 477.223 232.21C477.369 232.163 477.516 232.14 477.663 232.14C477.809 232.14 477.943 232.16 478.063 232.2L478.023 233.17C477.949 233.15 477.876 233.133 477.803 233.12C477.729 233.107 477.656 233.1 477.583 233.1C477.143 233.1 476.806 233.223 476.573 233.47C476.339 233.717 476.223 234.1 476.223 234.62V237H475.323V232.26ZM478.454 232.26H479.494L480.914 235.89L482.274 232.26H483.234L481.374 237H480.384L478.454 232.26ZM484.704 234.96C484.704 235.167 484.747 235.357 484.834 235.53C484.927 235.697 485.047 235.84 485.194 235.96C485.341 236.08 485.511 236.173 485.704 236.24C485.897 236.307 486.097 236.34 486.304 236.34C486.584 236.34 486.827 236.277 487.034 236.15C487.241 236.017 487.431 235.843 487.604 235.63L488.284 236.15C487.784 236.797 487.084 237.12 486.184 237.12C485.811 237.12 485.471 237.057 485.164 236.93C484.864 236.803 484.607 236.63 484.394 236.41C484.187 236.183 484.027 235.92 483.914 235.62C483.801 235.313 483.744 234.983 483.744 234.63C483.744 234.277 483.804 233.95 483.924 233.65C484.051 233.343 484.221 233.08 484.434 232.86C484.654 232.633 484.914 232.457 485.214 232.33C485.514 232.203 485.841 232.14 486.194 232.14C486.614 232.14 486.967 232.213 487.254 232.36C487.547 232.507 487.787 232.7 487.974 232.94C488.161 233.173 488.294 233.44 488.374 233.74C488.461 234.033 488.504 234.333 488.504 234.64V234.96H484.704ZM487.544 234.24C487.537 234.04 487.504 233.857 487.444 233.69C487.391 233.523 487.307 233.38 487.194 233.26C487.081 233.133 486.937 233.037 486.764 232.97C486.597 232.897 486.401 232.86 486.174 232.86C485.954 232.86 485.751 232.903 485.564 232.99C485.384 233.07 485.231 233.177 485.104 233.31C484.977 233.443 484.877 233.593 484.804 233.76C484.737 233.92 484.704 234.08 484.704 234.24H487.544ZM489.011 232.26H490.051L491.461 235.96H491.481L492.821 232.26H493.791L491.541 238.02C491.461 238.227 491.377 238.413 491.291 238.58C491.204 238.753 491.101 238.9 490.981 239.02C490.861 239.14 490.714 239.233 490.541 239.3C490.374 239.367 490.167 239.4 489.921 239.4C489.787 239.4 489.651 239.39 489.511 239.37C489.377 239.357 489.247 239.323 489.121 239.27L489.231 238.45C489.411 238.523 489.591 238.56 489.771 238.56C489.911 238.56 490.027 238.54 490.121 238.5C490.221 238.467 490.304 238.413 490.371 238.34C490.444 238.273 490.504 238.193 490.551 238.1C490.597 238.007 490.644 237.9 490.691 237.78L490.981 237.03L489.011 232.26Z" fill="#161919"/>
<path d="M618.203 229.92H619.163V232.86H622.833V229.92H623.793V237H622.833V233.76H619.163V237H618.203V229.92ZM626.115 234.63C626.115 234.87 626.152 235.093 626.225 235.3C626.299 235.5 626.402 235.673 626.535 235.82C626.669 235.96 626.832 236.073 627.025 236.16C627.219 236.24 627.435 236.28 627.675 236.28C627.915 236.28 628.132 236.24 628.325 236.16C628.519 236.073 628.682 235.96 628.815 235.82C628.949 235.673 629.052 235.5 629.125 235.3C629.199 235.093 629.235 234.87 629.235 234.63C629.235 234.39 629.199 234.17 629.125 233.97C629.052 233.763 628.949 233.59 628.815 233.45C628.682 233.303 628.519 233.19 628.325 233.11C628.132 233.023 627.915 232.98 627.675 232.98C627.435 232.98 627.219 233.023 627.025 233.11C626.832 233.19 626.669 233.303 626.535 233.45C626.402 233.59 626.299 233.763 626.225 233.97C626.152 234.17 626.115 234.39 626.115 234.63ZM625.155 234.63C625.155 234.283 625.219 233.96 625.345 233.66C625.479 233.36 625.659 233.097 625.885 232.87C626.112 232.643 626.379 232.467 626.685 232.34C626.992 232.207 627.322 232.14 627.675 232.14C628.029 232.14 628.359 232.207 628.665 232.34C628.972 232.467 629.239 232.643 629.465 232.87C629.692 233.097 629.869 233.36 629.995 233.66C630.129 233.96 630.195 234.283 630.195 234.63C630.195 234.977 630.129 235.303 629.995 235.61C629.869 235.91 629.692 236.173 629.465 236.4C629.239 236.62 628.972 236.797 628.665 236.93C628.359 237.057 628.029 237.12 627.675 237.12C627.322 237.12 626.992 237.057 626.685 236.93C626.379 236.797 626.112 236.62 625.885 236.4C625.659 236.173 625.479 235.91 625.345 235.61C625.219 235.303 625.155 234.977 625.155 234.63ZM631.323 232.26H632.223V232.99H632.243C632.356 232.737 632.553 232.533 632.833 232.38C633.113 232.22 633.436 232.14 633.803 232.14C634.029 232.14 634.246 232.177 634.453 232.25C634.666 232.317 634.849 232.423 635.003 232.57C635.163 232.717 635.289 232.907 635.383 233.14C635.476 233.367 635.523 233.637 635.523 233.95V237H634.623V234.2C634.623 233.98 634.593 233.793 634.533 233.64C634.473 233.48 634.393 233.353 634.293 233.26C634.193 233.16 634.076 233.09 633.943 233.05C633.816 233.003 633.683 232.98 633.543 232.98C633.356 232.98 633.183 233.01 633.023 233.07C632.863 233.13 632.723 233.227 632.603 233.36C632.483 233.487 632.389 233.65 632.323 233.85C632.256 234.05 632.223 234.287 632.223 234.56V237H631.323V232.26ZM637.559 234.96C637.559 235.167 637.603 235.357 637.689 235.53C637.783 235.697 637.903 235.84 638.049 235.96C638.196 236.08 638.366 236.173 638.559 236.24C638.753 236.307 638.953 236.34 639.159 236.34C639.439 236.34 639.683 236.277 639.889 236.15C640.096 236.017 640.286 235.843 640.459 235.63L641.139 236.15C640.639 236.797 639.939 237.12 639.039 237.12C638.666 237.12 638.326 237.057 638.019 236.93C637.719 236.803 637.463 236.63 637.249 236.41C637.043 236.183 636.883 235.92 636.769 235.62C636.656 235.313 636.599 234.983 636.599 234.63C636.599 234.277 636.659 233.95 636.779 233.65C636.906 233.343 637.076 233.08 637.289 232.86C637.509 232.633 637.769 232.457 638.069 232.33C638.369 232.203 638.696 232.14 639.049 232.14C639.469 232.14 639.823 232.213 640.109 232.36C640.403 232.507 640.643 232.7 640.829 232.94C641.016 233.173 641.149 233.44 641.229 233.74C641.316 234.033 641.359 234.333 641.359 234.64V234.96H637.559ZM640.399 234.24C640.393 234.04 640.359 233.857 640.299 233.69C640.246 233.523 640.163 233.38 640.049 233.26C639.936 233.133 639.793 233.037 639.619 232.97C639.453 232.897 639.256 232.86 639.029 232.86C638.809 232.86 638.606 232.903 638.419 232.99C638.239 233.07 638.086 233.177 637.959 233.31C637.833 233.443 637.733 233.593 637.659 233.76C637.593 233.92 637.559 234.08 637.559 234.24H640.399ZM641.866 232.26H642.906L644.316 235.96H644.336L645.676 232.26H646.646L644.396 238.02C644.316 238.227 644.233 238.413 644.146 238.58C644.059 238.753 643.956 238.9 643.836 239.02C643.716 239.14 643.569 239.233 643.396 239.3C643.229 239.367 643.023 239.4 642.776 239.4C642.643 239.4 642.506 239.39 642.366 239.37C642.233 239.357 642.103 239.323 641.976 239.27L642.086 238.45C642.266 238.523 642.446 238.56 642.626 238.56C642.766 238.56 642.883 238.54 642.976 238.5C643.076 238.467 643.159 238.413 643.226 238.34C643.299 238.273 643.359 238.193 643.406 238.1C643.453 238.007 643.499 237.9 643.546 237.78L643.836 237.03L641.866 232.26ZM646.866 232.26H647.876L648.946 235.8H648.966L650.096 232.26H651.046L652.246 235.8H652.266L653.286 232.26H654.236L652.706 237H651.796L650.546 233.46H650.526L649.396 237H648.426L646.866 232.26ZM655.704 234.96C655.704 235.167 655.747 235.357 655.834 235.53C655.927 235.697 656.047 235.84 656.194 235.96C656.341 236.08 656.511 236.173 656.704 236.24C656.897 236.307 657.097 236.34 657.304 236.34C657.584 236.34 657.827 236.277 658.034 236.15C658.241 236.017 658.431 235.843 658.604 235.63L659.284 236.15C658.784 236.797 658.084 237.12 657.184 237.12C656.811 237.12 656.471 237.057 656.164 236.93C655.864 236.803 655.607 236.63 655.394 236.41C655.187 236.183 655.027 235.92 654.914 235.62C654.801 235.313 654.744 234.983 654.744 234.63C654.744 234.277 654.804 233.95 654.924 233.65C655.051 233.343 655.221 233.08 655.434 232.86C655.654 232.633 655.914 232.457 656.214 232.33C656.514 232.203 656.841 232.14 657.194 232.14C657.614 232.14 657.967 232.213 658.254 232.36C658.547 232.507 658.787 232.7 658.974 232.94C659.161 233.173 659.294 233.44 659.374 233.74C659.461 234.033 659.504 234.333 659.504 234.64V234.96H655.704ZM658.544 234.24C658.537 234.04 658.504 233.857 658.444 233.69C658.391 233.523 658.307 233.38 658.194 233.26C658.081 233.133 657.937 233.037 657.764 232.97C657.597 232.897 657.401 232.86 657.174 232.86C656.954 232.86 656.751 232.903 656.564 232.99C656.384 233.07 656.231 233.177 656.104 233.31C655.977 233.443 655.877 233.593 655.804 233.76C655.737 233.92 655.704 234.08 655.704 234.24H658.544ZM660.651 229.44H661.551V237H660.651V229.44ZM663.053 229.44H663.953V237H663.053V229.44Z" fill="#161919"/>
<path d="M802.147 229.92H804.607C804.913 229.92 805.197 229.957 805.457 230.03C805.723 230.103 805.95 230.213 806.137 230.36C806.33 230.5 806.48 230.683 806.587 230.91C806.7 231.13 806.757 231.39 806.757 231.69C806.757 232.097 806.643 232.43 806.417 232.69C806.19 232.943 805.897 233.13 805.537 233.25V233.27C805.75 233.283 805.95 233.34 806.137 233.44C806.323 233.533 806.483 233.66 806.617 233.82C806.757 233.973 806.867 234.153 806.947 234.36C807.027 234.567 807.067 234.79 807.067 235.03C807.067 235.35 807 235.633 806.867 235.88C806.74 236.12 806.563 236.323 806.337 236.49C806.11 236.657 805.847 236.783 805.547 236.87C805.247 236.957 804.923 237 804.577 237H802.147V229.92ZM803.107 232.86H804.417C804.597 232.86 804.767 232.843 804.927 232.81C805.087 232.77 805.227 232.707 805.347 232.62C805.467 232.533 805.56 232.423 805.627 232.29C805.7 232.157 805.737 231.993 805.737 231.8C805.737 231.52 805.647 231.277 805.467 231.07C805.287 230.863 805.003 230.76 804.617 230.76H803.107V232.86ZM803.107 236.16H804.517C804.663 236.16 804.823 236.147 804.997 236.12C805.177 236.087 805.343 236.027 805.497 235.94C805.65 235.847 805.78 235.723 805.887 235.57C805.993 235.417 806.047 235.213 806.047 234.96C806.047 234.54 805.91 234.227 805.637 234.02C805.363 233.807 804.993 233.7 804.527 233.7H803.107V236.16ZM812.415 237H811.515V236.27H811.495C811.382 236.523 811.185 236.73 810.905 236.89C810.625 237.043 810.302 237.12 809.935 237.12C809.702 237.12 809.482 237.083 809.275 237.01C809.069 236.943 808.885 236.837 808.725 236.69C808.572 236.543 808.449 236.357 808.355 236.13C808.262 235.897 808.215 235.623 808.215 235.31V232.26H809.115V235.06C809.115 235.28 809.145 235.47 809.205 235.63C809.265 235.783 809.345 235.91 809.445 236.01C809.545 236.103 809.659 236.173 809.785 236.22C809.919 236.26 810.055 236.28 810.195 236.28C810.382 236.28 810.555 236.25 810.715 236.19C810.875 236.13 811.015 236.037 811.135 235.91C811.255 235.777 811.349 235.61 811.415 235.41C811.482 235.21 811.515 234.973 811.515 234.7V232.26H812.415V237ZM816.292 233.45C816.185 233.317 816.052 233.207 815.892 233.12C815.739 233.027 815.549 232.98 815.322 232.98C815.109 232.98 814.922 233.027 814.762 233.12C814.609 233.207 814.532 233.337 814.532 233.51C814.532 233.65 814.575 233.763 814.662 233.85C814.755 233.937 814.862 234.007 814.982 234.06C815.109 234.113 815.242 234.153 815.382 234.18C815.522 234.207 815.642 234.23 815.742 234.25C815.935 234.297 816.115 234.353 816.282 234.42C816.455 234.487 816.602 234.573 816.722 234.68C816.849 234.787 816.945 234.917 817.012 235.07C817.085 235.223 817.122 235.41 817.122 235.63C817.122 235.897 817.065 236.127 816.952 236.32C816.839 236.507 816.692 236.66 816.512 236.78C816.332 236.9 816.125 236.987 815.892 237.04C815.665 237.093 815.435 237.12 815.202 237.12C814.809 237.12 814.462 237.06 814.162 236.94C813.869 236.82 813.605 236.6 813.372 236.28L814.052 235.72C814.199 235.867 814.362 235.997 814.542 236.11C814.722 236.223 814.942 236.28 815.202 236.28C815.315 236.28 815.429 236.27 815.542 236.25C815.662 236.223 815.765 236.187 815.852 236.14C815.945 236.087 816.019 236.023 816.072 235.95C816.132 235.87 816.162 235.78 816.162 235.68C816.162 235.547 816.119 235.437 816.032 235.35C815.952 235.263 815.852 235.197 815.732 235.15C815.619 235.097 815.495 235.057 815.362 235.03C815.235 234.997 815.122 234.97 815.022 234.95C814.829 234.903 814.645 234.85 814.472 234.79C814.299 234.73 814.145 234.65 814.012 234.55C813.879 234.45 813.772 234.323 813.692 234.17C813.612 234.017 813.572 233.827 813.572 233.6C813.572 233.353 813.622 233.14 813.722 232.96C813.829 232.773 813.965 232.62 814.132 232.5C814.305 232.38 814.499 232.29 814.712 232.23C814.932 232.17 815.152 232.14 815.372 232.14C815.692 232.14 815.999 232.2 816.292 232.32C816.585 232.44 816.819 232.64 816.992 232.92L816.292 233.45ZM817.645 232.26H818.685L820.095 235.96H820.115L821.455 232.26H822.425L820.175 238.02C820.095 238.227 820.012 238.413 819.925 238.58C819.839 238.753 819.735 238.9 819.615 239.02C819.495 239.14 819.349 239.233 819.175 239.3C819.009 239.367 818.802 239.4 818.555 239.4C818.422 239.4 818.285 239.39 818.145 239.37C818.012 239.357 817.882 239.323 817.755 239.27L817.865 238.45C818.045 238.523 818.225 238.56 818.405 238.56C818.545 238.56 818.662 238.54 818.755 238.5C818.855 238.467 818.939 238.413 819.005 238.34C819.079 238.273 819.139 238.193 819.185 238.1C819.232 238.007 819.279 237.9 819.325 237.78L819.615 237.03L817.645 232.26ZM823.215 229.44H824.115V232.94H824.135C824.295 232.693 824.525 232.5 824.825 232.36C825.125 232.213 825.445 232.14 825.785 232.14C826.152 232.14 826.482 232.203 826.775 232.33C827.075 232.457 827.329 232.633 827.535 232.86C827.749 233.08 827.912 233.343 828.025 233.65C828.139 233.95 828.195 234.277 828.195 234.63C828.195 234.983 828.139 235.31 828.025 235.61C827.912 235.91 827.749 236.173 827.535 236.4C827.329 236.627 827.075 236.803 826.775 236.93C826.482 237.057 826.152 237.12 825.785 237.12C825.465 237.12 825.152 237.05 824.845 236.91C824.545 236.77 824.309 236.573 824.135 236.32H824.115V237H823.215V229.44ZM825.675 236.28C825.915 236.28 826.132 236.24 826.325 236.16C826.519 236.073 826.682 235.96 826.815 235.82C826.949 235.673 827.052 235.5 827.125 235.3C827.199 235.093 827.235 234.87 827.235 234.63C827.235 234.39 827.199 234.17 827.125 233.97C827.052 233.763 826.949 233.59 826.815 233.45C826.682 233.303 826.519 233.19 826.325 233.11C826.132 233.023 825.915 232.98 825.675 232.98C825.435 232.98 825.219 233.023 825.025 233.11C824.832 233.19 824.669 233.303 824.535 233.45C824.402 233.59 824.299 233.763 824.225 233.97C824.152 234.17 824.115 234.39 824.115 234.63C824.115 234.87 824.152 235.093 824.225 235.3C824.299 235.5 824.402 235.673 824.535 235.82C824.669 235.96 824.832 236.073 825.025 236.16C825.219 236.24 825.435 236.28 825.675 236.28ZM830.009 234.96C830.009 235.167 830.052 235.357 830.139 235.53C830.232 235.697 830.352 235.84 830.499 235.96C830.645 236.08 830.815 236.173 831.009 236.24C831.202 236.307 831.402 236.34 831.609 236.34C831.889 236.34 832.132 236.277 832.339 236.15C832.545 236.017 832.735 235.843 832.909 235.63L833.589 236.15C833.089 236.797 832.389 237.12 831.489 237.12C831.115 237.12 830.775 237.057 830.469 236.93C830.169 236.803 829.912 236.63 829.699 236.41C829.492 236.183 829.332 235.92 829.219 235.62C829.105 235.313 829.049 234.983 829.049 234.63C829.049 234.277 829.109 233.95 829.229 233.65C829.355 233.343 829.525 233.08 829.739 232.86C829.959 232.633 830.219 232.457 830.519 232.33C830.819 232.203 831.145 232.14 831.499 232.14C831.919 232.14 832.272 232.213 832.559 232.36C832.852 232.507 833.092 232.7 833.279 232.94C833.465 233.173 833.599 233.44 833.679 233.74C833.765 234.033 833.809 234.333 833.809 234.64V234.96H830.009ZM832.849 234.24C832.842 234.04 832.809 233.857 832.749 233.69C832.695 233.523 832.612 233.38 832.499 233.26C832.385 233.133 832.242 233.037 832.069 232.97C831.902 232.897 831.705 232.86 831.479 232.86C831.259 232.86 831.055 232.903 830.869 232.99C830.689 233.07 830.535 233.177 830.409 233.31C830.282 233.443 830.182 233.593 830.109 233.76C830.042 233.92 830.009 234.08 830.009 234.24H832.849ZM835.565 234.96C835.565 235.167 835.609 235.357 835.695 235.53C835.789 235.697 835.909 235.84 836.055 235.96C836.202 236.08 836.372 236.173 836.565 236.24C836.759 236.307 836.959 236.34 837.165 236.34C837.445 236.34 837.689 236.277 837.895 236.15C838.102 236.017 838.292 235.843 838.465 235.63L839.145 236.15C838.645 236.797 837.945 237.12 837.045 237.12C836.672 237.12 836.332 237.057 836.025 236.93C835.725 236.803 835.469 236.63 835.255 236.41C835.049 236.183 834.889 235.92 834.775 235.62C834.662 235.313 834.605 234.983 834.605 234.63C834.605 234.277 834.665 233.95 834.785 233.65C834.912 233.343 835.082 233.08 835.295 232.86C835.515 232.633 835.775 232.457 836.075 232.33C836.375 232.203 836.702 232.14 837.055 232.14C837.475 232.14 837.829 232.213 838.115 232.36C838.409 232.507 838.649 232.7 838.835 232.94C839.022 233.173 839.155 233.44 839.235 233.74C839.322 234.033 839.365 234.333 839.365 234.64V234.96H835.565ZM838.405 234.24C838.399 234.04 838.365 233.857 838.305 233.69C838.252 233.523 838.169 233.38 838.055 233.26C837.942 233.133 837.799 233.037 837.625 232.97C837.459 232.897 837.262 232.86 837.035 232.86C836.815 232.86 836.612 232.903 836.425 232.99C836.245 233.07 836.092 233.177 835.965 233.31C835.839 233.443 835.739 233.593 835.665 233.76C835.599 233.92 835.565 234.08 835.565 234.24H838.405Z" fill="#161919"/>
<path d="M982.899 229.92V234.26C982.899 234.48 982.929 234.71 982.989 234.95C983.049 235.183 983.149 235.4 983.289 235.6C983.429 235.8 983.613 235.963 983.839 236.09C984.066 236.217 984.346 236.28 984.679 236.28C985.013 236.28 985.293 236.217 985.519 236.09C985.746 235.963 985.929 235.8 986.069 235.6C986.209 235.4 986.309 235.183 986.369 234.95C986.429 234.71 986.459 234.48 986.459 234.26V229.92H987.419V234.41C987.419 234.823 987.349 235.2 987.209 235.54C987.069 235.873 986.876 236.163 986.629 236.41C986.383 236.657 986.093 236.847 985.759 236.98C985.426 237.113 985.066 237.18 984.679 237.18C984.293 237.18 983.933 237.113 983.599 236.98C983.266 236.847 982.976 236.657 982.729 236.41C982.483 236.163 982.289 235.873 982.149 235.54C982.009 235.2 981.939 234.823 981.939 234.41V229.92H982.899ZM989.11 229.92H990.37L994.27 235.74H994.29V229.92H995.25V237H994.03L990.09 231.18H990.07V237H989.11V229.92ZM997.069 229.92H998.029V237H997.069V229.92ZM1004.78 231.45C1004.58 231.19 1004.33 230.99 1004.02 230.85C1003.72 230.71 1003.4 230.64 1003.07 230.64C1002.67 230.64 1002.31 230.717 1001.98 230.87C1001.66 231.017 1001.39 231.22 1001.15 231.48C1000.93 231.74 1000.75 232.047 1000.62 232.4C1000.5 232.747 1000.43 233.12 1000.43 233.52C1000.43 233.893 1000.49 234.247 1000.61 234.58C1000.73 234.913 1000.91 235.207 1001.13 235.46C1001.36 235.713 1001.64 235.913 1001.96 236.06C1002.29 236.207 1002.66 236.28 1003.07 236.28C1003.48 236.28 1003.84 236.197 1004.14 236.03C1004.45 235.863 1004.71 235.63 1004.92 235.33L1005.73 235.94C1005.68 236.013 1005.59 236.12 1005.45 236.26C1005.32 236.393 1005.14 236.53 1004.92 236.67C1004.7 236.803 1004.44 236.92 1004.12 237.02C1003.82 237.127 1003.46 237.18 1003.05 237.18C1002.49 237.18 1001.99 237.073 1001.53 236.86C1001.09 236.647 1000.7 236.367 1000.38 236.02C1000.07 235.673 999.829 235.283 999.663 234.85C999.496 234.41 999.413 233.967 999.413 233.52C999.413 232.973 999.503 232.47 999.683 232.01C999.863 231.543 1000.11 231.143 1000.43 230.81C1000.76 230.47 1001.15 230.207 1001.6 230.02C1002.06 229.833 1002.56 229.74 1003.1 229.74C1003.57 229.74 1004.03 229.83 1004.47 230.01C1004.93 230.19 1005.3 230.467 1005.58 230.84L1004.78 231.45ZM1006.89 229.92H1011.46V230.82H1007.85V232.93H1011.21V233.83H1007.85V236.1H1011.64V237H1006.89V229.92ZM1013.01 229.92H1017.46V230.82H1013.97V233.04H1017.22V233.94H1013.97V237H1013.01V229.92Z" fill="#161919"/>
<path d="M1126.35 229.92H1130.8V230.82H1127.31V233.04H1130.56V233.94H1127.31V237H1126.35V229.92ZM1131.93 232.26H1132.83V237H1131.93V232.26ZM1131.72 230.56C1131.72 230.38 1131.79 230.227 1131.91 230.1C1132.05 229.967 1132.2 229.9 1132.38 229.9C1132.56 229.9 1132.72 229.967 1132.84 230.1C1132.98 230.227 1133.04 230.38 1133.04 230.56C1133.04 230.74 1132.98 230.897 1132.84 231.03C1132.72 231.157 1132.56 231.22 1132.38 231.22C1132.2 231.22 1132.05 231.157 1131.91 231.03C1131.79 230.897 1131.72 230.74 1131.72 230.56ZM1134.27 232.26H1135.17V232.99H1135.19C1135.3 232.737 1135.5 232.533 1135.78 232.38C1136.06 232.22 1136.38 232.14 1136.75 232.14C1136.97 232.14 1137.19 232.177 1137.4 232.25C1137.61 232.317 1137.79 232.423 1137.95 232.57C1138.11 232.717 1138.23 232.907 1138.33 233.14C1138.42 233.367 1138.47 233.637 1138.47 233.95V237H1137.57V234.2C1137.57 233.98 1137.54 233.793 1137.48 233.64C1137.42 233.48 1137.34 233.353 1137.24 233.26C1137.14 233.16 1137.02 233.09 1136.89 233.05C1136.76 233.003 1136.63 232.98 1136.49 232.98C1136.3 232.98 1136.13 233.01 1135.97 233.07C1135.81 233.13 1135.67 233.227 1135.55 233.36C1135.43 233.487 1135.33 233.65 1135.27 233.85C1135.2 234.05 1135.17 234.287 1135.17 234.56V237H1134.27V232.26ZM1144.57 236.96C1144.57 237.32 1144.51 237.647 1144.38 237.94C1144.26 238.24 1144.09 238.497 1143.86 238.71C1143.64 238.93 1143.36 239.1 1143.04 239.22C1142.72 239.34 1142.37 239.4 1141.98 239.4C1141.53 239.4 1141.11 239.337 1140.73 239.21C1140.36 239.083 1140 238.863 1139.66 238.55L1140.27 237.79C1140.51 238.043 1140.76 238.233 1141.03 238.36C1141.31 238.493 1141.62 238.56 1141.96 238.56C1142.3 238.56 1142.57 238.51 1142.79 238.41C1143.01 238.317 1143.19 238.193 1143.31 238.04C1143.45 237.887 1143.54 237.71 1143.59 237.51C1143.65 237.317 1143.67 237.12 1143.67 236.92V236.22H1143.64C1143.47 236.507 1143.23 236.72 1142.93 236.86C1142.64 236.993 1142.33 237.06 1142 237.06C1141.66 237.06 1141.33 237 1141.03 236.88C1140.74 236.753 1140.49 236.583 1140.27 236.37C1140.06 236.15 1139.89 235.893 1139.77 235.6C1139.65 235.3 1139.59 234.977 1139.59 234.63C1139.59 234.283 1139.65 233.96 1139.76 233.66C1139.88 233.353 1140.04 233.087 1140.24 232.86C1140.46 232.633 1140.71 232.457 1141 232.33C1141.3 232.203 1141.64 232.14 1142 232.14C1142.32 232.14 1142.63 232.21 1142.93 232.35C1143.24 232.49 1143.48 232.687 1143.65 232.94H1143.67V232.26H1144.57V236.96ZM1142.11 232.98C1141.87 232.98 1141.66 233.023 1141.46 233.11C1141.27 233.19 1141.11 233.303 1140.97 233.45C1140.84 233.59 1140.74 233.763 1140.66 233.97C1140.59 234.17 1140.55 234.39 1140.55 234.63C1140.55 235.11 1140.69 235.497 1140.97 235.79C1141.25 236.077 1141.63 236.22 1142.11 236.22C1142.59 236.22 1142.97 236.077 1143.25 235.79C1143.53 235.497 1143.67 235.11 1143.67 234.63C1143.67 234.39 1143.64 234.17 1143.56 233.97C1143.49 233.763 1143.39 233.59 1143.25 233.45C1143.12 233.303 1142.96 233.19 1142.76 233.11C1142.57 233.023 1142.35 232.98 1142.11 232.98ZM1146.62 234.96C1146.62 235.167 1146.66 235.357 1146.75 235.53C1146.84 235.697 1146.96 235.84 1147.11 235.96C1147.25 236.08 1147.42 236.173 1147.62 236.24C1147.81 236.307 1148.01 236.34 1148.22 236.34C1148.5 236.34 1148.74 236.277 1148.95 236.15C1149.15 236.017 1149.34 235.843 1149.52 235.63L1150.2 236.15C1149.7 236.797 1149 237.12 1148.1 237.12C1147.72 237.12 1147.38 237.057 1147.08 236.93C1146.78 236.803 1146.52 236.63 1146.31 236.41C1146.1 236.183 1145.94 235.92 1145.83 235.62C1145.71 235.313 1145.66 234.983 1145.66 234.63C1145.66 234.277 1145.72 233.95 1145.84 233.65C1145.96 233.343 1146.13 233.08 1146.35 232.86C1146.57 232.633 1146.83 232.457 1147.13 232.33C1147.43 232.203 1147.75 232.14 1148.11 232.14C1148.53 232.14 1148.88 232.213 1149.17 232.36C1149.46 232.507 1149.7 232.7 1149.89 232.94C1150.07 233.173 1150.21 233.44 1150.29 233.74C1150.37 234.033 1150.42 234.333 1150.42 234.64V234.96H1146.62ZM1149.46 234.24C1149.45 234.04 1149.42 233.857 1149.36 233.69C1149.3 233.523 1149.22 233.38 1149.11 233.26C1148.99 233.133 1148.85 233.037 1148.68 232.97C1148.51 232.897 1148.31 232.86 1148.09 232.86C1147.87 232.86 1147.66 232.903 1147.48 232.99C1147.3 233.07 1147.14 233.177 1147.02 233.31C1146.89 233.443 1146.79 233.593 1146.72 233.76C1146.65 233.92 1146.62 234.08 1146.62 234.24H1149.46ZM1151.49 232.26H1152.39V232.99H1152.41C1152.47 232.863 1152.55 232.75 1152.65 232.65C1152.75 232.543 1152.86 232.453 1152.98 232.38C1153.11 232.307 1153.25 232.25 1153.39 232.21C1153.54 232.163 1153.69 232.14 1153.83 232.14C1153.98 232.14 1154.11 232.16 1154.23 232.2L1154.19 233.17C1154.12 233.15 1154.05 233.133 1153.97 233.12C1153.9 233.107 1153.83 233.1 1153.75 233.1C1153.31 233.1 1152.98 233.223 1152.74 233.47C1152.51 233.717 1152.39 234.1 1152.39 234.62V237H1151.49V232.26ZM1157.98 232.26H1158.88V232.94H1158.9C1159.07 232.687 1159.31 232.49 1159.61 232.35C1159.91 232.21 1160.23 232.14 1160.55 232.14C1160.91 232.14 1161.24 232.203 1161.54 232.33C1161.84 232.457 1162.09 232.633 1162.3 232.86C1162.51 233.087 1162.67 233.353 1162.79 233.66C1162.9 233.96 1162.96 234.283 1162.96 234.63C1162.96 234.983 1162.9 235.313 1162.79 235.62C1162.67 235.92 1162.51 236.183 1162.3 236.41C1162.09 236.63 1161.84 236.803 1161.54 236.93C1161.24 237.057 1160.91 237.12 1160.55 237.12C1160.21 237.12 1159.89 237.05 1159.59 236.91C1159.29 236.763 1159.06 236.567 1158.9 236.32H1158.88V239.82H1157.98V232.26ZM1160.44 232.98C1160.2 232.98 1159.98 233.023 1159.79 233.11C1159.59 233.19 1159.43 233.303 1159.3 233.45C1159.16 233.59 1159.06 233.763 1158.99 233.97C1158.91 234.17 1158.88 234.39 1158.88 234.63C1158.88 234.87 1158.91 235.093 1158.99 235.3C1159.06 235.5 1159.16 235.673 1159.3 235.82C1159.43 235.96 1159.59 236.073 1159.79 236.16C1159.98 236.24 1160.2 236.28 1160.44 236.28C1160.68 236.28 1160.89 236.24 1161.09 236.16C1161.28 236.073 1161.44 235.96 1161.58 235.82C1161.71 235.673 1161.81 235.5 1161.89 235.3C1161.96 235.093 1162 234.87 1162 234.63C1162 234.39 1161.96 234.17 1161.89 233.97C1161.81 233.763 1161.71 233.59 1161.58 233.45C1161.44 233.303 1161.28 233.19 1161.09 233.11C1160.89 233.023 1160.68 232.98 1160.44 232.98ZM1164.09 232.26H1164.99V232.99H1165.01C1165.07 232.863 1165.15 232.75 1165.25 232.65C1165.35 232.543 1165.46 232.453 1165.58 232.38C1165.71 232.307 1165.84 232.25 1165.99 232.21C1166.14 232.163 1166.28 232.14 1166.43 232.14C1166.58 232.14 1166.71 232.16 1166.83 232.2L1166.79 233.17C1166.72 233.15 1166.64 233.133 1166.57 233.12C1166.5 233.107 1166.42 233.1 1166.35 233.1C1165.91 233.1 1165.57 233.223 1165.34 233.47C1165.11 233.717 1164.99 234.1 1164.99 234.62V237H1164.09V232.26ZM1167.86 232.26H1168.76V237H1167.86V232.26ZM1167.65 230.56C1167.65 230.38 1167.72 230.227 1167.84 230.1C1167.98 229.967 1168.13 229.9 1168.31 229.9C1168.49 229.9 1168.65 229.967 1168.77 230.1C1168.91 230.227 1168.97 230.38 1168.97 230.56C1168.97 230.74 1168.91 230.897 1168.77 231.03C1168.65 231.157 1168.49 231.22 1168.31 231.22C1168.13 231.22 1167.98 231.157 1167.84 231.03C1167.72 230.897 1167.65 230.74 1167.65 230.56ZM1170.19 232.26H1171.09V232.99H1171.11C1171.23 232.737 1171.42 232.533 1171.7 232.38C1171.98 232.22 1172.31 232.14 1172.67 232.14C1172.9 232.14 1173.12 232.177 1173.32 232.25C1173.54 232.317 1173.72 232.423 1173.87 232.57C1174.03 232.717 1174.16 232.907 1174.25 233.14C1174.35 233.367 1174.39 233.637 1174.39 233.95V237H1173.49V234.2C1173.49 233.98 1173.46 233.793 1173.4 233.64C1173.34 233.48 1173.26 233.353 1173.16 233.26C1173.06 233.16 1172.95 233.09 1172.81 233.05C1172.69 233.003 1172.55 232.98 1172.41 232.98C1172.23 232.98 1172.05 233.01 1171.89 233.07C1171.73 233.13 1171.59 233.227 1171.47 233.36C1171.35 233.487 1171.26 233.65 1171.19 233.85C1171.13 234.05 1171.09 234.287 1171.09 234.56V237H1170.19V232.26ZM1178.29 233.04H1177V235.19C1177 235.323 1177 235.457 1177.01 235.59C1177.02 235.717 1177.04 235.833 1177.08 235.94C1177.13 236.04 1177.19 236.123 1177.28 236.19C1177.37 236.25 1177.51 236.28 1177.68 236.28C1177.79 236.28 1177.9 236.27 1178.01 236.25C1178.12 236.23 1178.23 236.193 1178.32 236.14V236.96C1178.21 237.02 1178.07 237.06 1177.9 237.08C1177.73 237.107 1177.6 237.12 1177.51 237.12C1177.16 237.12 1176.89 237.073 1176.7 236.98C1176.51 236.88 1176.37 236.753 1176.28 236.6C1176.19 236.447 1176.14 236.277 1176.12 236.09C1176.11 235.897 1176.1 235.703 1176.1 235.51V233.04H1175.06V232.26H1176.1V230.93H1177V232.26H1178.29V233.04ZM1181.67 232.26H1182.71L1184.13 235.89L1185.49 232.26H1186.45L1184.59 237H1183.6L1181.67 232.26ZM1187.92 234.96C1187.92 235.167 1187.96 235.357 1188.05 235.53C1188.14 235.697 1188.26 235.84 1188.41 235.96C1188.55 236.08 1188.72 236.173 1188.92 236.24C1189.11 236.307 1189.31 236.34 1189.52 236.34C1189.8 236.34 1190.04 236.277 1190.25 236.15C1190.45 236.017 1190.64 235.843 1190.82 235.63L1191.5 236.15C1191 236.797 1190.3 237.12 1189.4 237.12C1189.02 237.12 1188.68 237.057 1188.38 236.93C1188.08 236.803 1187.82 236.63 1187.61 236.41C1187.4 236.183 1187.24 235.92 1187.13 235.62C1187.01 235.313 1186.96 234.983 1186.96 234.63C1186.96 234.277 1187.02 233.95 1187.14 233.65C1187.26 233.343 1187.43 233.08 1187.65 232.86C1187.87 232.633 1188.13 232.457 1188.43 232.33C1188.73 232.203 1189.05 232.14 1189.41 232.14C1189.83 232.14 1190.18 232.213 1190.47 232.36C1190.76 232.507 1191 232.7 1191.19 232.94C1191.37 233.173 1191.51 233.44 1191.59 233.74C1191.67 234.033 1191.72 234.333 1191.72 234.64V234.96H1187.92ZM1190.76 234.24C1190.75 234.04 1190.72 233.857 1190.66 233.69C1190.6 233.523 1190.52 233.38 1190.41 233.26C1190.29 233.133 1190.15 233.037 1189.98 232.97C1189.81 232.897 1189.61 232.86 1189.39 232.86C1189.17 232.86 1188.96 232.903 1188.78 232.99C1188.6 233.07 1188.44 233.177 1188.32 233.31C1188.19 233.443 1188.09 233.593 1188.02 233.76C1187.95 233.92 1187.92 234.08 1187.92 234.24H1190.76ZM1192.79 232.26H1193.69V232.99H1193.71C1193.77 232.863 1193.85 232.75 1193.95 232.65C1194.05 232.543 1194.16 232.453 1194.28 232.38C1194.41 232.307 1194.55 232.25 1194.69 232.21C1194.84 232.163 1194.99 232.14 1195.13 232.14C1195.28 232.14 1195.41 232.16 1195.53 232.2L1195.49 233.17C1195.42 233.15 1195.35 233.133 1195.27 233.12C1195.2 233.107 1195.13 233.1 1195.05 233.1C1194.61 233.1 1194.28 233.223 1194.04 233.47C1193.81 233.717 1193.69 234.1 1193.69 234.62V237H1192.79V232.26ZM1196.56 232.26H1197.46V237H1196.56V232.26ZM1196.35 230.56C1196.35 230.38 1196.42 230.227 1196.54 230.1C1196.68 229.967 1196.83 229.9 1197.01 229.9C1197.19 229.9 1197.35 229.967 1197.47 230.1C1197.61 230.227 1197.67 230.38 1197.67 230.56C1197.67 230.74 1197.61 230.897 1197.47 231.03C1197.35 231.157 1197.19 231.22 1197.01 231.22C1196.83 231.22 1196.68 231.157 1196.54 231.03C1196.42 230.897 1196.35 230.74 1196.35 230.56ZM1199.25 233.04H1198.23V232.26H1199.25V231.2C1199.25 230.567 1199.37 230.097 1199.61 229.79C1199.85 229.477 1200.27 229.32 1200.87 229.32C1200.97 229.32 1201.07 229.323 1201.18 229.33C1201.29 229.337 1201.41 229.357 1201.54 229.39L1201.44 230.19C1201.35 230.157 1201.27 230.133 1201.19 230.12C1201.11 230.107 1201.02 230.1 1200.93 230.1C1200.76 230.1 1200.63 230.127 1200.53 230.18C1200.43 230.227 1200.35 230.297 1200.29 230.39C1200.23 230.483 1200.2 230.597 1200.18 230.73C1200.16 230.857 1200.16 231.003 1200.16 231.17V232.26H1201.23V233.04H1200.15V237H1199.25V233.04ZM1202.3 232.26H1203.2V237H1202.3V232.26ZM1202.09 230.56C1202.09 230.38 1202.15 230.227 1202.28 230.1C1202.41 229.967 1202.57 229.9 1202.75 229.9C1202.93 229.9 1203.08 229.967 1203.21 230.1C1203.34 230.227 1203.41 230.38 1203.41 230.56C1203.41 230.74 1203.34 230.897 1203.21 231.03C1203.08 231.157 1202.93 231.22 1202.75 231.22C1202.57 231.22 1202.41 231.157 1202.28 231.03C1202.15 230.897 1202.09 230.74 1202.09 230.56ZM1208.02 233.52C1207.85 233.347 1207.67 233.217 1207.49 233.13C1207.31 233.037 1207.09 232.99 1206.84 232.99C1206.59 232.99 1206.37 233.037 1206.19 233.13C1206.01 233.217 1205.85 233.34 1205.73 233.5C1205.61 233.653 1205.51 233.833 1205.45 234.04C1205.39 234.24 1205.36 234.45 1205.36 234.67C1205.36 234.89 1205.39 235.1 1205.47 235.3C1205.54 235.493 1205.64 235.663 1205.78 235.81C1205.91 235.957 1206.07 236.073 1206.26 236.16C1206.44 236.24 1206.65 236.28 1206.89 236.28C1207.14 236.28 1207.36 236.237 1207.54 236.15C1207.72 236.057 1207.88 235.923 1208.04 235.75L1208.68 236.39C1208.44 236.65 1208.17 236.837 1207.86 236.95C1207.55 237.063 1207.22 237.12 1206.88 237.12C1206.51 237.12 1206.17 237.06 1205.87 236.94C1205.57 236.82 1205.31 236.653 1205.09 236.44C1204.87 236.22 1204.7 235.96 1204.58 235.66C1204.46 235.353 1204.4 235.017 1204.4 234.65C1204.4 234.283 1204.46 233.947 1204.58 233.64C1204.7 233.333 1204.86 233.07 1205.08 232.85C1205.3 232.63 1205.56 232.46 1205.86 232.34C1206.16 232.213 1206.5 232.15 1206.88 232.15C1207.22 232.15 1207.55 232.213 1207.87 232.34C1208.19 232.46 1208.46 232.647 1208.7 232.9L1208.02 233.52ZM1209.47 232.84C1209.73 232.607 1210.02 232.433 1210.35 232.32C1210.69 232.2 1211.02 232.14 1211.35 232.14C1211.7 232.14 1212 232.183 1212.24 232.27C1212.5 232.357 1212.7 232.473 1212.86 232.62C1213.02 232.767 1213.14 232.937 1213.21 233.13C1213.29 233.317 1213.33 233.513 1213.33 233.72V236.14C1213.33 236.307 1213.34 236.46 1213.34 236.6C1213.35 236.74 1213.36 236.873 1213.37 237H1212.57C1212.55 236.76 1212.54 236.52 1212.54 236.28H1212.52C1212.32 236.587 1212.09 236.803 1211.81 236.93C1211.54 237.057 1211.22 237.12 1210.86 237.12C1210.64 237.12 1210.43 237.09 1210.23 237.03C1210.03 236.97 1209.86 236.88 1209.7 236.76C1209.56 236.64 1209.44 236.493 1209.35 236.32C1209.27 236.14 1209.22 235.933 1209.22 235.7C1209.22 235.393 1209.29 235.137 1209.42 234.93C1209.56 234.723 1209.75 234.557 1209.98 234.43C1210.22 234.297 1210.5 234.203 1210.81 234.15C1211.13 234.09 1211.47 234.06 1211.83 234.06H1212.49V233.86C1212.49 233.74 1212.47 233.62 1212.42 233.5C1212.38 233.38 1212.31 233.273 1212.21 233.18C1212.12 233.08 1212 233.003 1211.86 232.95C1211.72 232.89 1211.56 232.86 1211.36 232.86C1211.19 232.86 1211.04 232.877 1210.9 232.91C1210.78 232.943 1210.66 232.987 1210.55 233.04C1210.45 233.087 1210.35 233.143 1210.26 233.21C1210.18 233.277 1210.09 233.34 1210.01 233.4L1209.47 232.84ZM1212.01 234.72C1211.8 234.72 1211.58 234.733 1211.35 234.76C1211.13 234.78 1210.93 234.823 1210.74 234.89C1210.56 234.957 1210.41 235.05 1210.29 235.17C1210.18 235.29 1210.12 235.443 1210.12 235.63C1210.12 235.903 1210.21 236.1 1210.39 236.22C1210.58 236.34 1210.83 236.4 1211.14 236.4C1211.39 236.4 1211.6 236.36 1211.77 236.28C1211.95 236.193 1212.09 236.083 1212.19 235.95C1212.3 235.817 1212.38 235.67 1212.42 235.51C1212.47 235.343 1212.49 235.18 1212.49 235.02V234.72H1212.01ZM1217.18 233.04H1215.89V235.19C1215.89 235.323 1215.89 235.457 1215.9 235.59C1215.9 235.717 1215.93 235.833 1215.97 235.94C1216.01 236.04 1216.08 236.123 1216.17 236.19C1216.26 236.25 1216.39 236.28 1216.57 236.28C1216.67 236.28 1216.78 236.27 1216.9 236.25C1217.01 236.23 1217.11 236.193 1217.21 236.14V236.96C1217.1 237.02 1216.96 237.06 1216.79 237.08C1216.62 237.107 1216.49 237.12 1216.4 237.12C1216.05 237.12 1215.78 237.073 1215.59 236.98C1215.4 236.88 1215.26 236.753 1215.17 236.6C1215.08 236.447 1215.03 236.277 1215.01 236.09C1214.99 235.897 1214.99 235.703 1214.99 235.51V233.04H1213.95V232.26H1214.99V230.93H1215.89V232.26H1217.18V233.04ZM1218.41 232.26H1219.31V237H1218.41V232.26ZM1218.2 230.56C1218.2 230.38 1218.26 230.227 1218.39 230.1C1218.52 229.967 1218.68 229.9 1218.86 229.9C1219.04 229.9 1219.19 229.967 1219.32 230.1C1219.45 230.227 1219.52 230.38 1219.52 230.56C1219.52 230.74 1219.45 230.897 1219.32 231.03C1219.19 231.157 1219.04 231.22 1218.86 231.22C1218.68 231.22 1218.52 231.157 1218.39 231.03C1218.26 230.897 1218.2 230.74 1218.2 230.56ZM1221.47 234.63C1221.47 234.87 1221.51 235.093 1221.58 235.3C1221.65 235.5 1221.76 235.673 1221.89 235.82C1222.02 235.96 1222.19 236.073 1222.38 236.16C1222.57 236.24 1222.79 236.28 1223.03 236.28C1223.27 236.28 1223.49 236.24 1223.68 236.16C1223.87 236.073 1224.04 235.96 1224.17 235.82C1224.3 235.673 1224.41 235.5 1224.48 235.3C1224.55 235.093 1224.59 234.87 1224.59 234.63C1224.59 234.39 1224.55 234.17 1224.48 233.97C1224.41 233.763 1224.3 233.59 1224.17 233.45C1224.04 233.303 1223.87 233.19 1223.68 233.11C1223.49 233.023 1223.27 232.98 1223.03 232.98C1222.79 232.98 1222.57 233.023 1222.38 233.11C1222.19 233.19 1222.02 233.303 1221.89 233.45C1221.76 233.59 1221.65 233.763 1221.58 233.97C1221.51 234.17 1221.47 234.39 1221.47 234.63ZM1220.51 234.63C1220.51 234.283 1220.57 233.96 1220.7 233.66C1220.83 233.36 1221.01 233.097 1221.24 232.87C1221.47 232.643 1221.73 232.467 1222.04 232.34C1222.35 232.207 1222.68 232.14 1223.03 232.14C1223.38 232.14 1223.71 232.207 1224.02 232.34C1224.33 232.467 1224.59 232.643 1224.82 232.87C1225.05 233.097 1225.22 233.36 1225.35 233.66C1225.48 233.96 1225.55 234.283 1225.55 234.63C1225.55 234.977 1225.48 235.303 1225.35 235.61C1225.22 235.91 1225.05 236.173 1224.82 236.4C1224.59 236.62 1224.33 236.797 1224.02 236.93C1223.71 237.057 1223.38 237.12 1223.03 237.12C1222.68 237.12 1222.35 237.057 1222.04 236.93C1221.73 236.797 1221.47 236.62 1221.24 236.4C1221.01 236.173 1220.83 235.91 1220.7 235.61C1220.57 235.303 1220.51 234.977 1220.51 234.63ZM1226.68 232.26H1227.58V232.99H1227.6C1227.71 232.737 1227.91 232.533 1228.19 232.38C1228.47 232.22 1228.79 232.14 1229.16 232.14C1229.39 232.14 1229.6 232.177 1229.81 232.25C1230.02 232.317 1230.21 232.423 1230.36 232.57C1230.52 232.717 1230.65 232.907 1230.74 233.14C1230.83 233.367 1230.88 233.637 1230.88 233.95V237H1229.98V234.2C1229.98 233.98 1229.95 233.793 1229.89 233.64C1229.83 233.48 1229.75 233.353 1229.65 233.26C1229.55 233.16 1229.43 233.09 1229.3 233.05C1229.17 233.003 1229.04 232.98 1228.9 232.98C1228.71 232.98 1228.54 233.01 1228.38 233.07C1228.22 233.13 1228.08 233.227 1227.96 233.36C1227.84 233.487 1227.75 233.65 1227.68 233.85C1227.61 234.05 1227.58 234.287 1227.58 234.56V237H1226.68V232.26Z" fill="#161919"/>
<rect x="456.099" y="42.1" width="3.8" height="178.8" rx="0.9" fill="#0081C2" fill-opacity="0.2" stroke="#0081C2" stroke-width="0.2"/>
<rect x="465.1" y="203.1" width="3.8" height="17.8" rx="0.9" fill="#DB5461" fill-opacity="0.2" stroke="#DB5461" stroke-width="0.2"/>
<rect x="474.099" y="125.1" width="3.8" height="95.8" rx="0.9" fill="#4E5353" fill-opacity="0.2" stroke="#4E5353" stroke-width="0.2"/>
<rect x="447.099" y="143.1" width="3.8" height="77.8" rx="0.9" fill="#21BA30" fill-opacity="0.2" stroke="#21BA30" stroke-width="0.2"/>
<rect x="635.099" y="42.1" width="3.8" height="178.8" rx="0.9" fill="#0081C2" fill-opacity="0.2" stroke="#0081C2" stroke-width="0.2"/>
<rect x="644.098" y="203.1" width="3.8" height="17.8" rx="0.9" fill="#DB5461" fill-opacity="0.2" stroke="#DB5461" stroke-width="0.2"/>
<rect x="653.099" y="97.1" width="3.8" height="123.8" rx="0.9" fill="#4E5353" fill-opacity="0.2" stroke="#4E5353" stroke-width="0.2"/>
<rect x="626.099" y="143.1" width="3.8" height="77.8" rx="0.9" fill="#21BA30" fill-opacity="0.2" stroke="#21BA30" stroke-width="0.2"/>
<rect x="814.1" y="42.1" width="3.8" height="178.8" rx="0.9" fill="#0081C2" fill-opacity="0.2" stroke="#0081C2" stroke-width="0.2"/>
<rect x="823.099" y="203.1" width="3.8" height="17.8" rx="0.9" fill="#DB5461" fill-opacity="0.2" stroke="#DB5461" stroke-width="0.2"/>
<rect x="832.1" y="97.1" width="3.8" height="123.8" rx="0.9" fill="#4E5353" fill-opacity="0.2" stroke="#4E5353" stroke-width="0.2"/>
<rect x="805.099" y="143.1" width="3.8" height="77.8" rx="0.9" fill="#21BA30" fill-opacity="0.2" stroke="#21BA30" stroke-width="0.2"/>
<rect x="993.1" y="42.1" width="3.8" height="178.8" rx="0.9" fill="#0081C2" fill-opacity="0.2" stroke="#0081C2" stroke-width="0.2"/>
<rect x="1002.1" y="203.1" width="3.8" height="17.8" rx="0.9" fill="#DB5461" fill-opacity="0.2" stroke="#DB5461" stroke-width="0.2"/>
<rect x="1011.1" y="125.1" width="3.8" height="95.8" rx="0.9" fill="#4E5353" fill-opacity="0.2" stroke="#4E5353" stroke-width="0.2"/>
<rect x="984.099" y="143.1" width="3.8" height="77.8" rx="0.9" fill="#21BA30" fill-opacity="0.2" stroke="#21BA30" stroke-width="0.2"/>
<rect x="1172.1" y="42.1" width="3.8" height="178.8" rx="0.9" fill="#0081C2" fill-opacity="0.2" stroke="#0081C2" stroke-width="0.2"/>
<rect x="1181.1" y="203.1" width="3.8" height="17.8" rx="0.9" fill="#DB5461" fill-opacity="0.2" stroke="#DB5461" stroke-width="0.2"/>
<rect x="1190.1" y="82.1" width="3.8" height="138.8" rx="0.9" fill="#4E5353" fill-opacity="0.2" stroke="#4E5353" stroke-width="0.2"/>
<rect x="1163.1" y="143.1" width="3.8" height="77.8" rx="0.9" fill="#21BA30" fill-opacity="0.2" stroke="#21BA30" stroke-width="0.2"/>
</svg>
