<svg width="74" height="49" viewBox="0 0 74 49" fill="none" xmlns="http://www.w3.org/2000/svg">
<path d="M59.3127 9.36475H70.5459C71.5997 9.36475 72.4567 10.2218 72.4567 11.2756V42.4951C72.4567 45.0382 70.3913 47.1035 67.8482 47.1035H59.3127V9.36475Z" fill="#B8D4FF"/>
<path d="M71.8105 35.8632V22.1011V15.2165V11.7743V11.3456C71.8105 11.2122 71.8035 11.1841 71.7894 11.0998C71.7543 10.9593 71.6911 10.8259 71.5998 10.7135C71.5014 10.6011 71.382 10.5097 71.2485 10.4535C71.1783 10.4325 71.115 10.4043 71.0377 10.3973C70.9605 10.3832 70.9183 10.3832 70.7427 10.3832L56.9806 10.3973C54.6834 10.4465 52.3932 10.3692 50.096 10.2779C47.7988 10.2006 45.5086 10.0742 43.2114 9.91962C42.9866 9.90557 42.811 9.70886 42.825 9.47703C42.8391 9.26628 43.0077 9.10467 43.2114 9.09062C45.5086 8.93607 47.7988 8.80961 50.096 8.73233C52.3932 8.64101 54.6834 8.56379 56.9806 8.61296L70.7427 8.62694C70.8551 8.62694 71.101 8.61995 71.3047 8.6621C71.5155 8.6902 71.7262 8.75343 71.9229 8.83773C72.3163 9.00633 72.6676 9.26623 72.9416 9.59641C73.2155 9.92659 73.4052 10.32 73.4965 10.7415C73.5387 10.9382 73.5527 11.1911 73.5527 11.3456V11.7743V15.2165V22.1011V35.8632C73.5527 36.348 73.1593 36.7414 72.6746 36.7414C72.1899 36.7414 71.8105 36.348 71.8105 35.8632Z" fill="#717791"/>
<path d="M72.9833 0.38623C72.9622 0.681284 72.9481 0.969313 72.9341 1.26437L72.9833 0.38623Z" fill="#93B9F4"/>
<path d="M62.3547 11.9704L62.8956 41.3283L62.8324 43.6466L63.0361 44.6371L65.3825 47.2785H0.955398L0.618164 9.35711C0.618164 7.37604 2.24799 5.7673 4.26419 5.7673H7.72052V1.1167H26.4354V5.7673H58.1466C60.7319 5.7673 62.3968 5.60574 62.5654 10.9589C62.5865 11.7878 62.3547 11.0993 62.3547 11.9704Z" fill="white"/>
<path d="M0.344223 46.225C-0.112408 36.6358 0.0281004 27.0466 0 17.4573V10.2636V8.46518V8.23338L0.0140639 7.92424C0.0351392 7.72051 0.0772777 7.51679 0.133478 7.32009C0.252905 6.92668 0.442581 6.5544 0.702509 6.23125C1.20832 5.58494 1.96705 5.1423 2.78898 5.02287C2.97866 4.98774 3.23157 4.9878 3.36505 4.9878H3.81462H4.71385H6.51227H6.73708C6.82138 4.9878 6.76519 4.9878 6.78626 4.9878H6.79329L6.80028 4.98076C6.80028 4.98076 6.80028 4.98778 6.80028 4.97373V4.86131V3.06293V2.61331V2.38143C6.80731 2.262 6.80733 2.14258 6.82841 2.03018C6.89866 1.55949 7.12347 1.11697 7.44662 0.765711C7.76977 0.421481 8.19829 0.168578 8.66195 0.0632018C8.77435 0.0351014 8.89378 0.0210821 9.0132 0.00703195L9.18883 0H9.30824H9.75786H11.5563H15.1531L22.3468 0.00703195L24.1452 0.0139781H24.5948C24.7564 0.0139781 24.8548 0.00696678 25.1288 0.028042C25.5994 0.0772177 26.0561 0.266902 26.4144 0.561956C26.7726 0.864035 27.0466 1.26448 27.1801 1.72111C27.2503 1.94592 27.2784 2.18475 27.2784 2.40956V2.85917L27.2714 4.65764V4.9878C27.2714 4.99482 27.2714 5.00187 27.2784 5.00889C27.2855 5.01592 27.2925 5.02287 27.2995 5.02287L27.3065 5.0299C27.3276 5.0299 27.2714 5.0299 27.3838 5.0299L29.1823 5.03693L32.7791 5.051L39.9728 5.07209L54.3531 5.12123L57.95 5.1353L59.7484 5.14233C59.91 5.14233 60.0154 5.13531 60.2261 5.14936C60.4228 5.15638 60.6195 5.18447 60.8092 5.22663C61.1956 5.31795 61.5538 5.4866 61.877 5.7114C62.5163 6.16101 62.9729 6.86351 63.1064 7.63627C63.1345 7.82595 63.1556 8.02261 63.1556 8.21229C63.1556 8.38792 63.1485 8.52142 63.1415 8.67597L63.0923 9.5752L62.994 11.3736C62.9659 11.9707 62.9238 12.5749 62.7762 13.172C62.7341 13.3336 62.5725 13.439 62.4039 13.3968C62.2915 13.3687 62.2072 13.2774 62.1791 13.172C62.0316 12.5749 61.9894 11.9707 61.9613 11.3736L61.8629 9.5752L61.8138 8.67597L61.7927 8.24042C61.7857 8.13504 61.7646 8.02961 61.7435 7.92424C61.6311 7.51678 61.3782 7.15152 61.034 6.9197C60.8584 6.80027 60.6687 6.72302 60.465 6.68087C60.3666 6.65979 60.2612 6.6457 60.1558 6.63868C60.0645 6.63165 59.8749 6.63868 59.7344 6.63868L57.9359 6.64571L54.3391 6.65977L39.9587 6.70891L32.765 6.73L29.1682 6.74407L27.3698 6.7511C27.3276 6.7511 27.1239 6.75107 26.9974 6.72297C26.8569 6.69487 26.7094 6.65268 26.583 6.59648C26.316 6.47706 26.0842 6.28745 25.9085 6.05562C25.7329 5.8238 25.6135 5.54278 25.5784 5.25475C25.5643 5.1845 25.5643 5.10718 25.5573 5.03693V4.91053V4.68568L25.5502 2.8873V2.43769C25.5432 2.36743 25.5362 2.30419 25.5222 2.24096C25.487 2.12154 25.4098 2.00917 25.3044 1.92487C25.199 1.84759 25.0796 1.79836 24.9531 1.78431H24.1382L22.3398 1.79135L15.1461 1.79838H11.5492H9.75083H9.30121H9.19586H9.14668C9.11858 1.79838 9.08345 1.80542 9.05535 1.81244C8.93592 1.84054 8.82351 1.90378 8.73921 1.9951C8.65491 2.08643 8.5917 2.20583 8.57765 2.32526C8.57063 2.35336 8.57062 2.38849 8.57062 2.41659V2.63441V3.08394V4.8824V4.99483C8.57062 5.05805 8.56358 5.14231 8.55655 5.21256C8.53548 5.36009 8.5074 5.50761 8.4512 5.64811C8.34583 5.92912 8.16319 6.17501 7.93839 6.36469C7.71358 6.55436 7.43258 6.68787 7.14455 6.7511C7.0181 6.7792 6.80734 6.78617 6.74411 6.78617H6.5193H4.72088H3.82165H3.37208C3.20348 6.78617 3.16132 6.7862 3.05594 6.80727C2.68361 6.85645 2.33935 7.0602 2.1005 7.36228C1.98107 7.50981 1.89677 7.67838 1.84057 7.86103C1.81247 7.95236 1.79845 8.0437 1.7844 8.13502L1.77737 8.27549V8.49331V10.2917V17.4854C1.74927 27.0746 1.88978 36.6639 1.43315 46.2532C1.4191 46.5482 1.16616 46.78 0.871104 46.766C0.576051 46.7238 0.358273 46.499 0.344223 46.225Z" fill="#717791"/>
<path d="M63.3874 19.0593V31.4023V37.5774V40.6614C63.3874 41.1602 63.3733 41.7363 63.4084 42.1297C63.4576 42.5582 63.5419 42.9797 63.7035 43.3801C64.3287 44.9889 65.9656 46.148 67.6938 46.1691C68.5578 46.2042 69.4149 45.9724 70.1455 45.5227C70.5108 45.2979 70.848 45.017 71.129 44.7009C71.2063 44.6236 71.2695 44.5392 71.3398 44.4549C71.3749 44.4198 71.41 44.3496 71.4592 44.2583C71.5505 44.0827 71.6348 43.8789 71.698 43.6892C71.7613 43.4995 71.7964 43.3028 71.8034 43.1623V42.4528V40.9073V37.8162V31.6271C71.8034 31.1424 72.1968 30.749 72.6816 30.749C73.1663 30.749 73.5597 31.1424 73.5597 31.6271V37.7881V40.8651V42.4036V43.2396C73.5386 43.6119 73.4684 43.921 73.37 44.2231C73.2787 44.5182 73.1592 44.7921 73.0117 45.0731C72.9415 45.2066 72.8502 45.3682 72.7237 45.5298C72.6254 45.6422 72.5411 45.7616 72.4357 45.874C72.0353 46.3236 71.5716 46.71 71.0588 47.0191C70.0401 47.6514 68.8248 47.9745 67.6375 47.9254C65.2209 47.8902 62.9448 46.2815 62.0737 44.0334C61.8419 43.4784 61.7224 42.8813 61.6592 42.2912C61.617 41.659 61.6381 41.2023 61.6311 40.6684V37.5844V31.4023V19.0593C61.6311 18.5746 62.0245 18.1812 62.5092 18.1812C62.994 18.1812 63.3874 18.5746 63.3874 19.0593Z" fill="#717791"/>
<path d="M19.1924 47.6789C17.956 47.981 16.7196 48.0512 15.4832 48.0582C14.2468 48.0442 13.0104 48.0372 11.7739 47.995C10.5375 47.9669 9.30113 47.9178 8.06471 47.8475C6.8283 47.7843 5.59186 47.693 4.35545 47.5806C4.13064 47.5595 3.96905 47.3628 3.99013 47.138C4.0112 46.9413 4.16577 46.7937 4.35545 46.7727C5.59186 46.6603 6.8283 46.5689 8.06471 46.5057C9.30113 46.4425 10.5375 46.3933 11.7739 46.3582C13.0104 46.3161 14.2468 46.309 15.4832 46.2949C16.7196 46.3019 17.956 46.3722 19.1924 46.6743C19.4664 46.7446 19.635 47.0185 19.5648 47.2925C19.5156 47.4962 19.3681 47.6368 19.1924 47.6789Z" fill="#717791"/>
<path d="M67.4269 47.8268C65.6144 48.0235 63.7949 48.0586 61.9824 48.0657L56.538 48.0938L45.6491 48.1429L34.7602 48.0938C31.1282 48.0376 27.5033 48.157 23.8713 47.6301C23.6254 47.595 23.4568 47.3632 23.4919 47.1173C23.52 46.9136 23.6816 46.766 23.8713 46.7379C27.5033 46.204 31.1282 46.3305 34.7602 46.2743L45.6491 46.2251L56.538 46.2743L61.9824 46.3024C63.7949 46.3094 65.6144 46.3446 67.4269 46.5413C67.7781 46.5834 68.0381 46.8996 67.9959 47.2508C67.9678 47.5599 67.7219 47.7917 67.4269 47.8268Z" fill="#717791"/>
<path d="M39.1506 20.499L39.1857 32.7859C39.1857 33.369 38.6096 33.8397 37.9071 33.8397H14.5908C13.8813 33.8397 13.3123 33.369 13.3123 32.7859V21.5528C13.3123 20.9697 13.8883 20.499 14.5908 20.499H29.0203" fill="white"/>
<path d="M39.6635 20.4992C39.9023 23.2812 40.0288 26.0631 40.0569 28.845L40.0639 30.9315V31.9782V32.4981V32.7581C40.0639 32.8845 40.0498 33.0952 40.0007 33.2498C39.804 33.9312 39.2841 34.3597 38.7713 34.5564C38.5114 34.6618 38.2374 34.711 37.9634 34.718H37.4225H35.336H18.6444L14.4012 34.711C13.8603 34.6688 13.3054 34.4441 12.8909 33.9734C12.6871 33.7416 12.5185 33.4254 12.4623 33.0812C12.4412 32.9969 12.4412 32.9056 12.4342 32.8213V32.6738V32.4138V30.3273V21.9815V21.7216C12.4342 21.6303 12.4272 21.5741 12.4483 21.3633C12.4834 21.012 12.638 20.6889 12.8276 20.4431C13.2281 19.9443 13.783 19.7054 14.3169 19.6422C14.6331 19.6141 14.7525 19.6281 14.9352 19.6281H15.455H16.5017L20.6746 19.6211C22.0656 19.6281 23.4566 19.6282 24.8475 19.6633C26.2385 19.6984 27.6295 19.6703 29.0205 20.0005C29.2944 20.0637 29.4701 20.3447 29.4069 20.6187C29.3577 20.8154 29.2101 20.9558 29.0205 21.005C27.6295 21.3352 26.2385 21.3072 24.8475 21.3423C23.4566 21.3774 22.0656 21.3844 20.6746 21.3844L16.5017 21.3774L14.5137 21.3844C14.3661 21.3984 14.2397 21.4757 14.2046 21.5249L14.1905 21.553V21.9815V30.3273V32.4138V32.6738V32.7861C14.1905 32.7861 14.1905 32.7932 14.2116 32.8213C14.2537 32.8775 14.3872 32.9547 14.5347 32.9617H18.6374H35.329H37.4154H37.9142C37.9915 32.9617 38.0618 32.9477 38.125 32.9196C38.2514 32.8705 38.3076 32.7861 38.3006 32.7861L38.2865 28.8521C38.3076 26.0701 38.413 23.2882 38.6378 20.5063C38.6589 20.2253 38.9118 20.0145 39.1928 20.0356C39.4527 20.0496 39.6494 20.2534 39.6635 20.4992Z" fill="#A3ACD6"/>
<path d="M18.9395 28.3321C20.1478 28.0441 21.3561 28.002 22.5574 28.016L26.1823 28.0792C27.3906 28.1003 28.5989 28.1705 29.8073 28.2127C31.0156 28.2618 32.2239 28.3392 33.4322 28.4375C33.6851 28.4586 33.8678 28.6763 33.8467 28.9222C33.8256 29.147 33.65 29.3227 33.4322 29.3367C32.2239 29.4351 31.0156 29.5123 29.8073 29.5615C28.5989 29.6037 27.3906 29.6739 26.1823 29.6949L22.5574 29.7582C21.3491 29.7723 20.1408 29.7301 18.9395 29.442C18.6304 29.3718 18.4407 29.0627 18.5109 28.7536C18.5601 28.5358 18.7357 28.3743 18.9395 28.3321Z" fill="#A3ACD6"/>
<path d="M18.9396 25.4167C20.6748 25.2271 22.403 25.1146 24.1382 25.0374C25.0023 24.9952 25.8733 24.9741 26.7374 24.9531C27.6015 24.9179 28.4726 24.932 29.3367 25.2271C29.6669 25.3395 29.8425 25.6907 29.7301 26.0209C29.6669 26.2106 29.5123 26.3511 29.3367 26.4143C28.4726 26.7094 27.6015 26.7164 26.7374 26.6883C25.8733 26.6673 25.0023 26.6462 24.1382 26.604C22.403 26.5338 20.6748 26.4143 18.9396 26.2246C18.7148 26.2036 18.5532 25.9998 18.5813 25.775C18.5954 25.5854 18.7499 25.4378 18.9396 25.4167Z" fill="#A3ACD6"/>
<path d="M31.0649 25.4167C31.4091 25.2271 31.7463 25.1146 32.0905 25.0374C32.2591 24.9952 32.4348 24.9741 32.6034 24.9531C32.772 24.9179 32.9476 24.932 33.1162 25.2271C33.341 25.6064 33.3199 26.0631 33.1162 26.4143C32.9476 26.7094 32.772 26.7164 32.6034 26.6883C32.4348 26.6673 32.2591 26.6462 32.0905 26.604C31.7463 26.5338 31.4091 26.4143 31.0649 26.2246C30.8401 26.0982 30.7557 25.8172 30.8822 25.5994C30.9243 25.5151 30.9876 25.4589 31.0649 25.4167Z" fill="#A3ACD6"/>
</svg>
