<svg width="260" height="260" viewBox="0 0 260 260" fill="none" xmlns="http://www.w3.org/2000/svg">
<circle cx="130" cy="130" r="129.9" fill="#0081C2" fill-opacity="0.1" stroke="#0081C2" stroke-width="0.2"/>
<mask id="path-2-inside-1" fill="white">
<path d="M139.439 0.34315C122.413 -0.896442 105.308 1.22978 89.1033 6.60041C72.8982 11.971 57.9097 20.4809 44.9934 31.6441C32.0771 42.8074 21.4861 56.4053 13.825 71.6617C6.16387 86.918 1.58274 103.534 0.343149 120.561C-0.896442 137.587 1.22978 154.692 6.60041 170.897C11.971 187.102 20.4809 202.09 31.6441 215.007C42.8074 227.923 56.4053 238.514 71.6617 246.175C86.918 253.836 103.534 258.417 120.561 259.657L124.168 210.106C113.648 209.34 103.383 206.51 93.9567 201.777C84.5308 197.043 76.1296 190.5 69.2326 182.52C62.3356 174.54 57.0779 165.279 53.7598 155.267C50.4416 145.255 49.1279 134.688 49.8938 124.168C50.6597 113.648 53.49 103.383 58.2233 93.9567C62.9566 84.5308 69.5001 76.1296 77.4802 69.2326C85.4603 62.3356 94.7207 57.0779 104.733 53.7597C114.745 50.4416 125.312 49.1279 135.832 49.8938L139.439 0.34315Z"/>
</mask>
<path d="M139.439 0.34315C122.413 -0.896442 105.308 1.22978 89.1033 6.60041C72.8982 11.971 57.9097 20.4809 44.9934 31.6441C32.0771 42.8074 21.4861 56.4053 13.825 71.6617C6.16387 86.918 1.58274 103.534 0.343149 120.561C-0.896442 137.587 1.22978 154.692 6.60041 170.897C11.971 187.102 20.4809 202.09 31.6441 215.007C42.8074 227.923 56.4053 238.514 71.6617 246.175C86.918 253.836 103.534 258.417 120.561 259.657L124.168 210.106C113.648 209.34 103.383 206.51 93.9567 201.777C84.5308 197.043 76.1296 190.5 69.2326 182.52C62.3356 174.54 57.0779 165.279 53.7598 155.267C50.4416 145.255 49.1279 134.688 49.8938 124.168C50.6597 113.648 53.49 103.383 58.2233 93.9567C62.9566 84.5308 69.5001 76.1296 77.4802 69.2326C85.4603 62.3356 94.7207 57.0779 104.733 53.7597C114.745 50.4416 125.312 49.1279 135.832 49.8938L139.439 0.34315Z" fill="#DB5461" fill-opacity="0.1" stroke="#DB5461" stroke-width="0.4" mask="url(#path-2-inside-1)"/>
<circle cx="130" cy="130" r="80" fill="white"/>
</svg>
