<svg width="144" height="30" viewBox="0 0 144 30" fill="none" xmlns="http://www.w3.org/2000/svg">
<path d="M39.4844 22V7.99609H43.9961C44.9987 7.99609 45.9329 8.17513 46.7988 8.5332C47.6517 8.88477 48.3809 9.36979 48.9863 9.98828C49.5918 10.6068 50.0671 11.3424 50.4121 12.1953C50.7507 13.0352 50.9199 13.9694 50.9199 14.998C50.9199 16.0267 50.7507 16.9609 50.4121 17.8008C50.0671 18.6536 49.5918 19.3893 48.9863 20.0078C48.3678 20.6393 47.6387 21.1276 46.7988 21.4727C45.946 21.8242 45.0117 22 43.9961 22H39.4844ZM41.877 19.7246H44.0352C44.7188 19.7246 45.334 19.5977 45.8809 19.3438C46.4082 19.1029 46.8737 18.7578 47.2773 18.3086C47.6615 17.8854 47.9577 17.3874 48.166 16.8145C48.3743 16.2415 48.4785 15.6361 48.4785 14.998C48.4785 14.373 48.3743 13.7676 48.166 13.1816C47.9577 12.6022 47.6615 12.1009 47.2773 11.6777C46.8932 11.2546 46.4277 10.916 45.8809 10.6621C45.334 10.4082 44.7188 10.2812 44.0352 10.2812H41.877V19.7246ZM52.6289 20.418C52.4466 20.0339 52.3555 19.6009 52.3555 19.1191C52.3555 18.6374 52.4531 18.2012 52.6484 17.8105C52.8503 17.4134 53.1139 17.0781 53.4395 16.8047C53.7715 16.5247 54.1719 16.3066 54.6406 16.1504C55.0964 15.9941 55.5944 15.916 56.1348 15.916C56.571 15.916 57.0234 15.9746 57.4922 16.0918C57.974 16.2155 58.3809 16.3848 58.7129 16.5996V16.0625C58.7129 15.7435 58.6478 15.4831 58.5176 15.2812C58.3874 15.0794 58.2181 14.9102 58.0098 14.7734C57.8014 14.6367 57.5801 14.5456 57.3457 14.5C57.0853 14.4479 56.8477 14.4219 56.6328 14.4219C56.3008 14.4219 55.8939 14.474 55.4121 14.5781C54.8978 14.6888 54.3704 14.8678 53.8301 15.1152L53.0586 13.1426C53.5599 12.9082 54.1296 12.7064 54.7676 12.5371C55.4056 12.3678 56.1022 12.2832 56.8574 12.2832C58.179 12.2832 59.2174 12.6022 59.9727 13.2402C60.7344 13.8848 61.1152 14.7441 61.1152 15.8184V22H58.8984V20.7988C58.599 21.209 58.1725 21.554 57.6191 21.834C57.0788 22.1074 56.4766 22.2441 55.8125 22.2441C55.3828 22.2441 54.9466 22.1725 54.5039 22.0293C54.0872 21.8926 53.7161 21.6875 53.3906 21.4141C53.0651 21.1406 52.8112 20.8086 52.6289 20.418ZM54.7969 19.0215C54.7969 19.2819 54.849 19.487 54.9531 19.6367C55.0638 19.7995 55.2005 19.9232 55.3633 20.0078C55.5456 20.1055 55.7279 20.1673 55.9102 20.1934C56.125 20.2259 56.3138 20.2422 56.4766 20.2422C57.0365 20.2422 57.4954 20.125 57.8535 19.8906C58.2051 19.6628 58.4915 19.4121 58.7129 19.1387V18.1621C58.3874 17.9928 58.0423 17.8724 57.6777 17.8008C57.2871 17.7227 56.9388 17.6836 56.6328 17.6836C56.4115 17.6836 56.1999 17.7064 55.998 17.752C55.7637 17.804 55.5651 17.8757 55.4023 17.9668C55.2266 18.0645 55.0801 18.2012 54.9629 18.377C54.8522 18.5397 54.7969 18.7546 54.7969 19.0215ZM62.7559 14.6758V12.5176H64.6211V9.69531H67.0137V12.5176H69.875V14.6758H67.0137V18.5039C67.0137 18.7904 67.0527 19.0312 67.1309 19.2266C67.2155 19.4349 67.3066 19.5879 67.4043 19.6855C67.5215 19.7962 67.6517 19.8776 67.7949 19.9297C67.9316 19.9753 68.0781 19.998 68.2344 19.998C68.4427 19.998 68.6315 19.9655 68.8008 19.9004C68.9701 19.8353 69.123 19.7539 69.2598 19.6562L70.1387 21.6191C69.8652 21.8014 69.5234 21.9512 69.1133 22.0684C68.7096 22.1855 68.2962 22.2441 67.873 22.2441C67.4238 22.2441 66.9909 22.1628 66.5742 22C66.1901 21.8503 65.8451 21.6224 65.5391 21.3164C65.2331 21.0104 65.0052 20.6589 64.8555 20.2617C64.6992 19.8516 64.6211 19.3926 64.6211 18.8848V14.6758H62.7559ZM71.6719 20.418C71.4896 20.0339 71.3984 19.6009 71.3984 19.1191C71.3984 18.6374 71.4961 18.2012 71.6914 17.8105C71.8932 17.4134 72.1569 17.0781 72.4824 16.8047C72.8145 16.5247 73.2148 16.3066 73.6836 16.1504C74.1393 15.9941 74.6374 15.916 75.1777 15.916C75.6139 15.916 76.0664 15.9746 76.5352 16.0918C77.0169 16.2155 77.4238 16.3848 77.7559 16.5996V16.0625C77.7559 15.7435 77.6908 15.4831 77.5605 15.2812C77.4303 15.0794 77.2611 14.9102 77.0527 14.7734C76.8444 14.6367 76.623 14.5456 76.3887 14.5C76.1283 14.4479 75.8906 14.4219 75.6758 14.4219C75.3438 14.4219 74.9368 14.474 74.4551 14.5781C73.9408 14.6888 73.4134 14.8678 72.873 15.1152L72.1016 13.1426C72.6029 12.9082 73.1725 12.7064 73.8105 12.5371C74.4486 12.3678 75.1452 12.2832 75.9004 12.2832C77.222 12.2832 78.2604 12.6022 79.0156 13.2402C79.7773 13.8848 80.1582 14.7441 80.1582 15.8184V22H77.9414V20.7988C77.6419 21.209 77.2155 21.554 76.6621 21.834C76.1217 22.1074 75.5195 22.2441 74.8555 22.2441C74.4258 22.2441 73.9896 22.1725 73.5469 22.0293C73.1302 21.8926 72.7591 21.6875 72.4336 21.4141C72.1081 21.1406 71.8542 20.8086 71.6719 20.418ZM73.8398 19.0215C73.8398 19.2819 73.8919 19.487 73.9961 19.6367C74.1068 19.7995 74.2435 19.9232 74.4062 20.0078C74.5885 20.1055 74.7708 20.1673 74.9531 20.1934C75.168 20.2259 75.3568 20.2422 75.5195 20.2422C76.0794 20.2422 76.5384 20.125 76.8965 19.8906C77.248 19.6628 77.5345 19.4121 77.7559 19.1387V18.1621C77.4303 17.9928 77.0853 17.8724 76.7207 17.8008C76.3301 17.7227 75.9818 17.6836 75.6758 17.6836C75.4544 17.6836 75.2428 17.7064 75.041 17.752C74.8066 17.804 74.6081 17.8757 74.4453 17.9668C74.2695 18.0645 74.123 18.2012 74.0059 18.377C73.8952 18.5397 73.8398 18.7546 73.8398 19.0215ZM82.8438 22V7.99609H87.375C87.9349 7.99609 88.4883 8.07096 89.0352 8.2207C89.569 8.36393 90.0443 8.59505 90.4609 8.91406C90.8711 9.22656 91.2031 9.62044 91.457 10.0957C91.7109 10.571 91.8379 11.1471 91.8379 11.8242C91.8379 12.2995 91.7793 12.7031 91.6621 13.0352C91.5449 13.3607 91.4017 13.6341 91.2324 13.8555C91.0697 14.0638 90.9069 14.2298 90.7441 14.3535C90.627 14.4382 90.5065 14.513 90.3828 14.5781C90.4154 14.5846 90.5586 14.6465 90.8125 14.7637C91.0339 14.8678 91.278 15.0469 91.5449 15.3008C91.8118 15.5547 92.0462 15.8867 92.248 16.2969C92.4564 16.7135 92.5605 17.2279 92.5605 17.8398C92.5605 18.4714 92.4401 19.041 92.1992 19.5488C91.9583 20.0632 91.6296 20.4993 91.2129 20.8574C90.7897 21.222 90.2917 21.502 89.7188 21.6973C89.1263 21.8991 88.5143 22 87.8828 22H82.8438ZM85.2363 19.7246H87.7949C88.446 19.7246 88.9993 19.5781 89.4551 19.2852C89.8978 18.9987 90.1191 18.5234 90.1191 17.8594C90.1191 17.1953 89.8978 16.7201 89.4551 16.4336C89.0124 16.1471 88.459 16.0039 87.7949 16.0039H85.2363V19.7246ZM85.2363 13.7188H87.2969C87.9674 13.7188 88.485 13.5885 88.8496 13.3281C89.2142 13.0677 89.3965 12.638 89.3965 12.0391C89.3965 11.3945 89.1979 10.9421 88.8008 10.6816C88.3971 10.4147 87.8958 10.2812 87.2969 10.2812H85.2363V13.7188ZM93.7129 17.2246C93.7129 16.528 93.8333 15.8867 94.0742 15.3008C94.3216 14.7018 94.6536 14.1777 95.0703 13.7285C95.474 13.2923 95.9753 12.9408 96.5742 12.6738C97.1536 12.4134 97.7884 12.2832 98.4785 12.2832C99.1426 12.2832 99.7578 12.4036 100.324 12.6445C100.923 12.8984 101.431 13.2337 101.848 13.6504C102.271 14.0736 102.613 14.5944 102.873 15.2129C103.127 15.8184 103.254 16.4889 103.254 17.2246V17.5957C103.254 17.6999 103.247 17.8757 103.234 18.123H96.1543C96.1999 18.3249 96.2975 18.5495 96.4473 18.7969C96.597 19.0378 96.7826 19.2428 97.0039 19.4121C97.2513 19.6009 97.5215 19.7507 97.8145 19.8613C98.1139 19.9785 98.4622 20.0371 98.8594 20.0371C99.2695 20.0371 99.7025 19.9655 100.158 19.8223C100.614 19.679 101.034 19.4316 101.418 19.0801L102.619 20.877C102.215 21.209 101.695 21.5182 101.057 21.8047C100.406 22.0977 99.6602 22.2441 98.8203 22.2441C98.0911 22.2441 97.4206 22.1172 96.8086 21.8633C96.1966 21.6094 95.6562 21.2546 95.1875 20.7988C94.7318 20.3496 94.3704 19.8158 94.1035 19.1973C93.8431 18.5918 93.7129 17.9342 93.7129 17.2246ZM96.1543 16.3848H100.852C100.839 16.1895 100.783 15.9746 100.686 15.7402C100.588 15.5124 100.441 15.3008 100.246 15.1055C100.051 14.9102 99.8066 14.7539 99.5137 14.6367C99.2207 14.5195 98.8757 14.4609 98.4785 14.4609C98.0944 14.4609 97.7591 14.5195 97.4727 14.6367C97.2122 14.7474 96.9779 14.9004 96.7695 15.0957C96.5807 15.278 96.4342 15.4863 96.3301 15.7207C96.2194 15.9681 96.1608 16.1895 96.1543 16.3848ZM104.855 20.418C104.673 20.0339 104.582 19.6009 104.582 19.1191C104.582 18.6374 104.68 18.2012 104.875 17.8105C105.077 17.4134 105.34 17.0781 105.666 16.8047C105.998 16.5247 106.398 16.3066 106.867 16.1504C107.323 15.9941 107.821 15.916 108.361 15.916C108.798 15.916 109.25 15.9746 109.719 16.0918C110.201 16.2155 110.607 16.3848 110.939 16.5996V16.0625C110.939 15.7435 110.874 15.4831 110.744 15.2812C110.614 15.0794 110.445 14.9102 110.236 14.7734C110.028 14.6367 109.807 14.5456 109.572 14.5C109.312 14.4479 109.074 14.4219 108.859 14.4219C108.527 14.4219 108.12 14.474 107.639 14.5781C107.124 14.6888 106.597 14.8678 106.057 15.1152L105.285 13.1426C105.786 12.9082 106.356 12.7064 106.994 12.5371C107.632 12.3678 108.329 12.2832 109.084 12.2832C110.406 12.2832 111.444 12.6022 112.199 13.2402C112.961 13.8848 113.342 14.7441 113.342 15.8184V22H111.125V20.7988C110.826 21.209 110.399 21.554 109.846 21.834C109.305 22.1074 108.703 22.2441 108.039 22.2441C107.609 22.2441 107.173 22.1725 106.73 22.0293C106.314 21.8926 105.943 21.6875 105.617 21.4141C105.292 21.1406 105.038 20.8086 104.855 20.418ZM107.023 19.0215C107.023 19.2819 107.076 19.487 107.18 19.6367C107.29 19.7995 107.427 19.9232 107.59 20.0078C107.772 20.1055 107.954 20.1673 108.137 20.1934C108.352 20.2259 108.54 20.2422 108.703 20.2422C109.263 20.2422 109.722 20.125 110.08 19.8906C110.432 19.6628 110.718 19.4121 110.939 19.1387V18.1621C110.614 17.9928 110.269 17.8724 109.904 17.8008C109.514 17.7227 109.165 17.6836 108.859 17.6836C108.638 17.6836 108.426 17.7064 108.225 17.752C107.99 17.804 107.792 17.8757 107.629 17.9668C107.453 18.0645 107.307 18.2012 107.189 18.377C107.079 18.5397 107.023 18.7546 107.023 19.0215ZM114.582 12.5176H117.238L119.641 17.6836L122.043 12.5176H124.621L119.602 22.4785L114.582 12.5176ZM125.217 17.2246C125.217 16.528 125.337 15.8867 125.578 15.3008C125.826 14.7018 126.158 14.1777 126.574 13.7285C126.978 13.2923 127.479 12.9408 128.078 12.6738C128.658 12.4134 129.292 12.2832 129.982 12.2832C130.646 12.2832 131.262 12.4036 131.828 12.6445C132.427 12.8984 132.935 13.2337 133.352 13.6504C133.775 14.0736 134.117 14.5944 134.377 15.2129C134.631 15.8184 134.758 16.4889 134.758 17.2246V17.5957C134.758 17.6999 134.751 17.8757 134.738 18.123H127.658C127.704 18.3249 127.801 18.5495 127.951 18.7969C128.101 19.0378 128.286 19.2428 128.508 19.4121C128.755 19.6009 129.025 19.7507 129.318 19.8613C129.618 19.9785 129.966 20.0371 130.363 20.0371C130.773 20.0371 131.206 19.9655 131.662 19.8223C132.118 19.679 132.538 19.4316 132.922 19.0801L134.123 20.877C133.719 21.209 133.199 21.5182 132.561 21.8047C131.91 22.0977 131.164 22.2441 130.324 22.2441C129.595 22.2441 128.924 22.1172 128.312 21.8633C127.701 21.6094 127.16 21.2546 126.691 20.7988C126.236 20.3496 125.874 19.8158 125.607 19.1973C125.347 18.5918 125.217 17.9342 125.217 17.2246ZM127.658 16.3848H132.355C132.342 16.1895 132.287 15.9746 132.189 15.7402C132.092 15.5124 131.945 15.3008 131.75 15.1055C131.555 14.9102 131.311 14.7539 131.018 14.6367C130.725 14.5195 130.38 14.4609 129.982 14.4609C129.598 14.4609 129.263 14.5195 128.977 14.6367C128.716 14.7474 128.482 14.9004 128.273 15.0957C128.085 15.278 127.938 15.4863 127.834 15.7207C127.723 15.9681 127.665 16.1895 127.658 16.3848ZM136.525 22V12.5176H138.801V13.9043C139.029 13.4941 139.364 13.1198 139.807 12.7812C140.249 12.4492 140.79 12.2832 141.428 12.2832C141.662 12.2832 141.913 12.306 142.18 12.3516C142.486 12.4036 142.766 12.4785 143.02 12.5762L142.18 14.7441C142.03 14.666 141.867 14.6107 141.691 14.5781C141.496 14.5391 141.294 14.5195 141.086 14.5195C140.526 14.5195 140.074 14.6562 139.729 14.9297C139.377 15.2096 139.11 15.4993 138.928 15.7988V22H136.525Z" fill="#161919"/>
<path d="M15 30C23.2843 30 30 23.2843 30 15C30 6.71573 23.2843 0 15 0C6.71573 0 0 6.71573 0 15C0 23.2843 6.71573 30 15 30Z" fill="#0081C2"/>
<path d="M8 8H14V22H9.87999C9.87999 22 8.0322 19.8126 8 14.9531V8Z" fill="white"/>
<path d="M21.9997 9H16V23H20.1197C20.1197 23 21.9678 20.8122 22 15.9531L21.9997 9Z" fill="white"/>
</svg>
