<svg width="11" height="16" viewBox="0 0 11 16" fill="none" xmlns="http://www.w3.org/2000/svg">
<g clip-path="url(#clip0)">
<path d="M6.99115 0.802812C6.99115 0.802812 7.42068 -1.21676 9.0316 1.15047C9.0316 1.15047 11.6235 4.02306 10.859 7.6336C10.6913 8.40884 10.4328 9.16091 10.0891 9.87352C9.51259 11.061 8.71333 12.122 7.73646 12.997L5.64283 14.9295C5.64283 14.9295 3.41998 16.4066 3.89194 14.5386C3.89194 14.5386 3.91528 13.7648 4.28616 13.6107C4.37341 13.565 4.44989 13.5005 4.51039 13.4218C4.57089 13.3432 4.61398 13.2521 4.6367 13.1549C4.65942 13.0577 4.66123 12.9566 4.64203 12.8587C4.62283 12.7607 4.58306 12.6681 4.52543 12.5872C4.52543 12.5872 4.3029 12.1464 4.93399 11.7561C5.01 11.7152 5.07644 11.658 5.12877 11.5885C5.1811 11.519 5.21811 11.4389 5.23724 11.3535C5.25638 11.2682 5.2572 11.1796 5.23965 11.0939C5.22211 11.0082 5.18661 10.9273 5.13558 10.8568C5.10547 10.674 5.13619 10.4861 5.22288 10.323C5.30956 10.1598 5.44726 10.0308 5.61414 9.95634C5.61414 9.95634 6.09566 9.88449 5.81571 9.05707C5.81571 9.05707 5.7559 8.53227 6.15668 8.4336C6.15668 8.4336 6.73453 8.34712 6.22129 7.67314C6.22129 7.67314 5.91562 7.20494 6.53354 6.85607C6.53354 6.85607 6.93253 6.75682 6.48749 6.01341C6.48749 6.01341 6.22427 5.69741 6.80033 5.33453C6.80033 5.33453 7.11617 5.2085 6.78238 4.54728C6.78238 4.54728 6.48928 3.89946 6.97023 3.6894C6.97023 3.6894 7.32913 3.43855 7.06174 2.84613C7.05755 2.84735 6.71897 1.35688 6.99115 0.802812Z" fill="#C4702E"/>
<path d="M5.98437 1.35154C5.98437 1.35154 6.40597 0.301862 5.52622 0.555024C4.64645 0.808189 2.95767 2.20938 2.95767 2.20938C2.95767 2.20938 0.323025 3.65793 0 8.04308C0 8.04308 0.0516143 12.5059 1.31704 14.3994L2.41891 15.9633C2.41891 15.9633 2.91418 16.222 3.05685 15.3562L3.43496 13.7425C3.46742 13.6464 3.52006 13.5592 3.58901 13.4872C3.65797 13.4152 3.74148 13.3603 3.83338 13.3267C3.83338 13.3267 4.18134 13.2144 3.80264 12.583C3.80264 12.583 3.6942 12.2254 4.15988 12.0166C4.22481 11.9963 4.28437 11.9606 4.33387 11.9121C4.4265 11.7775 4.47826 11.6167 4.4824 11.4508C4.48654 11.2849 4.44286 11.1216 4.35706 10.982C4.32625 10.7161 4.32197 10.4475 4.3443 10.1807C4.40481 9.50974 4.62405 8.86525 4.98224 8.30532C4.98224 8.30532 6.78004 5.15444 6.03772 3.57416C5.76354 2.86446 5.74459 2.07475 5.98437 1.35154Z" fill="#C4702E"/>
</g>
<defs>
<clipPath id="clip0">
<rect width="11" height="16" fill="white"/>
</clipPath>
</defs>
</svg>
