<svg width="1240" height="241" viewBox="0 0 1240 241" fill="none" xmlns="http://www.w3.org/2000/svg">
<rect x="271" y="42" width="29" height="179" fill="#E5E8ED"/>
<rect x="509" y="42" width="29" height="179" fill="#E5E8ED"/>
<rect x="751" y="42" width="29" height="179" fill="#E5E8ED"/>
<rect x="993" y="42" width="29" height="179" fill="#E5E8ED"/>
<path d="M43 221V0H44.1381V15.9057H283.254V0H284.392V15.9057H523.507V0H524.646V15.9057H763.761V0H764.899V15.9057H1004.01V0H1005.15V15.9057H1238.57V16.7425H1005.15V66.966H1238.57V0H1239.71V169.098H1240V169.935H1239.71V221H43ZM1238.57 220.163V169.94H1005.15V220.163H1238.57ZM1004.01 220.163V169.94H764.899V220.163H1004.01ZM763.753 220.163V169.94H524.646V220.163H763.753ZM523.499 220.163V169.94H284.392V220.163H523.499ZM283.246 220.163V169.94H44.4303V169.103H283.254V118.879H44.1381V220.163H283.246ZM1238.57 169.098V118.875H1005.15V169.098H1238.57ZM1004 169.098V118.875H764.899V169.098H1004ZM763.747 169.098V118.875H524.646V169.098H763.747ZM523.493 169.098V118.875H284.392V169.098H523.493ZM1238.56 118.033V67.8066H1005.15V118.03L1238.56 118.033ZM1003.99 118.033V67.8066H764.899V118.03L1003.99 118.033ZM763.741 118.033V67.8066H524.646V118.03L763.741 118.033ZM523.487 118.033V67.8066H284.392V118.03L523.487 118.033ZM283.233 118.033V67.8066H44.1381V118.03L283.233 118.033ZM1004.01 66.9699V16.7463H764.899V66.9699H1004.01ZM763.761 66.9699V16.7463H524.646V66.9699H763.761ZM523.507 66.9699V16.7463H284.392V66.9699H523.507ZM283.254 66.9699V16.7463H44.1381V66.9699H283.254Z" fill="#E5E8ED"/>
<path d="M54.6509 194.172C54.6509 194.172 64.6454 106.001 85.4346 106.001C106.224 106.001 109.261 130.504 128.855 130.504C148.45 130.504 144.611 77.6844 164.748 77.1153C184.886 76.5461 203.392 169.405 239.318 171.406C275.244 173.407 299.127 98.9841 314.765 98.9841C330.404 98.9841 334.298 126.789 350.37 126.789C366.442 126.789 366.245 71.9521 384.104 71.9521C401.964 71.9521 394.874 142.067 423.548 142.067C452.222 142.067 480.006 110.552 497.92 110.552C515.834 110.552 544.881 154.321 571.168 153.736C597.455 153.152 625.309 78.5047 649.338 78.5047C673.367 78.5047 729.942 153.573 757.668 153.736C785.393 153.899 780.725 109.945 798.936 109.945C817.147 109.945 815.297 151.106 831.827 151.133C848.358 151.16 855.37 120.288 869.701 119.922C884.032 119.557 917.468 193.833 941.656 194.172C965.843 194.51 960.261 158.557 978.96 147.977C997.659 137.397 1000.82 176.523 1019.23 168.101C1037.65 159.68 1034.47 128.762 1052.64 114.28C1070.81 99.798 1098.24 136.547 1126.39 136.547C1154.53 136.547 1164.16 92.0508 1164.16 92.0508" stroke="#0081C2" stroke-width="2"/>
<path d="M54.7883 165.22C54.7883 165.22 80.9165 142.454 101.706 142.454C122.495 142.454 109.398 101.551 128.993 101.551C148.588 101.551 169.538 77.6175 189.676 77.0484C209.813 76.4793 203.529 140.453 239.455 142.454C275.382 144.455 271.782 48 287.42 48C303.059 48 334.435 97.8367 350.507 97.8367C366.579 97.8367 366.002 156.5 383.862 156.5C401.721 156.5 395.011 113.114 423.685 113.114C452.359 113.114 480.143 81.6001 498.057 81.6001C515.972 81.6001 545.018 125.369 571.306 124.784C597.593 124.2 636.124 165.22 660.153 165.22C684.182 165.22 730.08 124.621 757.805 124.784C785.53 124.947 780.862 80.9925 799.073 80.9925C817.284 80.9925 815.434 122.154 831.965 122.181C848.495 122.208 884.97 77.4137 899.301 77.0484C913.632 76.6831 917.606 164.881 941.793 165.22C965.98 165.558 969.876 186.08 988.575 175.5C1007.27 164.92 1000.96 147.571 1019.37 139.149C1037.79 130.728 1051.86 91.5302 1070.03 77.0484C1088.2 62.5666 1099.23 139.149 1127.37 139.149C1155.52 139.149 1164.3 63.0986 1164.3 63.0986" stroke="#DB5461" stroke-width="2"/>
<path d="M231.91 230.92H234.4C234.853 230.92 235.227 230.983 235.52 231.11C235.813 231.23 236.043 231.387 236.21 231.58C236.383 231.767 236.503 231.98 236.57 232.22C236.637 232.453 236.67 232.68 236.67 232.9C236.67 233.12 236.637 233.35 236.57 233.59C236.503 233.823 236.383 234.037 236.21 234.23C236.043 234.417 235.813 234.573 235.52 234.7C235.227 234.82 234.853 234.88 234.4 234.88H232.87V238H231.91V230.92ZM232.87 234.04H234.13C234.317 234.04 234.5 234.027 234.68 234C234.867 233.967 235.03 233.91 235.17 233.83C235.317 233.75 235.433 233.637 235.52 233.49C235.607 233.337 235.65 233.14 235.65 232.9C235.65 232.66 235.607 232.467 235.52 232.32C235.433 232.167 235.317 232.05 235.17 231.97C235.03 231.89 234.867 231.837 234.68 231.81C234.5 231.777 234.317 231.76 234.13 231.76H232.87V234.04ZM239.316 230.92H240.186L243.216 238H242.096L241.386 236.25H238.016L237.316 238H236.196L239.316 230.92ZM241.036 235.41L239.716 232.16H239.696L238.356 235.41H241.036ZM244.699 231.82H242.419V230.92H247.939V231.82H245.659V238H244.699V231.82ZM248.961 230.92H253.531V231.82H249.921V233.93H253.281V234.83H249.921V237.1H253.711V238H248.961V230.92ZM255.074 230.92H256.034V233.98H256.114L259.244 230.92H260.584L257.164 234.19L260.814 238H259.414L256.114 234.46H256.034V238H255.074V230.92ZM264.342 230.92H265.302V233.86H268.972V230.92H269.932V238H268.972V234.76H265.302V238H264.342V230.92ZM275.004 238.18C274.464 238.18 273.967 238.087 273.514 237.9C273.06 237.707 272.67 237.443 272.344 237.11C272.024 236.777 271.77 236.383 271.584 235.93C271.404 235.477 271.314 234.987 271.314 234.46C271.314 233.933 271.404 233.443 271.584 232.99C271.77 232.537 272.024 232.143 272.344 231.81C272.67 231.477 273.06 231.217 273.514 231.03C273.967 230.837 274.464 230.74 275.004 230.74C275.544 230.74 276.04 230.837 276.494 231.03C276.947 231.217 277.334 231.477 277.654 231.81C277.98 232.143 278.234 232.537 278.414 232.99C278.6 233.443 278.694 233.933 278.694 234.46C278.694 234.987 278.6 235.477 278.414 235.93C278.234 236.383 277.98 236.777 277.654 237.11C277.334 237.443 276.947 237.707 276.494 237.9C276.04 238.087 275.544 238.18 275.004 238.18ZM275.004 237.28C275.41 237.28 275.777 237.207 276.104 237.06C276.43 236.907 276.71 236.703 276.944 236.45C277.177 236.197 277.357 235.9 277.484 235.56C277.61 235.213 277.674 234.847 277.674 234.46C277.674 234.073 277.61 233.71 277.484 233.37C277.357 233.023 277.177 232.723 276.944 232.47C276.71 232.217 276.43 232.017 276.104 231.87C275.777 231.717 275.41 231.64 275.004 231.64C274.597 231.64 274.23 231.717 273.904 231.87C273.577 232.017 273.297 232.217 273.064 232.47C272.83 232.723 272.65 233.023 272.524 233.37C272.397 233.71 272.334 234.073 272.334 234.46C272.334 234.847 272.397 235.213 272.524 235.56C272.65 235.9 272.83 236.197 273.064 236.45C273.297 236.703 273.577 236.907 273.904 237.06C274.23 237.207 274.597 237.28 275.004 237.28ZM280.074 230.92H282.564C283.017 230.92 283.391 230.983 283.684 231.11C283.977 231.23 284.207 231.387 284.374 231.58C284.547 231.767 284.667 231.98 284.734 232.22C284.801 232.453 284.834 232.68 284.834 232.9C284.834 233.127 284.794 233.347 284.714 233.56C284.634 233.767 284.517 233.957 284.364 234.13C284.217 234.297 284.034 234.44 283.814 234.56C283.601 234.673 283.361 234.743 283.094 234.77L285.104 238H283.904L282.104 234.88H281.034V238H280.074V230.92ZM281.034 234.04H282.294C282.481 234.04 282.664 234.027 282.844 234C283.031 233.967 283.194 233.91 283.334 233.83C283.481 233.75 283.597 233.637 283.684 233.49C283.771 233.337 283.814 233.14 283.814 232.9C283.814 232.66 283.771 232.467 283.684 232.32C283.597 232.167 283.481 232.05 283.334 231.97C283.194 231.89 283.031 231.837 282.844 231.81C282.664 231.777 282.481 231.76 282.294 231.76H281.034V234.04ZM286.187 230.92H290.757V231.82H287.147V233.93H290.507V234.83H287.147V237.1H290.937V238H286.187V230.92ZM297.231 232.45C297.031 232.19 296.777 231.99 296.471 231.85C296.164 231.71 295.847 231.64 295.521 231.64C295.121 231.64 294.757 231.717 294.431 231.87C294.111 232.017 293.834 232.22 293.601 232.48C293.374 232.74 293.197 233.047 293.071 233.4C292.944 233.747 292.881 234.12 292.881 234.52C292.881 234.893 292.941 235.247 293.061 235.58C293.181 235.913 293.354 236.207 293.581 236.46C293.807 236.713 294.084 236.913 294.411 237.06C294.737 237.207 295.107 237.28 295.521 237.28C295.927 237.28 296.284 237.197 296.591 237.03C296.897 236.863 297.157 236.63 297.371 236.33L298.181 236.94C298.127 237.013 298.034 237.12 297.901 237.26C297.767 237.393 297.591 237.53 297.371 237.67C297.151 237.803 296.884 237.92 296.571 238.02C296.264 238.127 295.907 238.18 295.501 238.18C294.941 238.18 294.434 238.073 293.981 237.86C293.534 237.647 293.151 237.367 292.831 237.02C292.517 236.673 292.277 236.283 292.111 235.85C291.944 235.41 291.861 234.967 291.861 234.52C291.861 233.973 291.951 233.47 292.131 233.01C292.311 232.543 292.561 232.143 292.881 231.81C293.207 231.47 293.597 231.207 294.051 231.02C294.504 230.833 295.004 230.74 295.551 230.74C296.017 230.74 296.474 230.83 296.921 231.01C297.374 231.19 297.744 231.467 298.031 231.84L297.231 232.45ZM301.562 230.92H302.432L305.462 238H304.342L303.632 236.25H300.262L299.562 238H298.442L301.562 230.92ZM303.282 235.41L301.962 232.16H301.942L300.602 235.41H303.282ZM309.376 236.52C309.549 236.78 309.769 236.973 310.036 237.1C310.309 237.22 310.589 237.28 310.876 237.28C311.036 237.28 311.199 237.257 311.366 237.21C311.533 237.157 311.683 237.08 311.816 236.98C311.956 236.88 312.069 236.757 312.156 236.61C312.243 236.463 312.286 236.293 312.286 236.1C312.286 235.827 312.199 235.62 312.026 235.48C311.853 235.333 311.636 235.213 311.376 235.12C311.123 235.02 310.843 234.927 310.536 234.84C310.236 234.747 309.956 234.62 309.696 234.46C309.443 234.3 309.229 234.087 309.056 233.82C308.883 233.547 308.796 233.18 308.796 232.72C308.796 232.513 308.839 232.293 308.926 232.06C309.019 231.827 309.163 231.613 309.356 231.42C309.549 231.227 309.796 231.067 310.096 230.94C310.403 230.807 310.769 230.74 311.196 230.74C311.583 230.74 311.953 230.793 312.306 230.9C312.659 231.007 312.969 231.223 313.236 231.55L312.456 232.26C312.336 232.073 312.166 231.923 311.946 231.81C311.726 231.697 311.476 231.64 311.196 231.64C310.929 231.64 310.706 231.677 310.526 231.75C310.353 231.817 310.213 231.907 310.106 232.02C309.999 232.127 309.923 232.243 309.876 232.37C309.836 232.497 309.816 232.613 309.816 232.72C309.816 233.02 309.903 233.25 310.076 233.41C310.249 233.57 310.463 233.7 310.716 233.8C310.976 233.9 311.256 233.99 311.556 234.07C311.863 234.15 312.143 234.263 312.396 234.41C312.656 234.55 312.873 234.743 313.046 234.99C313.219 235.23 313.306 235.563 313.306 235.99C313.306 236.33 313.239 236.637 313.106 236.91C312.979 237.183 312.806 237.413 312.586 237.6C312.366 237.787 312.106 237.93 311.806 238.03C311.506 238.13 311.186 238.18 310.846 238.18C310.393 238.18 309.963 238.1 309.556 237.94C309.149 237.78 308.826 237.533 308.586 237.2L309.376 236.52ZM318.693 238H317.793V237.27H317.773C317.659 237.523 317.463 237.73 317.183 237.89C316.903 238.043 316.579 238.12 316.213 238.12C315.979 238.12 315.759 238.083 315.553 238.01C315.346 237.943 315.163 237.837 315.003 237.69C314.849 237.543 314.726 237.357 314.633 237.13C314.539 236.897 314.493 236.623 314.493 236.31V233.26H315.393V236.06C315.393 236.28 315.423 236.47 315.483 236.63C315.543 236.783 315.623 236.91 315.723 237.01C315.823 237.103 315.936 237.173 316.063 237.22C316.196 237.26 316.333 237.28 316.473 237.28C316.659 237.28 316.833 237.25 316.993 237.19C317.153 237.13 317.293 237.037 317.413 236.91C317.533 236.777 317.626 236.61 317.693 236.41C317.759 236.21 317.793 235.973 317.793 235.7V233.26H318.693V238ZM320.049 233.26H320.949V233.99H320.969C321.029 233.863 321.109 233.75 321.209 233.65C321.309 233.543 321.419 233.453 321.539 233.38C321.666 233.307 321.802 233.25 321.949 233.21C322.096 233.163 322.242 233.14 322.389 233.14C322.536 233.14 322.669 233.16 322.789 233.2L322.749 234.17C322.676 234.15 322.602 234.133 322.529 234.12C322.456 234.107 322.382 234.1 322.309 234.1C321.869 234.1 321.532 234.223 321.299 234.47C321.066 234.717 320.949 235.1 320.949 235.62V238H320.049V233.26ZM323.18 233.26H324.22L325.64 236.89L327 233.26H327.96L326.1 238H325.11L323.18 233.26ZM329.43 235.96C329.43 236.167 329.474 236.357 329.56 236.53C329.654 236.697 329.774 236.84 329.92 236.96C330.067 237.08 330.237 237.173 330.43 237.24C330.624 237.307 330.824 237.34 331.03 237.34C331.31 237.34 331.554 237.277 331.76 237.15C331.967 237.017 332.157 236.843 332.33 236.63L333.01 237.15C332.51 237.797 331.81 238.12 330.91 238.12C330.537 238.12 330.197 238.057 329.89 237.93C329.59 237.803 329.334 237.63 329.12 237.41C328.914 237.183 328.754 236.92 328.64 236.62C328.527 236.313 328.47 235.983 328.47 235.63C328.47 235.277 328.53 234.95 328.65 234.65C328.777 234.343 328.947 234.08 329.16 233.86C329.38 233.633 329.64 233.457 329.94 233.33C330.24 233.203 330.567 233.14 330.92 233.14C331.34 233.14 331.694 233.213 331.98 233.36C332.274 233.507 332.514 233.7 332.7 233.94C332.887 234.173 333.02 234.44 333.1 234.74C333.187 235.033 333.23 235.333 333.23 235.64V235.96H329.43ZM332.27 235.24C332.264 235.04 332.23 234.857 332.17 234.69C332.117 234.523 332.034 234.38 331.92 234.26C331.807 234.133 331.664 234.037 331.49 233.97C331.324 233.897 331.127 233.86 330.9 233.86C330.68 233.86 330.477 233.903 330.29 233.99C330.11 234.07 329.957 234.177 329.83 234.31C329.704 234.443 329.604 234.593 329.53 234.76C329.464 234.92 329.43 235.08 329.43 235.24H332.27ZM333.737 233.26H334.777L336.187 236.96H336.207L337.547 233.26H338.517L336.267 239.02C336.187 239.227 336.104 239.413 336.017 239.58C335.93 239.753 335.827 239.9 335.707 240.02C335.587 240.14 335.44 240.233 335.267 240.3C335.1 240.367 334.894 240.4 334.647 240.4C334.514 240.4 334.377 240.39 334.237 240.37C334.104 240.357 333.974 240.323 333.847 240.27L333.957 239.45C334.137 239.523 334.317 239.56 334.497 239.56C334.637 239.56 334.754 239.54 334.847 239.5C334.947 239.467 335.03 239.413 335.097 239.34C335.17 239.273 335.23 239.193 335.277 239.1C335.324 239.007 335.37 238.9 335.417 238.78L335.707 238.03L333.737 233.26Z" fill="#161919"/>
<path d="M485.91 230.92H488.4C488.853 230.92 489.227 230.983 489.52 231.11C489.813 231.23 490.043 231.387 490.21 231.58C490.383 231.767 490.503 231.98 490.57 232.22C490.637 232.453 490.67 232.68 490.67 232.9C490.67 233.12 490.637 233.35 490.57 233.59C490.503 233.823 490.383 234.037 490.21 234.23C490.043 234.417 489.813 234.573 489.52 234.7C489.227 234.82 488.853 234.88 488.4 234.88H486.87V238H485.91V230.92ZM486.87 234.04H488.13C488.317 234.04 488.5 234.027 488.68 234C488.867 233.967 489.03 233.91 489.17 233.83C489.317 233.75 489.433 233.637 489.52 233.49C489.607 233.337 489.65 233.14 489.65 232.9C489.65 232.66 489.607 232.467 489.52 232.32C489.433 232.167 489.317 232.05 489.17 231.97C489.03 231.89 488.867 231.837 488.68 231.81C488.5 231.777 488.317 231.76 488.13 231.76H486.87V234.04ZM493.316 230.92H494.186L497.216 238H496.096L495.386 236.25H492.016L491.316 238H490.196L493.316 230.92ZM495.036 235.41L493.716 232.16H493.696L492.356 235.41H495.036ZM498.699 231.82H496.419V230.92H501.939V231.82H499.659V238H498.699V231.82ZM502.961 230.92H507.531V231.82H503.921V233.93H507.281V234.83H503.921V237.1H507.711V238H502.961V230.92ZM509.074 230.92H510.034V233.98H510.114L513.244 230.92H514.584L511.164 234.19L514.814 238H513.414L510.114 234.46H510.034V238H509.074V230.92ZM521.502 234.52C521.335 234.347 521.158 234.217 520.972 234.13C520.792 234.037 520.575 233.99 520.322 233.99C520.075 233.99 519.858 234.037 519.672 234.13C519.492 234.217 519.338 234.34 519.212 234.5C519.092 234.653 518.998 234.833 518.932 235.04C518.872 235.24 518.842 235.45 518.842 235.67C518.842 235.89 518.878 236.1 518.952 236.3C519.025 236.493 519.128 236.663 519.262 236.81C519.395 236.957 519.555 237.073 519.742 237.16C519.928 237.24 520.138 237.28 520.372 237.28C520.625 237.28 520.842 237.237 521.022 237.15C521.202 237.057 521.368 236.923 521.522 236.75L522.162 237.39C521.928 237.65 521.655 237.837 521.342 237.95C521.035 238.063 520.708 238.12 520.362 238.12C519.995 238.12 519.658 238.06 519.352 237.94C519.052 237.82 518.792 237.653 518.572 237.44C518.352 237.22 518.182 236.96 518.062 236.66C517.942 236.353 517.882 236.017 517.882 235.65C517.882 235.283 517.942 234.947 518.062 234.64C518.182 234.333 518.348 234.07 518.562 233.85C518.782 233.63 519.042 233.46 519.342 233.34C519.648 233.213 519.988 233.15 520.362 233.15C520.708 233.15 521.038 233.213 521.352 233.34C521.672 233.46 521.948 233.647 522.182 233.9L521.502 234.52ZM523.666 235.63C523.666 235.87 523.703 236.093 523.776 236.3C523.849 236.5 523.953 236.673 524.086 236.82C524.219 236.96 524.383 237.073 524.576 237.16C524.769 237.24 524.986 237.28 525.226 237.28C525.466 237.28 525.683 237.24 525.876 237.16C526.069 237.073 526.233 236.96 526.366 236.82C526.499 236.673 526.603 236.5 526.676 236.3C526.749 236.093 526.786 235.87 526.786 235.63C526.786 235.39 526.749 235.17 526.676 234.97C526.603 234.763 526.499 234.59 526.366 234.45C526.233 234.303 526.069 234.19 525.876 234.11C525.683 234.023 525.466 233.98 525.226 233.98C524.986 233.98 524.769 234.023 524.576 234.11C524.383 234.19 524.219 234.303 524.086 234.45C523.953 234.59 523.849 234.763 523.776 234.97C523.703 235.17 523.666 235.39 523.666 235.63ZM522.706 235.63C522.706 235.283 522.769 234.96 522.896 234.66C523.029 234.36 523.209 234.097 523.436 233.87C523.663 233.643 523.929 233.467 524.236 233.34C524.543 233.207 524.873 233.14 525.226 233.14C525.579 233.14 525.909 233.207 526.216 233.34C526.523 233.467 526.789 233.643 527.016 233.87C527.243 234.097 527.419 234.36 527.546 234.66C527.679 234.96 527.746 235.283 527.746 235.63C527.746 235.977 527.679 236.303 527.546 236.61C527.419 236.91 527.243 237.173 527.016 237.4C526.789 237.62 526.523 237.797 526.216 237.93C525.909 238.057 525.579 238.12 525.226 238.12C524.873 238.12 524.543 238.057 524.236 237.93C523.929 237.797 523.663 237.62 523.436 237.4C523.209 237.173 523.029 236.91 522.896 236.61C522.769 236.303 522.706 235.977 522.706 235.63ZM528.873 233.26H529.773V233.99H529.793C529.907 233.737 530.103 233.533 530.383 233.38C530.663 233.22 530.987 233.14 531.353 233.14C531.58 233.14 531.797 233.177 532.003 233.25C532.217 233.317 532.4 233.423 532.553 233.57C532.713 233.717 532.84 233.907 532.933 234.14C533.027 234.367 533.073 234.637 533.073 234.95V238H532.173V235.2C532.173 234.98 532.143 234.793 532.083 234.64C532.023 234.48 531.943 234.353 531.843 234.26C531.743 234.16 531.627 234.09 531.493 234.05C531.367 234.003 531.233 233.98 531.093 233.98C530.907 233.98 530.733 234.01 530.573 234.07C530.413 234.13 530.273 234.227 530.153 234.36C530.033 234.487 529.94 234.65 529.873 234.85C529.807 235.05 529.773 235.287 529.773 235.56V238H528.873V233.26ZM536.95 234.45C536.843 234.317 536.71 234.207 536.55 234.12C536.397 234.027 536.207 233.98 535.98 233.98C535.767 233.98 535.58 234.027 535.42 234.12C535.267 234.207 535.19 234.337 535.19 234.51C535.19 234.65 535.233 234.763 535.32 234.85C535.413 234.937 535.52 235.007 535.64 235.06C535.767 235.113 535.9 235.153 536.04 235.18C536.18 235.207 536.3 235.23 536.4 235.25C536.593 235.297 536.773 235.353 536.94 235.42C537.113 235.487 537.26 235.573 537.38 235.68C537.507 235.787 537.603 235.917 537.67 236.07C537.743 236.223 537.78 236.41 537.78 236.63C537.78 236.897 537.723 237.127 537.61 237.32C537.497 237.507 537.35 237.66 537.17 237.78C536.99 237.9 536.783 237.987 536.55 238.04C536.323 238.093 536.093 238.12 535.86 238.12C535.467 238.12 535.12 238.06 534.82 237.94C534.527 237.82 534.263 237.6 534.03 237.28L534.71 236.72C534.857 236.867 535.02 236.997 535.2 237.11C535.38 237.223 535.6 237.28 535.86 237.28C535.973 237.28 536.087 237.27 536.2 237.25C536.32 237.223 536.423 237.187 536.51 237.14C536.603 237.087 536.677 237.023 536.73 236.95C536.79 236.87 536.82 236.78 536.82 236.68C536.82 236.547 536.777 236.437 536.69 236.35C536.61 236.263 536.51 236.197 536.39 236.15C536.277 236.097 536.153 236.057 536.02 236.03C535.893 235.997 535.78 235.97 535.68 235.95C535.487 235.903 535.303 235.85 535.13 235.79C534.957 235.73 534.803 235.65 534.67 235.55C534.537 235.45 534.43 235.323 534.35 235.17C534.27 235.017 534.23 234.827 534.23 234.6C534.23 234.353 534.28 234.14 534.38 233.96C534.487 233.773 534.623 233.62 534.79 233.5C534.963 233.38 535.157 233.29 535.37 233.23C535.59 233.17 535.81 233.14 536.03 233.14C536.35 233.14 536.657 233.2 536.95 233.32C537.243 233.44 537.477 233.64 537.65 233.92L536.95 234.45ZM543.073 238H542.173V237.27H542.153C542.04 237.523 541.843 237.73 541.563 237.89C541.283 238.043 540.96 238.12 540.593 238.12C540.36 238.12 540.14 238.083 539.933 238.01C539.727 237.943 539.543 237.837 539.383 237.69C539.23 237.543 539.107 237.357 539.013 237.13C538.92 236.897 538.873 236.623 538.873 236.31V233.26H539.773V236.06C539.773 236.28 539.803 236.47 539.863 236.63C539.923 236.783 540.003 236.91 540.103 237.01C540.203 237.103 540.317 237.173 540.443 237.22C540.577 237.26 540.713 237.28 540.853 237.28C541.04 237.28 541.213 237.25 541.373 237.19C541.533 237.13 541.673 237.037 541.793 236.91C541.913 236.777 542.007 236.61 542.073 236.41C542.14 236.21 542.173 235.973 542.173 235.7V233.26H543.073V238ZM544.43 233.26H545.27V234H545.29C545.31 233.933 545.36 233.85 545.44 233.75C545.527 233.65 545.633 233.557 545.76 233.47C545.893 233.377 546.047 233.3 546.22 233.24C546.4 233.173 546.597 233.14 546.81 233.14C547.163 233.14 547.46 233.213 547.7 233.36C547.94 233.507 548.137 233.727 548.29 234.02C548.443 233.727 548.66 233.507 548.94 233.36C549.22 233.213 549.503 233.14 549.79 233.14C550.157 233.14 550.457 233.2 550.69 233.32C550.923 233.44 551.107 233.6 551.24 233.8C551.373 233.993 551.463 234.217 551.51 234.47C551.563 234.717 551.59 234.973 551.59 235.24V238H550.69V235.36C550.69 235.18 550.677 235.007 550.65 234.84C550.63 234.673 550.583 234.527 550.51 234.4C550.437 234.273 550.333 234.173 550.2 234.1C550.067 234.02 549.89 233.98 549.67 233.98C549.237 233.98 548.927 234.113 548.74 234.38C548.553 234.647 548.46 234.99 548.46 235.41V238H547.56V235.52C547.56 235.293 547.547 235.087 547.52 234.9C547.5 234.713 547.453 234.553 547.38 234.42C547.313 234.28 547.213 234.173 547.08 234.1C546.953 234.02 546.78 233.98 546.56 233.98C546.4 233.98 546.243 234.013 546.09 234.08C545.943 234.14 545.813 234.233 545.7 234.36C545.587 234.487 545.497 234.65 545.43 234.85C545.363 235.043 545.33 235.273 545.33 235.54V238H544.43V233.26ZM553.626 235.96C553.626 236.167 553.669 236.357 553.756 236.53C553.849 236.697 553.969 236.84 554.116 236.96C554.262 237.08 554.432 237.173 554.626 237.24C554.819 237.307 555.019 237.34 555.226 237.34C555.506 237.34 555.749 237.277 555.956 237.15C556.162 237.017 556.352 236.843 556.526 236.63L557.206 237.15C556.706 237.797 556.006 238.12 555.106 238.12C554.732 238.12 554.392 238.057 554.086 237.93C553.786 237.803 553.529 237.63 553.316 237.41C553.109 237.183 552.949 236.92 552.836 236.62C552.722 236.313 552.666 235.983 552.666 235.63C552.666 235.277 552.726 234.95 552.846 234.65C552.972 234.343 553.142 234.08 553.356 233.86C553.576 233.633 553.836 233.457 554.136 233.33C554.436 233.203 554.762 233.14 555.116 233.14C555.536 233.14 555.889 233.213 556.176 233.36C556.469 233.507 556.709 233.7 556.896 233.94C557.082 234.173 557.216 234.44 557.296 234.74C557.382 235.033 557.426 235.333 557.426 235.64V235.96H553.626ZM556.466 235.24C556.459 235.04 556.426 234.857 556.366 234.69C556.312 234.523 556.229 234.38 556.116 234.26C556.002 234.133 555.859 234.037 555.686 233.97C555.519 233.897 555.322 233.86 555.096 233.86C554.876 233.86 554.672 233.903 554.486 233.99C554.306 234.07 554.152 234.177 554.026 234.31C553.899 234.443 553.799 234.593 553.726 234.76C553.659 234.92 553.626 235.08 553.626 235.24H556.466ZM558.502 233.26H559.402V233.99H559.422C559.482 233.863 559.562 233.75 559.662 233.65C559.762 233.543 559.872 233.453 559.992 233.38C560.119 233.307 560.256 233.25 560.402 233.21C560.549 233.163 560.696 233.14 560.842 233.14C560.989 233.14 561.122 233.16 561.242 233.2L561.202 234.17C561.129 234.15 561.056 234.133 560.982 234.12C560.909 234.107 560.836 234.1 560.762 234.1C560.322 234.1 559.986 234.223 559.752 234.47C559.519 234.717 559.402 235.1 559.402 235.62V238H558.502V233.26Z" fill="#161919"/>
<path d="M711.91 230.92H714.4C714.853 230.92 715.227 230.983 715.52 231.11C715.813 231.23 716.043 231.387 716.21 231.58C716.383 231.767 716.503 231.98 716.57 232.22C716.637 232.453 716.67 232.68 716.67 232.9C716.67 233.12 716.637 233.35 716.57 233.59C716.503 233.823 716.383 234.037 716.21 234.23C716.043 234.417 715.813 234.573 715.52 234.7C715.227 234.82 714.853 234.88 714.4 234.88H712.87V238H711.91V230.92ZM712.87 234.04H714.13C714.317 234.04 714.5 234.027 714.68 234C714.867 233.967 715.03 233.91 715.17 233.83C715.317 233.75 715.433 233.637 715.52 233.49C715.607 233.337 715.65 233.14 715.65 232.9C715.65 232.66 715.607 232.467 715.52 232.32C715.433 232.167 715.317 232.05 715.17 231.97C715.03 231.89 714.867 231.837 714.68 231.81C714.5 231.777 714.317 231.76 714.13 231.76H712.87V234.04ZM719.316 230.92H720.186L723.216 238H722.096L721.386 236.25H718.016L717.316 238H716.196L719.316 230.92ZM721.036 235.41L719.716 232.16H719.696L718.356 235.41H721.036ZM724.699 231.82H722.419V230.92H727.939V231.82H725.659V238H724.699V231.82ZM728.961 230.92H733.531V231.82H729.921V233.93H733.281V234.83H729.921V237.1H733.711V238H728.961V230.92ZM735.074 230.92H736.034V233.98H736.114L739.244 230.92H740.584L737.164 234.19L740.814 238H739.414L736.114 234.46H736.034V238H735.074V230.92ZM744.342 230.92H745.302V233.86H748.972V230.92H749.932V238H748.972V234.76H745.302V238H744.342V230.92ZM755.004 238.18C754.464 238.18 753.967 238.087 753.514 237.9C753.06 237.707 752.67 237.443 752.344 237.11C752.024 236.777 751.77 236.383 751.584 235.93C751.404 235.477 751.314 234.987 751.314 234.46C751.314 233.933 751.404 233.443 751.584 232.99C751.77 232.537 752.024 232.143 752.344 231.81C752.67 231.477 753.06 231.217 753.514 231.03C753.967 230.837 754.464 230.74 755.004 230.74C755.544 230.74 756.04 230.837 756.494 231.03C756.947 231.217 757.334 231.477 757.654 231.81C757.98 232.143 758.234 232.537 758.414 232.99C758.6 233.443 758.694 233.933 758.694 234.46C758.694 234.987 758.6 235.477 758.414 235.93C758.234 236.383 757.98 236.777 757.654 237.11C757.334 237.443 756.947 237.707 756.494 237.9C756.04 238.087 755.544 238.18 755.004 238.18ZM755.004 237.28C755.41 237.28 755.777 237.207 756.104 237.06C756.43 236.907 756.71 236.703 756.944 236.45C757.177 236.197 757.357 235.9 757.484 235.56C757.61 235.213 757.674 234.847 757.674 234.46C757.674 234.073 757.61 233.71 757.484 233.37C757.357 233.023 757.177 232.723 756.944 232.47C756.71 232.217 756.43 232.017 756.104 231.87C755.777 231.717 755.41 231.64 755.004 231.64C754.597 231.64 754.23 231.717 753.904 231.87C753.577 232.017 753.297 232.217 753.064 232.47C752.83 232.723 752.65 233.023 752.524 233.37C752.397 233.71 752.334 234.073 752.334 234.46C752.334 234.847 752.397 235.213 752.524 235.56C752.65 235.9 752.83 236.197 753.064 236.45C753.297 236.703 753.577 236.907 753.904 237.06C754.23 237.207 754.597 237.28 755.004 237.28ZM760.074 230.92H762.564C763.017 230.92 763.391 230.983 763.684 231.11C763.977 231.23 764.207 231.387 764.374 231.58C764.547 231.767 764.667 231.98 764.734 232.22C764.801 232.453 764.834 232.68 764.834 232.9C764.834 233.127 764.794 233.347 764.714 233.56C764.634 233.767 764.517 233.957 764.364 234.13C764.217 234.297 764.034 234.44 763.814 234.56C763.601 234.673 763.361 234.743 763.094 234.77L765.104 238H763.904L762.104 234.88H761.034V238H760.074V230.92ZM761.034 234.04H762.294C762.481 234.04 762.664 234.027 762.844 234C763.031 233.967 763.194 233.91 763.334 233.83C763.481 233.75 763.597 233.637 763.684 233.49C763.771 233.337 763.814 233.14 763.814 232.9C763.814 232.66 763.771 232.467 763.684 232.32C763.597 232.167 763.481 232.05 763.334 231.97C763.194 231.89 763.031 231.837 762.844 231.81C762.664 231.777 762.481 231.76 762.294 231.76H761.034V234.04ZM766.187 230.92H770.757V231.82H767.147V233.93H770.507V234.83H767.147V237.1H770.937V238H766.187V230.92ZM777.231 232.45C777.031 232.19 776.777 231.99 776.471 231.85C776.164 231.71 775.847 231.64 775.521 231.64C775.121 231.64 774.757 231.717 774.431 231.87C774.111 232.017 773.834 232.22 773.601 232.48C773.374 232.74 773.197 233.047 773.071 233.4C772.944 233.747 772.881 234.12 772.881 234.52C772.881 234.893 772.941 235.247 773.061 235.58C773.181 235.913 773.354 236.207 773.581 236.46C773.807 236.713 774.084 236.913 774.411 237.06C774.737 237.207 775.107 237.28 775.521 237.28C775.927 237.28 776.284 237.197 776.591 237.03C776.897 236.863 777.157 236.63 777.371 236.33L778.181 236.94C778.127 237.013 778.034 237.12 777.901 237.26C777.767 237.393 777.591 237.53 777.371 237.67C777.151 237.803 776.884 237.92 776.571 238.02C776.264 238.127 775.907 238.18 775.501 238.18C774.941 238.18 774.434 238.073 773.981 237.86C773.534 237.647 773.151 237.367 772.831 237.02C772.517 236.673 772.277 236.283 772.111 235.85C771.944 235.41 771.861 234.967 771.861 234.52C771.861 233.973 771.951 233.47 772.131 233.01C772.311 232.543 772.561 232.143 772.881 231.81C773.207 231.47 773.597 231.207 774.051 231.02C774.504 230.833 775.004 230.74 775.551 230.74C776.017 230.74 776.474 230.83 776.921 231.01C777.374 231.19 777.744 231.467 778.031 231.84L777.231 232.45ZM781.562 230.92H782.432L785.462 238H784.342L783.632 236.25H780.262L779.562 238H778.442L781.562 230.92ZM783.282 235.41L781.962 232.16H781.942L780.602 235.41H783.282ZM789.376 236.52C789.549 236.78 789.769 236.973 790.036 237.1C790.309 237.22 790.589 237.28 790.876 237.28C791.036 237.28 791.199 237.257 791.366 237.21C791.533 237.157 791.683 237.08 791.816 236.98C791.956 236.88 792.069 236.757 792.156 236.61C792.243 236.463 792.286 236.293 792.286 236.1C792.286 235.827 792.199 235.62 792.026 235.48C791.853 235.333 791.636 235.213 791.376 235.12C791.123 235.02 790.843 234.927 790.536 234.84C790.236 234.747 789.956 234.62 789.696 234.46C789.443 234.3 789.229 234.087 789.056 233.82C788.883 233.547 788.796 233.18 788.796 232.72C788.796 232.513 788.839 232.293 788.926 232.06C789.019 231.827 789.163 231.613 789.356 231.42C789.549 231.227 789.796 231.067 790.096 230.94C790.403 230.807 790.769 230.74 791.196 230.74C791.583 230.74 791.953 230.793 792.306 230.9C792.659 231.007 792.969 231.223 793.236 231.55L792.456 232.26C792.336 232.073 792.166 231.923 791.946 231.81C791.726 231.697 791.476 231.64 791.196 231.64C790.929 231.64 790.706 231.677 790.526 231.75C790.353 231.817 790.213 231.907 790.106 232.02C789.999 232.127 789.923 232.243 789.876 232.37C789.836 232.497 789.816 232.613 789.816 232.72C789.816 233.02 789.903 233.25 790.076 233.41C790.249 233.57 790.463 233.7 790.716 233.8C790.976 233.9 791.256 233.99 791.556 234.07C791.863 234.15 792.143 234.263 792.396 234.41C792.656 234.55 792.873 234.743 793.046 234.99C793.219 235.23 793.306 235.563 793.306 235.99C793.306 236.33 793.239 236.637 793.106 236.91C792.979 237.183 792.806 237.413 792.586 237.6C792.366 237.787 792.106 237.93 791.806 238.03C791.506 238.13 791.186 238.18 790.846 238.18C790.393 238.18 789.963 238.1 789.556 237.94C789.149 237.78 788.826 237.533 788.586 237.2L789.376 236.52ZM798.693 238H797.793V237.27H797.773C797.659 237.523 797.463 237.73 797.183 237.89C796.903 238.043 796.579 238.12 796.213 238.12C795.979 238.12 795.759 238.083 795.553 238.01C795.346 237.943 795.163 237.837 795.003 237.69C794.849 237.543 794.726 237.357 794.633 237.13C794.539 236.897 794.493 236.623 794.493 236.31V233.26H795.393V236.06C795.393 236.28 795.423 236.47 795.483 236.63C795.543 236.783 795.623 236.91 795.723 237.01C795.823 237.103 795.936 237.173 796.063 237.22C796.196 237.26 796.333 237.28 796.473 237.28C796.659 237.28 796.833 237.25 796.993 237.19C797.153 237.13 797.293 237.037 797.413 236.91C797.533 236.777 797.626 236.61 797.693 236.41C797.759 236.21 797.793 235.973 797.793 235.7V233.26H798.693V238ZM800.049 233.26H800.949V233.99H800.969C801.029 233.863 801.109 233.75 801.209 233.65C801.309 233.543 801.419 233.453 801.539 233.38C801.666 233.307 801.802 233.25 801.949 233.21C802.096 233.163 802.242 233.14 802.389 233.14C802.536 233.14 802.669 233.16 802.789 233.2L802.749 234.17C802.676 234.15 802.602 234.133 802.529 234.12C802.456 234.107 802.382 234.1 802.309 234.1C801.869 234.1 801.532 234.223 801.299 234.47C801.066 234.717 800.949 235.1 800.949 235.62V238H800.049V233.26ZM803.18 233.26H804.22L805.64 236.89L807 233.26H807.96L806.1 238H805.11L803.18 233.26ZM809.43 235.96C809.43 236.167 809.474 236.357 809.56 236.53C809.654 236.697 809.774 236.84 809.92 236.96C810.067 237.08 810.237 237.173 810.43 237.24C810.624 237.307 810.824 237.34 811.03 237.34C811.31 237.34 811.554 237.277 811.76 237.15C811.967 237.017 812.157 236.843 812.33 236.63L813.01 237.15C812.51 237.797 811.81 238.12 810.91 238.12C810.537 238.12 810.197 238.057 809.89 237.93C809.59 237.803 809.334 237.63 809.12 237.41C808.914 237.183 808.754 236.92 808.64 236.62C808.527 236.313 808.47 235.983 808.47 235.63C808.47 235.277 808.53 234.95 808.65 234.65C808.777 234.343 808.947 234.08 809.16 233.86C809.38 233.633 809.64 233.457 809.94 233.33C810.24 233.203 810.567 233.14 810.92 233.14C811.34 233.14 811.694 233.213 811.98 233.36C812.274 233.507 812.514 233.7 812.7 233.94C812.887 234.173 813.02 234.44 813.1 234.74C813.187 235.033 813.23 235.333 813.23 235.64V235.96H809.43ZM812.27 235.24C812.264 235.04 812.23 234.857 812.17 234.69C812.117 234.523 812.034 234.38 811.92 234.26C811.807 234.133 811.664 234.037 811.49 233.97C811.324 233.897 811.127 233.86 810.9 233.86C810.68 233.86 810.477 233.903 810.29 233.99C810.11 234.07 809.957 234.177 809.83 234.31C809.704 234.443 809.604 234.593 809.53 234.76C809.464 234.92 809.43 235.08 809.43 235.24H812.27ZM813.737 233.26H814.777L816.187 236.96H816.207L817.547 233.26H818.517L816.267 239.02C816.187 239.227 816.104 239.413 816.017 239.58C815.93 239.753 815.827 239.9 815.707 240.02C815.587 240.14 815.44 240.233 815.267 240.3C815.1 240.367 814.894 240.4 814.647 240.4C814.514 240.4 814.377 240.39 814.237 240.37C814.104 240.357 813.974 240.323 813.847 240.27L813.957 239.45C814.137 239.523 814.317 239.56 814.497 239.56C814.637 239.56 814.754 239.54 814.847 239.5C814.947 239.467 815.03 239.413 815.097 239.34C815.17 239.273 815.23 239.193 815.277 239.1C815.324 239.007 815.37 238.9 815.417 238.78L815.707 238.03L813.737 233.26Z" fill="#161919"/>
<path d="M969.91 230.92H972.4C972.853 230.92 973.227 230.983 973.52 231.11C973.813 231.23 974.043 231.387 974.21 231.58C974.383 231.767 974.503 231.98 974.57 232.22C974.637 232.453 974.67 232.68 974.67 232.9C974.67 233.12 974.637 233.35 974.57 233.59C974.503 233.823 974.383 234.037 974.21 234.23C974.043 234.417 973.813 234.573 973.52 234.7C973.227 234.82 972.853 234.88 972.4 234.88H970.87V238H969.91V230.92ZM970.87 234.04H972.13C972.317 234.04 972.5 234.027 972.68 234C972.867 233.967 973.03 233.91 973.17 233.83C973.317 233.75 973.433 233.637 973.52 233.49C973.607 233.337 973.65 233.14 973.65 232.9C973.65 232.66 973.607 232.467 973.52 232.32C973.433 232.167 973.317 232.05 973.17 231.97C973.03 231.89 972.867 231.837 972.68 231.81C972.5 231.777 972.317 231.76 972.13 231.76H970.87V234.04ZM977.316 230.92H978.186L981.216 238H980.096L979.386 236.25H976.016L975.316 238H974.196L977.316 230.92ZM979.036 235.41L977.716 232.16H977.696L976.356 235.41H979.036ZM982.699 231.82H980.419V230.92H985.939V231.82H983.659V238H982.699V231.82ZM986.961 230.92H991.531V231.82H987.921V233.93H991.281V234.83H987.921V237.1H991.711V238H986.961V230.92ZM993.074 230.92H994.034V233.98H994.114L997.244 230.92H998.584L995.164 234.19L998.814 238H997.414L994.114 234.46H994.034V238H993.074V230.92ZM1005.5 234.52C1005.33 234.347 1005.16 234.217 1004.97 234.13C1004.79 234.037 1004.57 233.99 1004.32 233.99C1004.07 233.99 1003.86 234.037 1003.67 234.13C1003.49 234.217 1003.34 234.34 1003.21 234.5C1003.09 234.653 1003 234.833 1002.93 235.04C1002.87 235.24 1002.84 235.45 1002.84 235.67C1002.84 235.89 1002.88 236.1 1002.95 236.3C1003.02 236.493 1003.13 236.663 1003.26 236.81C1003.39 236.957 1003.55 237.073 1003.74 237.16C1003.93 237.24 1004.14 237.28 1004.37 237.28C1004.62 237.28 1004.84 237.237 1005.02 237.15C1005.2 237.057 1005.37 236.923 1005.52 236.75L1006.16 237.39C1005.93 237.65 1005.65 237.837 1005.34 237.95C1005.03 238.063 1004.71 238.12 1004.36 238.12C1003.99 238.12 1003.66 238.06 1003.35 237.94C1003.05 237.82 1002.79 237.653 1002.57 237.44C1002.35 237.22 1002.18 236.96 1002.06 236.66C1001.94 236.353 1001.88 236.017 1001.88 235.65C1001.88 235.283 1001.94 234.947 1002.06 234.64C1002.18 234.333 1002.35 234.07 1002.56 233.85C1002.78 233.63 1003.04 233.46 1003.34 233.34C1003.65 233.213 1003.99 233.15 1004.36 233.15C1004.71 233.15 1005.04 233.213 1005.35 233.34C1005.67 233.46 1005.95 233.647 1006.18 233.9L1005.5 234.52ZM1007.67 235.63C1007.67 235.87 1007.7 236.093 1007.78 236.3C1007.85 236.5 1007.95 236.673 1008.09 236.82C1008.22 236.96 1008.38 237.073 1008.58 237.16C1008.77 237.24 1008.99 237.28 1009.23 237.28C1009.47 237.28 1009.68 237.24 1009.88 237.16C1010.07 237.073 1010.23 236.96 1010.37 236.82C1010.5 236.673 1010.6 236.5 1010.68 236.3C1010.75 236.093 1010.79 235.87 1010.79 235.63C1010.79 235.39 1010.75 235.17 1010.68 234.97C1010.6 234.763 1010.5 234.59 1010.37 234.45C1010.23 234.303 1010.07 234.19 1009.88 234.11C1009.68 234.023 1009.47 233.98 1009.23 233.98C1008.99 233.98 1008.77 234.023 1008.58 234.11C1008.38 234.19 1008.22 234.303 1008.09 234.45C1007.95 234.59 1007.85 234.763 1007.78 234.97C1007.7 235.17 1007.67 235.39 1007.67 235.63ZM1006.71 235.63C1006.71 235.283 1006.77 234.96 1006.9 234.66C1007.03 234.36 1007.21 234.097 1007.44 233.87C1007.66 233.643 1007.93 233.467 1008.24 233.34C1008.54 233.207 1008.87 233.14 1009.23 233.14C1009.58 233.14 1009.91 233.207 1010.22 233.34C1010.52 233.467 1010.79 233.643 1011.02 233.87C1011.24 234.097 1011.42 234.36 1011.55 234.66C1011.68 234.96 1011.75 235.283 1011.75 235.63C1011.75 235.977 1011.68 236.303 1011.55 236.61C1011.42 236.91 1011.24 237.173 1011.02 237.4C1010.79 237.62 1010.52 237.797 1010.22 237.93C1009.91 238.057 1009.58 238.12 1009.23 238.12C1008.87 238.12 1008.54 238.057 1008.24 237.93C1007.93 237.797 1007.66 237.62 1007.44 237.4C1007.21 237.173 1007.03 236.91 1006.9 236.61C1006.77 236.303 1006.71 235.977 1006.71 235.63ZM1012.87 233.26H1013.77V233.99H1013.79C1013.91 233.737 1014.1 233.533 1014.38 233.38C1014.66 233.22 1014.99 233.14 1015.35 233.14C1015.58 233.14 1015.8 233.177 1016 233.25C1016.22 233.317 1016.4 233.423 1016.55 233.57C1016.71 233.717 1016.84 233.907 1016.93 234.14C1017.03 234.367 1017.07 234.637 1017.07 234.95V238H1016.17V235.2C1016.17 234.98 1016.14 234.793 1016.08 234.64C1016.02 234.48 1015.94 234.353 1015.84 234.26C1015.74 234.16 1015.63 234.09 1015.49 234.05C1015.37 234.003 1015.23 233.98 1015.09 233.98C1014.91 233.98 1014.73 234.01 1014.57 234.07C1014.41 234.13 1014.27 234.227 1014.15 234.36C1014.03 234.487 1013.94 234.65 1013.87 234.85C1013.81 235.05 1013.77 235.287 1013.77 235.56V238H1012.87V233.26ZM1020.95 234.45C1020.84 234.317 1020.71 234.207 1020.55 234.12C1020.4 234.027 1020.21 233.98 1019.98 233.98C1019.77 233.98 1019.58 234.027 1019.42 234.12C1019.27 234.207 1019.19 234.337 1019.19 234.51C1019.19 234.65 1019.23 234.763 1019.32 234.85C1019.41 234.937 1019.52 235.007 1019.64 235.06C1019.77 235.113 1019.9 235.153 1020.04 235.18C1020.18 235.207 1020.3 235.23 1020.4 235.25C1020.59 235.297 1020.77 235.353 1020.94 235.42C1021.11 235.487 1021.26 235.573 1021.38 235.68C1021.51 235.787 1021.6 235.917 1021.67 236.07C1021.74 236.223 1021.78 236.41 1021.78 236.63C1021.78 236.897 1021.72 237.127 1021.61 237.32C1021.5 237.507 1021.35 237.66 1021.17 237.78C1020.99 237.9 1020.78 237.987 1020.55 238.04C1020.32 238.093 1020.09 238.12 1019.86 238.12C1019.47 238.12 1019.12 238.06 1018.82 237.94C1018.53 237.82 1018.26 237.6 1018.03 237.28L1018.71 236.72C1018.86 236.867 1019.02 236.997 1019.2 237.11C1019.38 237.223 1019.6 237.28 1019.86 237.28C1019.97 237.28 1020.09 237.27 1020.2 237.25C1020.32 237.223 1020.42 237.187 1020.51 237.14C1020.6 237.087 1020.68 237.023 1020.73 236.95C1020.79 236.87 1020.82 236.78 1020.82 236.68C1020.82 236.547 1020.78 236.437 1020.69 236.35C1020.61 236.263 1020.51 236.197 1020.39 236.15C1020.28 236.097 1020.15 236.057 1020.02 236.03C1019.89 235.997 1019.78 235.97 1019.68 235.95C1019.49 235.903 1019.3 235.85 1019.13 235.79C1018.96 235.73 1018.8 235.65 1018.67 235.55C1018.54 235.45 1018.43 235.323 1018.35 235.17C1018.27 235.017 1018.23 234.827 1018.23 234.6C1018.23 234.353 1018.28 234.14 1018.38 233.96C1018.49 233.773 1018.62 233.62 1018.79 233.5C1018.96 233.38 1019.16 233.29 1019.37 233.23C1019.59 233.17 1019.81 233.14 1020.03 233.14C1020.35 233.14 1020.66 233.2 1020.95 233.32C1021.24 233.44 1021.48 233.64 1021.65 233.92L1020.95 234.45ZM1027.07 238H1026.17V237.27H1026.15C1026.04 237.523 1025.84 237.73 1025.56 237.89C1025.28 238.043 1024.96 238.12 1024.59 238.12C1024.36 238.12 1024.14 238.083 1023.93 238.01C1023.73 237.943 1023.54 237.837 1023.38 237.69C1023.23 237.543 1023.11 237.357 1023.01 237.13C1022.92 236.897 1022.87 236.623 1022.87 236.31V233.26H1023.77V236.06C1023.77 236.28 1023.8 236.47 1023.86 236.63C1023.92 236.783 1024 236.91 1024.1 237.01C1024.2 237.103 1024.32 237.173 1024.44 237.22C1024.58 237.26 1024.71 237.28 1024.85 237.28C1025.04 237.28 1025.21 237.25 1025.37 237.19C1025.53 237.13 1025.67 237.037 1025.79 236.91C1025.91 236.777 1026.01 236.61 1026.07 236.41C1026.14 236.21 1026.17 235.973 1026.17 235.7V233.26H1027.07V238ZM1028.43 233.26H1029.27V234H1029.29C1029.31 233.933 1029.36 233.85 1029.44 233.75C1029.53 233.65 1029.63 233.557 1029.76 233.47C1029.89 233.377 1030.05 233.3 1030.22 233.24C1030.4 233.173 1030.6 233.14 1030.81 233.14C1031.16 233.14 1031.46 233.213 1031.7 233.36C1031.94 233.507 1032.14 233.727 1032.29 234.02C1032.44 233.727 1032.66 233.507 1032.94 233.36C1033.22 233.213 1033.5 233.14 1033.79 233.14C1034.16 233.14 1034.46 233.2 1034.69 233.32C1034.92 233.44 1035.11 233.6 1035.24 233.8C1035.37 233.993 1035.46 234.217 1035.51 234.47C1035.56 234.717 1035.59 234.973 1035.59 235.24V238H1034.69V235.36C1034.69 235.18 1034.68 235.007 1034.65 234.84C1034.63 234.673 1034.58 234.527 1034.51 234.4C1034.44 234.273 1034.33 234.173 1034.2 234.1C1034.07 234.02 1033.89 233.98 1033.67 233.98C1033.24 233.98 1032.93 234.113 1032.74 234.38C1032.55 234.647 1032.46 234.99 1032.46 235.41V238H1031.56V235.52C1031.56 235.293 1031.55 235.087 1031.52 234.9C1031.5 234.713 1031.45 234.553 1031.38 234.42C1031.31 234.28 1031.21 234.173 1031.08 234.1C1030.95 234.02 1030.78 233.98 1030.56 233.98C1030.4 233.98 1030.24 234.013 1030.09 234.08C1029.94 234.14 1029.81 234.233 1029.7 234.36C1029.59 234.487 1029.5 234.65 1029.43 234.85C1029.36 235.043 1029.33 235.273 1029.33 235.54V238H1028.43V233.26ZM1037.63 235.96C1037.63 236.167 1037.67 236.357 1037.76 236.53C1037.85 236.697 1037.97 236.84 1038.12 236.96C1038.26 237.08 1038.43 237.173 1038.63 237.24C1038.82 237.307 1039.02 237.34 1039.23 237.34C1039.51 237.34 1039.75 237.277 1039.96 237.15C1040.16 237.017 1040.35 236.843 1040.53 236.63L1041.21 237.15C1040.71 237.797 1040.01 238.12 1039.11 238.12C1038.73 238.12 1038.39 238.057 1038.09 237.93C1037.79 237.803 1037.53 237.63 1037.32 237.41C1037.11 237.183 1036.95 236.92 1036.84 236.62C1036.72 236.313 1036.67 235.983 1036.67 235.63C1036.67 235.277 1036.73 234.95 1036.85 234.65C1036.97 234.343 1037.14 234.08 1037.36 233.86C1037.58 233.633 1037.84 233.457 1038.14 233.33C1038.44 233.203 1038.76 233.14 1039.12 233.14C1039.54 233.14 1039.89 233.213 1040.18 233.36C1040.47 233.507 1040.71 233.7 1040.9 233.94C1041.08 234.173 1041.22 234.44 1041.3 234.74C1041.38 235.033 1041.43 235.333 1041.43 235.64V235.96H1037.63ZM1040.47 235.24C1040.46 235.04 1040.43 234.857 1040.37 234.69C1040.31 234.523 1040.23 234.38 1040.12 234.26C1040 234.133 1039.86 234.037 1039.69 233.97C1039.52 233.897 1039.32 233.86 1039.1 233.86C1038.88 233.86 1038.67 233.903 1038.49 233.99C1038.31 234.07 1038.15 234.177 1038.03 234.31C1037.9 234.443 1037.8 234.593 1037.73 234.76C1037.66 234.92 1037.63 235.08 1037.63 235.24H1040.47ZM1042.5 233.26H1043.4V233.99H1043.42C1043.48 233.863 1043.56 233.75 1043.66 233.65C1043.76 233.543 1043.87 233.453 1043.99 233.38C1044.12 233.307 1044.26 233.25 1044.4 233.21C1044.55 233.163 1044.7 233.14 1044.84 233.14C1044.99 233.14 1045.12 233.16 1045.24 233.2L1045.2 234.17C1045.13 234.15 1045.06 234.133 1044.98 234.12C1044.91 234.107 1044.84 234.1 1044.76 234.1C1044.32 234.1 1043.99 234.223 1043.75 234.47C1043.52 234.717 1043.4 235.1 1043.4 235.62V238H1042.5V233.26Z" fill="#161919"/>
<path d="M11.5617 216.077C11.5617 215.817 11.575 215.547 11.6017 215.267C11.6283 214.987 11.675 214.714 11.7417 214.447C11.815 214.174 11.9083 213.914 12.0217 213.667C12.1417 213.421 12.2917 213.207 12.4717 213.027C12.6583 212.841 12.875 212.694 13.1217 212.587C13.375 212.474 13.6683 212.417 14.0017 212.417C14.335 212.417 14.625 212.474 14.8717 212.587C15.125 212.694 15.3417 212.841 15.5217 213.027C15.7083 213.207 15.8583 213.421 15.9717 213.667C16.0917 213.914 16.185 214.174 16.2517 214.447C16.325 214.714 16.375 214.987 16.4017 215.267C16.4283 215.547 16.4417 215.817 16.4417 216.077C16.4417 216.451 16.4083 216.851 16.3417 217.277C16.275 217.704 16.1517 218.101 15.9717 218.467C15.7917 218.834 15.5417 219.137 15.2217 219.377C14.9083 219.617 14.5017 219.737 14.0017 219.737C13.5017 219.737 13.0917 219.617 12.7717 219.377C12.4583 219.137 12.2117 218.834 12.0317 218.467C11.8517 218.101 11.7283 217.704 11.6617 217.277C11.595 216.851 11.5617 216.451 11.5617 216.077ZM12.5217 216.077C12.5217 216.311 12.535 216.587 12.5617 216.907C12.595 217.227 12.6617 217.537 12.7617 217.837C12.8617 218.131 13.0083 218.381 13.2017 218.587C13.4017 218.794 13.6683 218.897 14.0017 218.897C14.335 218.897 14.5983 218.794 14.7917 218.587C14.9917 218.381 15.1417 218.131 15.2417 217.837C15.3417 217.537 15.405 217.227 15.4317 216.907C15.465 216.587 15.4817 216.311 15.4817 216.077C15.4817 215.917 15.475 215.737 15.4617 215.537C15.455 215.331 15.4317 215.124 15.3917 214.917C15.3583 214.704 15.3083 214.501 15.2417 214.307C15.175 214.107 15.085 213.931 14.9717 213.777C14.865 213.617 14.7317 213.491 14.5717 213.397C14.4117 213.304 14.2217 213.257 14.0017 213.257C13.7817 213.257 13.5917 213.304 13.4317 213.397C13.2717 213.491 13.135 213.617 13.0217 213.777C12.915 213.931 12.8283 214.107 12.7617 214.307C12.695 214.501 12.6417 214.704 12.6017 214.917C12.5683 215.124 12.545 215.331 12.5317 215.537C12.525 215.737 12.5217 215.917 12.5217 216.077Z" fill="#161919"/>
<path d="M1.2 168.641H0.25V167.861H1.31L1.51 166.421H0.56V165.641H1.62L1.9 163.601H2.69L2.41 165.641H3.57L3.85 163.601H4.64L4.36 165.641H5.31V166.421H4.25L4.05 167.861H5V168.641H3.94L3.66 170.681H2.87L3.15 168.641H1.99L1.71 170.681H0.92L1.2 168.641ZM2.3 166.421L2.1 167.861H3.26L3.46 166.421H2.3ZM10.2666 164.501H7.39664L7.36664 166.271C7.41331 166.251 7.47997 166.231 7.56664 166.211C7.65331 166.191 7.73997 166.174 7.82664 166.161C7.91997 166.147 8.00997 166.137 8.09664 166.131C8.18331 166.124 8.25664 166.121 8.31664 166.121C8.64997 166.121 8.94997 166.177 9.21664 166.291C9.48997 166.404 9.72331 166.564 9.91664 166.771C10.11 166.977 10.2566 167.224 10.3566 167.511C10.4633 167.797 10.5166 168.114 10.5166 168.461C10.5166 168.814 10.45 169.134 10.3166 169.421C10.19 169.707 10.0133 169.954 9.78664 170.161C9.55997 170.367 9.29664 170.527 8.99664 170.641C8.69664 170.747 8.37331 170.801 8.02664 170.801C7.54664 170.801 7.11331 170.677 6.72664 170.431C6.33997 170.184 6.06331 169.831 5.89664 169.371L6.86664 169.041C6.99331 169.367 7.16331 169.604 7.37664 169.751C7.58997 169.891 7.85664 169.961 8.17664 169.961C8.36331 169.961 8.53997 169.927 8.70664 169.861C8.87997 169.794 9.02664 169.701 9.14664 169.581C9.27331 169.454 9.37331 169.301 9.44664 169.121C9.51997 168.941 9.55664 168.737 9.55664 168.511C9.55664 167.991 9.39664 167.604 9.07664 167.351C8.76331 167.091 8.35331 166.961 7.84664 166.961C7.66664 166.961 7.43664 166.994 7.15664 167.061C6.88331 167.121 6.62664 167.211 6.38664 167.331L6.46664 163.601H10.2666V164.501ZM11.4533 167.141C11.4533 166.881 11.4666 166.611 11.4933 166.331C11.5199 166.051 11.5666 165.777 11.6333 165.511C11.7066 165.237 11.7999 164.977 11.9133 164.731C12.0333 164.484 12.1833 164.271 12.3633 164.091C12.5499 163.904 12.7666 163.757 13.0133 163.651C13.2666 163.537 13.5599 163.481 13.8933 163.481C14.2266 163.481 14.5166 163.537 14.7633 163.651C15.0166 163.757 15.2333 163.904 15.4133 164.091C15.5999 164.271 15.7499 164.484 15.8633 164.731C15.9833 164.977 16.0766 165.237 16.1433 165.511C16.2166 165.777 16.2666 166.051 16.2933 166.331C16.3199 166.611 16.3333 166.881 16.3333 167.141C16.3333 167.514 16.2999 167.914 16.2333 168.341C16.1666 168.767 16.0433 169.164 15.8633 169.531C15.6833 169.897 15.4333 170.201 15.1133 170.441C14.7999 170.681 14.3933 170.801 13.8933 170.801C13.3933 170.801 12.9833 170.681 12.6633 170.441C12.3499 170.201 12.1033 169.897 11.9233 169.531C11.7433 169.164 11.6199 168.767 11.5533 168.341C11.4866 167.914 11.4533 167.514 11.4533 167.141ZM12.4133 167.141C12.4133 167.374 12.4266 167.651 12.4533 167.971C12.4866 168.291 12.5533 168.601 12.6533 168.901C12.7533 169.194 12.8999 169.444 13.0933 169.651C13.2933 169.857 13.5599 169.961 13.8933 169.961C14.2266 169.961 14.4899 169.857 14.6833 169.651C14.8833 169.444 15.0333 169.194 15.1333 168.901C15.2333 168.601 15.2966 168.291 15.3233 167.971C15.3566 167.651 15.3733 167.374 15.3733 167.141C15.3733 166.981 15.3666 166.801 15.3533 166.601C15.3466 166.394 15.3233 166.187 15.2833 165.981C15.2499 165.767 15.1999 165.564 15.1333 165.371C15.0666 165.171 14.9766 164.994 14.8633 164.841C14.7566 164.681 14.6233 164.554 14.4633 164.461C14.3033 164.367 14.1133 164.321 13.8933 164.321C13.6733 164.321 13.4833 164.367 13.3233 164.461C13.1633 164.554 13.0266 164.681 12.9133 164.841C12.8066 164.994 12.7199 165.171 12.6533 165.371C12.5866 165.564 12.5333 165.767 12.4933 165.981C12.4599 166.187 12.4366 166.394 12.4233 166.601C12.4166 166.801 12.4133 166.981 12.4133 167.141ZM17.3499 163.121H18.2499V168.001L20.2899 165.951H21.5399L19.3299 168.101L21.7299 170.681H20.4499L18.2499 168.221V170.681H17.3499V163.121Z" fill="#161919"/>
<path d="M1.2 118.578H0.25V117.798H1.31L1.51 116.358H0.56V115.578H1.62L1.9 113.538H2.69L2.41 115.578H3.57L3.85 113.538H4.64L4.36 115.578H5.31V116.358H4.25L4.05 117.798H5V118.578H3.94L3.66 120.618H2.87L3.15 118.578H1.99L1.71 120.618H0.92L1.2 118.578ZM2.3 116.358L2.1 117.798H3.26L3.46 116.358H2.3ZM8.25664 114.638L6.95664 115.838L6.39664 115.168L8.36664 113.538H9.21664V120.618H8.25664V114.638ZM11.4533 117.078C11.4533 116.818 11.4666 116.548 11.4933 116.268C11.5199 115.988 11.5666 115.715 11.6333 115.448C11.7066 115.175 11.7999 114.915 11.9133 114.668C12.0333 114.421 12.1833 114.208 12.3633 114.028C12.5499 113.841 12.7666 113.695 13.0133 113.588C13.2666 113.475 13.5599 113.418 13.8933 113.418C14.2266 113.418 14.5166 113.475 14.7633 113.588C15.0166 113.695 15.2333 113.841 15.4133 114.028C15.5999 114.208 15.7499 114.421 15.8633 114.668C15.9833 114.915 16.0766 115.175 16.1433 115.448C16.2166 115.715 16.2666 115.988 16.2933 116.268C16.3199 116.548 16.3333 116.818 16.3333 117.078C16.3333 117.451 16.2999 117.851 16.2333 118.278C16.1666 118.705 16.0433 119.101 15.8633 119.468C15.6833 119.835 15.4333 120.138 15.1133 120.378C14.7999 120.618 14.3933 120.738 13.8933 120.738C13.3933 120.738 12.9833 120.618 12.6633 120.378C12.3499 120.138 12.1033 119.835 11.9233 119.468C11.7433 119.101 11.6199 118.705 11.5533 118.278C11.4866 117.851 11.4533 117.451 11.4533 117.078ZM12.4133 117.078C12.4133 117.311 12.4266 117.588 12.4533 117.908C12.4866 118.228 12.5533 118.538 12.6533 118.838C12.7533 119.131 12.8999 119.381 13.0933 119.588C13.2933 119.795 13.5599 119.898 13.8933 119.898C14.2266 119.898 14.4899 119.795 14.6833 119.588C14.8833 119.381 15.0333 119.131 15.1333 118.838C15.2333 118.538 15.2966 118.228 15.3233 117.908C15.3566 117.588 15.3733 117.311 15.3733 117.078C15.3733 116.918 15.3666 116.738 15.3533 116.538C15.3466 116.331 15.3233 116.125 15.2833 115.918C15.2499 115.705 15.1999 115.501 15.1333 115.308C15.0666 115.108 14.9766 114.931 14.8633 114.778C14.7566 114.618 14.6233 114.491 14.4633 114.398C14.3033 114.305 14.1133 114.258 13.8933 114.258C13.6733 114.258 13.4833 114.305 13.3233 114.398C13.1633 114.491 13.0266 114.618 12.9133 114.778C12.8066 114.931 12.7199 115.108 12.6533 115.308C12.5866 115.501 12.5333 115.705 12.4933 115.918C12.4599 116.125 12.4366 116.331 12.4233 116.538C12.4166 116.738 12.4133 116.918 12.4133 117.078ZM17.0099 117.078C17.0099 116.818 17.0233 116.548 17.0499 116.268C17.0766 115.988 17.1233 115.715 17.1899 115.448C17.2633 115.175 17.3566 114.915 17.4699 114.668C17.5899 114.421 17.7399 114.208 17.9199 114.028C18.1066 113.841 18.3233 113.695 18.5699 113.588C18.8233 113.475 19.1166 113.418 19.4499 113.418C19.7833 113.418 20.0733 113.475 20.3199 113.588C20.5733 113.695 20.7899 113.841 20.9699 114.028C21.1566 114.208 21.3066 114.421 21.4199 114.668C21.5399 114.915 21.6333 115.175 21.6999 115.448C21.7733 115.715 21.8233 115.988 21.8499 116.268C21.8766 116.548 21.8899 116.818 21.8899 117.078C21.8899 117.451 21.8566 117.851 21.7899 118.278C21.7233 118.705 21.5999 119.101 21.4199 119.468C21.2399 119.835 20.9899 120.138 20.6699 120.378C20.3566 120.618 19.9499 120.738 19.4499 120.738C18.9499 120.738 18.5399 120.618 18.2199 120.378C17.9066 120.138 17.6599 119.835 17.4799 119.468C17.2999 119.101 17.1766 118.705 17.1099 118.278C17.0433 117.851 17.0099 117.451 17.0099 117.078ZM17.9699 117.078C17.9699 117.311 17.9833 117.588 18.0099 117.908C18.0433 118.228 18.1099 118.538 18.2099 118.838C18.3099 119.131 18.4566 119.381 18.6499 119.588C18.8499 119.795 19.1166 119.898 19.4499 119.898C19.7833 119.898 20.0466 119.795 20.2399 119.588C20.4399 119.381 20.5899 119.131 20.6899 118.838C20.7899 118.538 20.8533 118.228 20.8799 117.908C20.9133 117.588 20.9299 117.311 20.9299 117.078C20.9299 116.918 20.9233 116.738 20.9099 116.538C20.9033 116.331 20.8799 116.125 20.8399 115.918C20.8066 115.705 20.7566 115.501 20.6899 115.308C20.6233 115.108 20.5333 114.931 20.4199 114.778C20.3133 114.618 20.1799 114.491 20.0199 114.398C19.8599 114.305 19.6699 114.258 19.4499 114.258C19.2299 114.258 19.0399 114.305 18.8799 114.398C18.7199 114.491 18.5833 114.618 18.4699 114.778C18.3633 114.931 18.2766 115.108 18.2099 115.308C18.1433 115.501 18.0899 115.705 18.0499 115.918C18.0166 116.125 17.9933 116.331 17.9799 116.538C17.9733 116.738 17.9699 116.918 17.9699 117.078ZM22.9066 113.058H23.8066V117.938L25.8466 115.888H27.0966L24.8866 118.038L27.2866 120.618H26.0066L23.8066 118.158V120.618H22.9066V113.058Z" fill="#161919"/>
<path d="M1.2 66.8467H0.25V66.0667H1.31L1.51 64.6267H0.56V63.8467H1.62L1.9 61.8067H2.69L2.41 63.8467H3.57L3.85 61.8067H4.64L4.36 63.8467H5.31V64.6267H4.25L4.05 66.0667H5V66.8467H3.94L3.66 68.8867H2.87L3.15 66.8467H1.99L1.71 68.8867H0.92L1.2 66.8467ZM2.3 64.6267L2.1 66.0667H3.26L3.46 64.6267H2.3ZM8.25664 62.9067L6.95664 64.1067L6.39664 63.4367L8.36664 61.8067H9.21664V68.8867H8.25664V62.9067ZM15.8233 62.7067H12.9533L12.9233 64.4767C12.9699 64.4567 13.0366 64.4367 13.1233 64.4167C13.2099 64.3967 13.2966 64.3801 13.3833 64.3667C13.4766 64.3534 13.5666 64.3434 13.6533 64.3367C13.7399 64.3301 13.8133 64.3267 13.8733 64.3267C14.2066 64.3267 14.5066 64.3834 14.7733 64.4967C15.0466 64.6101 15.2799 64.7701 15.4733 64.9767C15.6666 65.1834 15.8133 65.4301 15.9133 65.7167C16.0199 66.0034 16.0733 66.3201 16.0733 66.6667C16.0733 67.0201 16.0066 67.3401 15.8733 67.6267C15.7466 67.9134 15.5699 68.1601 15.3433 68.3667C15.1166 68.5734 14.8533 68.7334 14.5533 68.8467C14.2533 68.9534 13.9299 69.0067 13.5833 69.0067C13.1033 69.0067 12.6699 68.8834 12.2833 68.6367C11.8966 68.3901 11.6199 68.0367 11.4533 67.5767L12.4233 67.2467C12.5499 67.5734 12.7199 67.8101 12.9333 67.9567C13.1466 68.0967 13.4133 68.1667 13.7333 68.1667C13.9199 68.1667 14.0966 68.1334 14.2633 68.0667C14.4366 68.0001 14.5833 67.9067 14.7033 67.7867C14.8299 67.6601 14.9299 67.5067 15.0033 67.3267C15.0766 67.1467 15.1133 66.9434 15.1133 66.7167C15.1133 66.1967 14.9533 65.8101 14.6333 65.5567C14.3199 65.2967 13.9099 65.1667 13.4033 65.1667C13.2233 65.1667 12.9933 65.2001 12.7133 65.2667C12.4399 65.3267 12.1833 65.4167 11.9433 65.5367L12.0233 61.8067H15.8233V62.7067ZM17.0099 65.3467C17.0099 65.0867 17.0233 64.8167 17.0499 64.5367C17.0766 64.2567 17.1233 63.9834 17.1899 63.7167C17.2633 63.4434 17.3566 63.1834 17.4699 62.9367C17.5899 62.6901 17.7399 62.4767 17.9199 62.2967C18.1066 62.1101 18.3233 61.9634 18.5699 61.8567C18.8233 61.7434 19.1166 61.6867 19.4499 61.6867C19.7833 61.6867 20.0733 61.7434 20.3199 61.8567C20.5733 61.9634 20.7899 62.1101 20.9699 62.2967C21.1566 62.4767 21.3066 62.6901 21.4199 62.9367C21.5399 63.1834 21.6333 63.4434 21.6999 63.7167C21.7733 63.9834 21.8233 64.2567 21.8499 64.5367C21.8766 64.8167 21.8899 65.0867 21.8899 65.3467C21.8899 65.7201 21.8566 66.1201 21.7899 66.5467C21.7233 66.9734 21.5999 67.3701 21.4199 67.7367C21.2399 68.1034 20.9899 68.4067 20.6699 68.6467C20.3566 68.8867 19.9499 69.0067 19.4499 69.0067C18.9499 69.0067 18.5399 68.8867 18.2199 68.6467C17.9066 68.4067 17.6599 68.1034 17.4799 67.7367C17.2999 67.3701 17.1766 66.9734 17.1099 66.5467C17.0433 66.1201 17.0099 65.7201 17.0099 65.3467ZM17.9699 65.3467C17.9699 65.5801 17.9833 65.8567 18.0099 66.1767C18.0433 66.4967 18.1099 66.8067 18.2099 67.1067C18.3099 67.4001 18.4566 67.6501 18.6499 67.8567C18.8499 68.0634 19.1166 68.1667 19.4499 68.1667C19.7833 68.1667 20.0466 68.0634 20.2399 67.8567C20.4399 67.6501 20.5899 67.4001 20.6899 67.1067C20.7899 66.8067 20.8533 66.4967 20.8799 66.1767C20.9133 65.8567 20.9299 65.5801 20.9299 65.3467C20.9299 65.1867 20.9233 65.0067 20.9099 64.8067C20.9033 64.6001 20.8799 64.3934 20.8399 64.1867C20.8066 63.9734 20.7566 63.7701 20.6899 63.5767C20.6233 63.3767 20.5333 63.2001 20.4199 63.0467C20.3133 62.8867 20.1799 62.7601 20.0199 62.6667C19.8599 62.5734 19.6699 62.5267 19.4499 62.5267C19.2299 62.5267 19.0399 62.5734 18.8799 62.6667C18.7199 62.7601 18.5833 62.8867 18.4699 63.0467C18.3633 63.2001 18.2766 63.3767 18.2099 63.5767C18.1433 63.7701 18.0899 63.9734 18.0499 64.1867C18.0166 64.3934 17.9933 64.6001 17.9799 64.8067C17.9733 65.0067 17.9699 65.1867 17.9699 65.3467ZM22.9066 61.3267H23.8066V66.2067L25.8466 64.1567H27.0966L24.8866 66.3067L27.2866 68.8867H26.0066L23.8066 66.4267V68.8867H22.9066V61.3267Z" fill="#161919"/>
<path d="M1.2 15.9502H0.25V15.1702H1.31L1.51 13.7302H0.56V12.9502H1.62L1.9 10.9102H2.69L2.41 12.9502H3.57L3.85 10.9102H4.64L4.36 12.9502H5.31V13.7302H4.25L4.05 15.1702H5V15.9502H3.94L3.66 17.9902H2.87L3.15 15.9502H1.99L1.71 17.9902H0.92L1.2 15.9502ZM2.3 13.7302L2.1 15.1702H3.26L3.46 13.7302H2.3ZM6.01664 16.9702L8.85664 14.1502C8.95664 14.0569 9.05331 13.9569 9.14664 13.8502C9.23997 13.7369 9.32331 13.6202 9.39664 13.5002C9.46997 13.3802 9.52664 13.2536 9.56664 13.1202C9.61331 12.9869 9.63664 12.8469 9.63664 12.7002C9.63664 12.5269 9.60331 12.3702 9.53664 12.2302C9.47664 12.0902 9.38997 11.9736 9.27664 11.8802C9.16997 11.7802 9.03997 11.7036 8.88664 11.6502C8.73997 11.5969 8.58331 11.5702 8.41664 11.5702C8.06997 11.5702 7.78331 11.6669 7.55664 11.8602C7.32997 12.0536 7.18664 12.3202 7.12664 12.6602L6.08664 12.5702C6.13331 12.2569 6.22331 11.9869 6.35664 11.7602C6.49664 11.5269 6.66664 11.3336 6.86664 11.1802C7.07331 11.0269 7.30664 10.9136 7.56664 10.8402C7.83331 10.7669 8.11997 10.7302 8.42664 10.7302C8.73331 10.7302 9.01997 10.7736 9.28664 10.8602C9.55997 10.9402 9.79664 11.0636 9.99664 11.2302C10.2033 11.3902 10.3633 11.5936 10.4766 11.8402C10.5966 12.0802 10.6566 12.3636 10.6566 12.6902C10.6566 12.9236 10.62 13.1436 10.5466 13.3502C10.48 13.5502 10.39 13.7402 10.2766 13.9202C10.1633 14.1002 10.0333 14.2702 9.88664 14.4302C9.73997 14.5902 9.58664 14.7469 9.42664 14.9002L7.09664 17.1502H10.6566V17.9902H6.01664V16.9702ZM11.4533 14.4502C11.4533 14.1902 11.4666 13.9202 11.4933 13.6402C11.5199 13.3602 11.5666 13.0869 11.6333 12.8202C11.7066 12.5469 11.7999 12.2869 11.9133 12.0402C12.0333 11.7936 12.1833 11.5802 12.3633 11.4002C12.5499 11.2136 12.7666 11.0669 13.0133 10.9602C13.2666 10.8469 13.5599 10.7902 13.8933 10.7902C14.2266 10.7902 14.5166 10.8469 14.7633 10.9602C15.0166 11.0669 15.2333 11.2136 15.4133 11.4002C15.5999 11.5802 15.7499 11.7936 15.8633 12.0402C15.9833 12.2869 16.0766 12.5469 16.1433 12.8202C16.2166 13.0869 16.2666 13.3602 16.2933 13.6402C16.3199 13.9202 16.3333 14.1902 16.3333 14.4502C16.3333 14.8236 16.2999 15.2236 16.2333 15.6502C16.1666 16.0769 16.0433 16.4736 15.8633 16.8402C15.6833 17.2069 15.4333 17.5102 15.1133 17.7502C14.7999 17.9902 14.3933 18.1102 13.8933 18.1102C13.3933 18.1102 12.9833 17.9902 12.6633 17.7502C12.3499 17.5102 12.1033 17.2069 11.9233 16.8402C11.7433 16.4736 11.6199 16.0769 11.5533 15.6502C11.4866 15.2236 11.4533 14.8236 11.4533 14.4502ZM12.4133 14.4502C12.4133 14.6836 12.4266 14.9602 12.4533 15.2802C12.4866 15.6002 12.5533 15.9102 12.6533 16.2102C12.7533 16.5036 12.8999 16.7536 13.0933 16.9602C13.2933 17.1669 13.5599 17.2702 13.8933 17.2702C14.2266 17.2702 14.4899 17.1669 14.6833 16.9602C14.8833 16.7536 15.0333 16.5036 15.1333 16.2102C15.2333 15.9102 15.2966 15.6002 15.3233 15.2802C15.3566 14.9602 15.3733 14.6836 15.3733 14.4502C15.3733 14.2902 15.3666 14.1102 15.3533 13.9102C15.3466 13.7036 15.3233 13.4969 15.2833 13.2902C15.2499 13.0769 15.1999 12.8736 15.1333 12.6802C15.0666 12.4802 14.9766 12.3036 14.8633 12.1502C14.7566 11.9902 14.6233 11.8636 14.4633 11.7702C14.3033 11.6769 14.1133 11.6302 13.8933 11.6302C13.6733 11.6302 13.4833 11.6769 13.3233 11.7702C13.1633 11.8636 13.0266 11.9902 12.9133 12.1502C12.8066 12.3036 12.7199 12.4802 12.6533 12.6802C12.5866 12.8736 12.5333 13.0769 12.4933 13.2902C12.4599 13.4969 12.4366 13.7036 12.4233 13.9102C12.4166 14.1102 12.4133 14.2902 12.4133 14.4502ZM17.0099 14.4502C17.0099 14.1902 17.0233 13.9202 17.0499 13.6402C17.0766 13.3602 17.1233 13.0869 17.1899 12.8202C17.2633 12.5469 17.3566 12.2869 17.4699 12.0402C17.5899 11.7936 17.7399 11.5802 17.9199 11.4002C18.1066 11.2136 18.3233 11.0669 18.5699 10.9602C18.8233 10.8469 19.1166 10.7902 19.4499 10.7902C19.7833 10.7902 20.0733 10.8469 20.3199 10.9602C20.5733 11.0669 20.7899 11.2136 20.9699 11.4002C21.1566 11.5802 21.3066 11.7936 21.4199 12.0402C21.5399 12.2869 21.6333 12.5469 21.6999 12.8202C21.7733 13.0869 21.8233 13.3602 21.8499 13.6402C21.8766 13.9202 21.8899 14.1902 21.8899 14.4502C21.8899 14.8236 21.8566 15.2236 21.7899 15.6502C21.7233 16.0769 21.5999 16.4736 21.4199 16.8402C21.2399 17.2069 20.9899 17.5102 20.6699 17.7502C20.3566 17.9902 19.9499 18.1102 19.4499 18.1102C18.9499 18.1102 18.5399 17.9902 18.2199 17.7502C17.9066 17.5102 17.6599 17.2069 17.4799 16.8402C17.2999 16.4736 17.1766 16.0769 17.1099 15.6502C17.0433 15.2236 17.0099 14.8236 17.0099 14.4502ZM17.9699 14.4502C17.9699 14.6836 17.9833 14.9602 18.0099 15.2802C18.0433 15.6002 18.1099 15.9102 18.2099 16.2102C18.3099 16.5036 18.4566 16.7536 18.6499 16.9602C18.8499 17.1669 19.1166 17.2702 19.4499 17.2702C19.7833 17.2702 20.0466 17.1669 20.2399 16.9602C20.4399 16.7536 20.5899 16.5036 20.6899 16.2102C20.7899 15.9102 20.8533 15.6002 20.8799 15.2802C20.9133 14.9602 20.9299 14.6836 20.9299 14.4502C20.9299 14.2902 20.9233 14.1102 20.9099 13.9102C20.9033 13.7036 20.8799 13.4969 20.8399 13.2902C20.8066 13.0769 20.7566 12.8736 20.6899 12.6802C20.6233 12.4802 20.5333 12.3036 20.4199 12.1502C20.3133 11.9902 20.1799 11.8636 20.0199 11.7702C19.8599 11.6769 19.6699 11.6302 19.4499 11.6302C19.2299 11.6302 19.0399 11.6769 18.8799 11.7702C18.7199 11.8636 18.5833 11.9902 18.4699 12.1502C18.3633 12.3036 18.2766 12.4802 18.2099 12.6802C18.1433 12.8736 18.0899 13.0769 18.0499 13.2902C18.0166 13.4969 17.9933 13.7036 17.9799 13.9102C17.9733 14.1102 17.9699 14.2902 17.9699 14.4502ZM22.9066 10.4302H23.8066V15.3102L25.8466 13.2602H27.0966L24.8866 15.4102L27.2866 17.9902H26.0066L23.8066 15.5302V17.9902H22.9066V10.4302Z" fill="#161919"/>
<path fill-rule="evenodd" clip-rule="evenodd" d="M457 34C455.895 34 455 34.8954 455 36V70C455 71.1046 455.895 72 457 72H500.035C500.058 72.0846 500.092 72.1685 500.139 72.25L506.634 83.5C507.019 84.1667 507.981 84.1667 508.366 83.5L514.861 72.25C514.908 72.1685 514.942 72.0846 514.965 72H559C560.105 72 561 71.1046 561 70V36C561 34.8954 560.105 34 559 34H457Z" fill="#5A5C5D"/>
<path d="M480.24 44.824L478.68 46.264L478.008 45.46L480.372 43.504H481.392V52H480.24V44.824ZM484.22 50.776L487.628 47.392C487.748 47.28 487.864 47.16 487.976 47.032C488.088 46.896 488.188 46.756 488.276 46.612C488.364 46.468 488.432 46.316 488.48 46.156C488.536 45.996 488.564 45.828 488.564 45.652C488.564 45.444 488.524 45.256 488.444 45.088C488.372 44.92 488.268 44.78 488.132 44.668C488.004 44.548 487.848 44.456 487.664 44.392C487.488 44.328 487.3 44.296 487.1 44.296C486.684 44.296 486.34 44.412 486.068 44.644C485.796 44.876 485.624 45.196 485.552 45.604L484.304 45.496C484.36 45.12 484.468 44.796 484.628 44.524C484.796 44.244 485 44.012 485.24 43.828C485.488 43.644 485.768 43.508 486.08 43.42C486.4 43.332 486.744 43.288 487.112 43.288C487.48 43.288 487.824 43.34 488.144 43.444C488.472 43.54 488.756 43.688 488.996 43.888C489.244 44.08 489.436 44.324 489.572 44.62C489.716 44.908 489.788 45.248 489.788 45.64C489.788 45.92 489.744 46.184 489.656 46.432C489.576 46.672 489.468 46.9 489.332 47.116C489.196 47.332 489.04 47.536 488.864 47.728C488.688 47.92 488.504 48.108 488.312 48.292L485.516 50.992H489.788V52H484.22V50.776ZM490.744 47.752C490.744 47.44 490.76 47.116 490.792 46.78C490.824 46.444 490.88 46.116 490.96 45.796C491.048 45.468 491.16 45.156 491.296 44.86C491.44 44.564 491.62 44.308 491.836 44.092C492.06 43.868 492.32 43.692 492.616 43.564C492.92 43.428 493.272 43.36 493.672 43.36C494.072 43.36 494.42 43.428 494.716 43.564C495.02 43.692 495.28 43.868 495.496 44.092C495.72 44.308 495.9 44.564 496.036 44.86C496.18 45.156 496.292 45.468 496.372 45.796C496.46 46.116 496.52 46.444 496.552 46.78C496.584 47.116 496.6 47.44 496.6 47.752C496.6 48.2 496.56 48.68 496.48 49.192C496.4 49.704 496.252 50.18 496.036 50.62C495.82 51.06 495.52 51.424 495.136 51.712C494.76 52 494.272 52.144 493.672 52.144C493.072 52.144 492.58 52 492.196 51.712C491.82 51.424 491.524 51.06 491.308 50.62C491.092 50.18 490.944 49.704 490.864 49.192C490.784 48.68 490.744 48.2 490.744 47.752ZM491.896 47.752C491.896 48.032 491.912 48.364 491.944 48.748C491.984 49.132 492.064 49.504 492.184 49.864C492.304 50.216 492.48 50.516 492.712 50.764C492.952 51.012 493.272 51.136 493.672 51.136C494.072 51.136 494.388 51.012 494.62 50.764C494.86 50.516 495.04 50.216 495.16 49.864C495.28 49.504 495.356 49.132 495.388 48.748C495.428 48.364 495.448 48.032 495.448 47.752C495.448 47.56 495.44 47.344 495.424 47.104C495.416 46.856 495.388 46.608 495.34 46.36C495.3 46.104 495.24 45.86 495.16 45.628C495.08 45.388 494.972 45.176 494.836 44.992C494.708 44.8 494.548 44.648 494.356 44.536C494.164 44.424 493.936 44.368 493.672 44.368C493.408 44.368 493.18 44.424 492.988 44.536C492.796 44.648 492.632 44.8 492.496 44.992C492.368 45.176 492.264 45.388 492.184 45.628C492.104 45.86 492.04 46.104 491.992 46.36C491.952 46.608 491.924 46.856 491.908 47.104C491.9 47.344 491.896 47.56 491.896 47.752ZM501.436 43.504H506.92V44.584H502.588V47.116H506.62V48.196H502.588V50.92H507.136V52H501.436V43.504ZM508.496 46.312H509.576V47.188H509.6C509.736 46.884 509.972 46.64 510.308 46.456C510.644 46.264 511.032 46.168 511.472 46.168C511.744 46.168 512.004 46.212 512.252 46.3C512.508 46.38 512.728 46.508 512.912 46.684C513.104 46.86 513.256 47.088 513.368 47.368C513.48 47.64 513.536 47.964 513.536 48.34V52H512.456V48.64C512.456 48.376 512.42 48.152 512.348 47.968C512.276 47.776 512.18 47.624 512.06 47.512C511.94 47.392 511.8 47.308 511.64 47.26C511.488 47.204 511.328 47.176 511.16 47.176C510.936 47.176 510.728 47.212 510.536 47.284C510.344 47.356 510.176 47.472 510.032 47.632C509.888 47.784 509.776 47.98 509.696 48.22C509.616 48.46 509.576 48.744 509.576 49.072V52H508.496V46.312ZM518.212 47.248H516.664V49.828C516.664 49.988 516.668 50.148 516.676 50.308C516.684 50.46 516.712 50.6 516.76 50.728C516.816 50.848 516.896 50.948 517 51.028C517.112 51.1 517.272 51.136 517.48 51.136C517.608 51.136 517.74 51.124 517.876 51.1C518.012 51.076 518.136 51.032 518.248 50.968V51.952C518.12 52.024 517.952 52.072 517.744 52.096C517.544 52.128 517.388 52.144 517.276 52.144C516.86 52.144 516.536 52.088 516.304 51.976C516.08 51.856 515.912 51.704 515.8 51.52C515.696 51.336 515.632 51.132 515.608 50.908C515.592 50.676 515.584 50.444 515.584 50.212V47.248H514.336V46.312H515.584V44.716H516.664V46.312H518.212V47.248ZM519.605 46.312H520.685V47.188H520.709C520.781 47.036 520.877 46.9 520.997 46.78C521.117 46.652 521.249 46.544 521.393 46.456C521.545 46.368 521.709 46.3 521.885 46.252C522.061 46.196 522.237 46.168 522.413 46.168C522.589 46.168 522.749 46.192 522.893 46.24L522.845 47.404C522.757 47.38 522.669 47.36 522.581 47.344C522.493 47.328 522.405 47.32 522.317 47.32C521.789 47.32 521.385 47.468 521.105 47.764C520.825 48.06 520.685 48.52 520.685 49.144V52H519.605V46.312ZM524.13 46.312H525.21V52H524.13V46.312ZM523.878 44.272C523.878 44.056 523.954 43.872 524.106 43.72C524.266 43.56 524.454 43.48 524.67 43.48C524.886 43.48 525.07 43.56 525.222 43.72C525.382 43.872 525.462 44.056 525.462 44.272C525.462 44.488 525.382 44.676 525.222 44.836C525.07 44.988 524.886 45.064 524.67 45.064C524.454 45.064 524.266 44.988 524.106 44.836C523.954 44.676 523.878 44.488 523.878 44.272ZM527.745 49.552C527.745 49.8 527.797 50.028 527.901 50.236C528.013 50.436 528.157 50.608 528.333 50.752C528.509 50.896 528.713 51.008 528.945 51.088C529.177 51.168 529.417 51.208 529.665 51.208C530.001 51.208 530.293 51.132 530.541 50.98C530.789 50.82 531.017 50.612 531.225 50.356L532.041 50.98C531.441 51.756 530.601 52.144 529.521 52.144C529.073 52.144 528.665 52.068 528.297 51.916C527.937 51.764 527.629 51.556 527.373 51.292C527.125 51.02 526.933 50.704 526.797 50.344C526.661 49.976 526.593 49.58 526.593 49.156C526.593 48.732 526.665 48.34 526.809 47.98C526.961 47.612 527.165 47.296 527.421 47.032C527.685 46.76 527.997 46.548 528.357 46.396C528.717 46.244 529.109 46.168 529.533 46.168C530.037 46.168 530.461 46.256 530.805 46.432C531.157 46.608 531.445 46.84 531.669 47.128C531.893 47.408 532.053 47.728 532.149 48.088C532.253 48.44 532.305 48.8 532.305 49.168V49.552H527.745ZM531.153 48.688C531.145 48.448 531.105 48.228 531.033 48.028C530.969 47.828 530.869 47.656 530.733 47.512C530.597 47.36 530.425 47.244 530.217 47.164C530.017 47.076 529.781 47.032 529.509 47.032C529.245 47.032 529.001 47.084 528.777 47.188C528.561 47.284 528.377 47.412 528.225 47.572C528.073 47.732 527.953 47.912 527.865 48.112C527.785 48.304 527.745 48.496 527.745 48.688H531.153ZM536.621 47.74C536.493 47.58 536.333 47.448 536.141 47.344C535.957 47.232 535.729 47.176 535.457 47.176C535.201 47.176 534.977 47.232 534.785 47.344C534.601 47.448 534.509 47.604 534.509 47.812C534.509 47.98 534.561 48.116 534.665 48.22C534.777 48.324 534.905 48.408 535.049 48.472C535.201 48.536 535.361 48.584 535.529 48.616C535.697 48.648 535.841 48.676 535.961 48.7C536.193 48.756 536.409 48.824 536.609 48.904C536.817 48.984 536.993 49.088 537.137 49.216C537.289 49.344 537.405 49.5 537.485 49.684C537.573 49.868 537.617 50.092 537.617 50.356C537.617 50.676 537.549 50.952 537.413 51.184C537.277 51.408 537.101 51.592 536.885 51.736C536.669 51.88 536.421 51.984 536.141 52.048C535.869 52.112 535.593 52.144 535.313 52.144C534.841 52.144 534.425 52.072 534.065 51.928C533.713 51.784 533.397 51.52 533.117 51.136L533.933 50.464C534.109 50.64 534.305 50.796 534.521 50.932C534.737 51.068 535.001 51.136 535.313 51.136C535.449 51.136 535.585 51.124 535.721 51.1C535.865 51.068 535.989 51.024 536.093 50.968C536.205 50.904 536.293 50.828 536.357 50.74C536.429 50.644 536.465 50.536 536.465 50.416C536.465 50.256 536.413 50.124 536.309 50.02C536.213 49.916 536.093 49.836 535.949 49.78C535.813 49.716 535.665 49.668 535.505 49.636C535.353 49.596 535.217 49.564 535.097 49.54C534.865 49.484 534.645 49.42 534.437 49.348C534.229 49.276 534.045 49.18 533.885 49.06C533.725 48.94 533.597 48.788 533.501 48.604C533.405 48.42 533.357 48.192 533.357 47.92C533.357 47.624 533.417 47.368 533.537 47.152C533.665 46.928 533.829 46.744 534.029 46.6C534.237 46.456 534.469 46.348 534.725 46.276C534.989 46.204 535.253 46.168 535.517 46.168C535.901 46.168 536.269 46.24 536.621 46.384C536.973 46.528 537.253 46.768 537.461 47.104L536.621 47.74Z" fill="#E5E8ED"/>
<path d="M481.632 58.336H483.536C483.808 58.336 484.069 58.3627 484.32 58.416C484.576 58.4693 484.8 58.56 484.992 58.688C485.184 58.8107 485.336 58.9787 485.448 59.192C485.565 59.4 485.624 59.6613 485.624 59.976C485.624 60.3333 485.563 60.6213 485.44 60.84C485.317 61.0587 485.152 61.2293 484.944 61.352C484.736 61.4693 484.493 61.5493 484.216 61.592C483.944 61.6347 483.659 61.656 483.36 61.656H482.64V64H481.632V58.336ZM483.248 60.792C483.392 60.792 483.541 60.7867 483.696 60.776C483.851 60.7653 483.992 60.7333 484.12 60.68C484.253 60.6267 484.36 60.5467 484.44 60.44C484.525 60.3333 484.568 60.184 484.568 59.992C484.568 59.816 484.531 59.6773 484.456 59.576C484.381 59.4693 484.285 59.3893 484.168 59.336C484.051 59.2773 483.92 59.24 483.776 59.224C483.632 59.208 483.493 59.2 483.36 59.2H482.64V60.792H483.248ZM487.761 58.336H488.633L491.073 64H489.921L489.393 62.704H486.937L486.425 64H485.297L487.761 58.336ZM489.041 61.84L488.169 59.536L487.281 61.84H489.041ZM492.128 59.248H490.392V58.336H494.872V59.248H493.136V64H492.128V59.248ZM495.562 58.336H499.314V59.248H496.57V60.64H499.17V61.552H496.57V63.088H499.458V64H495.562V58.336ZM500.452 58.336H501.46V60.736H501.508L503.852 58.336H505.212L502.564 60.952L505.388 64H503.972L501.516 61.216H501.46V64H500.452V58.336ZM508.296 58.336H510.2C510.472 58.336 510.733 58.3627 510.984 58.416C511.24 58.4693 511.464 58.56 511.656 58.688C511.848 58.8107 512 58.9787 512.112 59.192C512.229 59.4 512.288 59.6613 512.288 59.976C512.288 60.3333 512.227 60.6213 512.104 60.84C511.981 61.0587 511.816 61.2293 511.608 61.352C511.4 61.4693 511.157 61.5493 510.88 61.592C510.608 61.6347 510.323 61.656 510.024 61.656H509.304V64H508.296V58.336ZM509.912 60.792C510.056 60.792 510.205 60.7867 510.36 60.776C510.515 60.7653 510.656 60.7333 510.784 60.68C510.917 60.6267 511.024 60.5467 511.104 60.44C511.189 60.3333 511.232 60.184 511.232 59.992C511.232 59.816 511.195 59.6773 511.12 59.576C511.045 59.4693 510.949 59.3893 510.832 59.336C510.715 59.2773 510.584 59.24 510.44 59.224C510.296 59.208 510.157 59.2 510.024 59.2H509.304V60.792H509.912ZM513.099 60.16H514.059V60.768H514.075C514.181 60.544 514.333 60.3707 514.531 60.248C514.728 60.1253 514.955 60.064 515.211 60.064C515.269 60.064 515.325 60.0693 515.379 60.08C515.437 60.0907 515.496 60.104 515.555 60.12V61.048C515.475 61.0267 515.395 61.0107 515.315 61C515.24 60.984 515.165 60.976 515.091 60.976C514.867 60.976 514.685 61.0187 514.547 61.104C514.413 61.184 514.309 61.2773 514.235 61.384C514.165 61.4907 514.117 61.5973 514.091 61.704C514.069 61.8107 514.059 61.8907 514.059 61.944V64H513.099V60.16ZM515.875 62.08C515.875 61.776 515.929 61.5013 516.035 61.256C516.147 61.0053 516.297 60.792 516.483 60.616C516.67 60.44 516.891 60.304 517.147 60.208C517.403 60.112 517.675 60.064 517.963 60.064C518.251 60.064 518.523 60.112 518.779 60.208C519.035 60.304 519.257 60.44 519.443 60.616C519.63 60.792 519.777 61.0053 519.883 61.256C519.995 61.5013 520.051 61.776 520.051 62.08C520.051 62.384 519.995 62.6613 519.883 62.912C519.777 63.1573 519.63 63.368 519.443 63.544C519.257 63.72 519.035 63.856 518.779 63.952C518.523 64.048 518.251 64.096 517.963 64.096C517.675 64.096 517.403 64.048 517.147 63.952C516.891 63.856 516.67 63.72 516.483 63.544C516.297 63.368 516.147 63.1573 516.035 62.912C515.929 62.6613 515.875 62.384 515.875 62.08ZM516.835 62.08C516.835 62.2293 516.859 62.3733 516.907 62.512C516.961 62.6507 517.035 62.7733 517.131 62.88C517.233 62.9867 517.353 63.072 517.491 63.136C517.63 63.2 517.787 63.232 517.963 63.232C518.139 63.232 518.297 63.2 518.435 63.136C518.574 63.072 518.691 62.9867 518.787 62.88C518.889 62.7733 518.963 62.6507 519.011 62.512C519.065 62.3733 519.091 62.2293 519.091 62.08C519.091 61.9307 519.065 61.7867 519.011 61.648C518.963 61.5093 518.889 61.3867 518.787 61.28C518.691 61.1733 518.574 61.088 518.435 61.024C518.297 60.96 518.139 60.928 517.963 60.928C517.787 60.928 517.63 60.96 517.491 61.024C517.353 61.088 517.233 61.1733 517.131 61.28C517.035 61.3867 516.961 61.5093 516.907 61.648C516.859 61.7867 516.835 61.9307 516.835 62.08ZM521.926 60.16V64.232C521.926 64.472 521.91 64.6933 521.878 64.896C521.846 65.104 521.782 65.2827 521.686 65.432C521.596 65.5867 521.465 65.7067 521.294 65.792C521.124 65.8773 520.902 65.92 520.63 65.92C520.54 65.92 520.452 65.9147 520.366 65.904C520.281 65.8933 520.196 65.8747 520.11 65.848L520.182 65.016C520.236 65.0267 520.286 65.0347 520.334 65.04C520.382 65.0507 520.433 65.056 520.486 65.056C520.604 65.056 520.694 65.0293 520.758 64.976C520.828 64.928 520.876 64.864 520.902 64.784C520.934 64.704 520.953 64.616 520.958 64.52C520.964 64.424 520.966 64.3307 520.966 64.24V60.16H521.926ZM520.83 58.856C520.83 58.7013 520.886 58.568 520.998 58.456C521.116 58.3387 521.262 58.28 521.438 58.28C521.614 58.28 521.761 58.336 521.878 58.448C522.001 58.5547 522.062 58.6907 522.062 58.856C522.062 59.0213 522.001 59.16 521.878 59.272C521.761 59.3787 521.614 59.432 521.438 59.432C521.262 59.432 521.116 59.376 520.998 59.264C520.886 59.1467 520.83 59.0107 520.83 58.856ZM523.796 62.416C523.828 62.704 523.94 62.928 524.132 63.088C524.324 63.248 524.556 63.328 524.828 63.328C525.068 63.328 525.268 63.28 525.428 63.184C525.594 63.0827 525.738 62.9573 525.86 62.808L526.548 63.328C526.324 63.6053 526.074 63.8027 525.796 63.92C525.519 64.0373 525.228 64.096 524.924 64.096C524.636 64.096 524.364 64.048 524.108 63.952C523.852 63.856 523.631 63.72 523.444 63.544C523.258 63.368 523.108 63.1573 522.996 62.912C522.89 62.6613 522.836 62.384 522.836 62.08C522.836 61.776 522.89 61.5013 522.996 61.256C523.108 61.0053 523.258 60.792 523.444 60.616C523.631 60.44 523.852 60.304 524.108 60.208C524.364 60.112 524.636 60.064 524.924 60.064C525.191 60.064 525.434 60.112 525.652 60.208C525.876 60.2987 526.066 60.432 526.22 60.608C526.38 60.784 526.503 61.0027 526.588 61.264C526.679 61.52 526.724 61.816 526.724 62.152V62.416H523.796ZM525.764 61.696C525.759 61.4133 525.671 61.192 525.5 61.032C525.33 60.8667 525.092 60.784 524.788 60.784C524.5 60.784 524.271 60.8667 524.1 61.032C523.935 61.1973 523.834 61.4187 523.796 61.696H525.764ZM530.246 61.312C530.134 61.1947 530.017 61.1013 529.894 61.032C529.771 60.9627 529.646 60.928 529.518 60.928C529.342 60.928 529.185 60.96 529.046 61.024C528.907 61.088 528.787 61.1733 528.686 61.28C528.59 61.3867 528.515 61.5093 528.462 61.648C528.414 61.7867 528.39 61.9307 528.39 62.08C528.39 62.2293 528.414 62.3733 528.462 62.512C528.515 62.6507 528.59 62.7733 528.686 62.88C528.787 62.9867 528.907 63.072 529.046 63.136C529.185 63.2 529.342 63.232 529.518 63.232C529.667 63.232 529.806 63.2027 529.934 63.144C530.062 63.08 530.171 62.9893 530.262 62.872L530.902 63.56C530.806 63.656 530.694 63.7387 530.566 63.808C530.443 63.8773 530.318 63.9333 530.19 63.976C530.062 64.0187 529.939 64.048 529.822 64.064C529.705 64.0853 529.603 64.096 529.518 64.096C529.23 64.096 528.958 64.048 528.702 63.952C528.446 63.856 528.225 63.72 528.038 63.544C527.851 63.368 527.702 63.1573 527.59 62.912C527.483 62.6613 527.43 62.384 527.43 62.08C527.43 61.776 527.483 61.5013 527.59 61.256C527.702 61.0053 527.851 60.792 528.038 60.616C528.225 60.44 528.446 60.304 528.702 60.208C528.958 60.112 529.23 60.064 529.518 60.064C529.763 60.064 530.009 60.112 530.254 60.208C530.505 60.2987 530.723 60.4453 530.91 60.648L530.246 61.312ZM531.034 60.976V60.16H531.826V59.048H532.786V60.16H533.842V60.976H532.786V62.656C532.786 62.848 532.82 63 532.89 63.112C532.964 63.224 533.108 63.28 533.322 63.28C533.407 63.28 533.5 63.272 533.602 63.256C533.703 63.2347 533.783 63.2027 533.842 63.16V63.968C533.74 64.016 533.615 64.048 533.466 64.064C533.322 64.0853 533.194 64.096 533.082 64.096C532.826 64.096 532.615 64.0667 532.45 64.008C532.29 63.9547 532.162 63.872 532.066 63.76C531.975 63.6427 531.911 63.4987 531.874 63.328C531.842 63.1573 531.826 62.96 531.826 62.736V60.976H531.034Z" fill="#E5E8ED"/>
</svg>
