<svg width="200" height="200" viewBox="0 0 200 200" fill="none" xmlns="http://www.w3.org/2000/svg">
<mask id="path-1-inside-1" fill="white">
<path d="M200 100C200 155.228 155.228 200 100 200C44.7715 200 0 155.228 0 100C0 44.7715 44.7715 0 100 0C155.228 0 200 44.7715 200 100ZM66.3609 100C66.3609 118.578 81.4216 133.639 100 133.639C118.578 133.639 133.639 118.578 133.639 100C133.639 81.4216 118.578 66.3609 100 66.3609C81.4216 66.3609 66.3609 81.4216 66.3609 100Z"/>
</mask>
<path d="M200 100C200 155.228 155.228 200 100 200C44.7715 200 0 155.228 0 100C0 44.7715 44.7715 0 100 0C155.228 0 200 44.7715 200 100ZM66.3609 100C66.3609 118.578 81.4216 133.639 100 133.639C118.578 133.639 133.639 118.578 133.639 100C133.639 81.4216 118.578 66.3609 100 66.3609C81.4216 66.3609 66.3609 81.4216 66.3609 100Z" fill="#5073B8" fill-opacity="0.1" stroke="#5073B8" stroke-width="2" mask="url(#path-1-inside-1)"/>
<mask id="path-2-inside-2" fill="white">
<path d="M162.291 21.7705C141.543 5.24998 115.082 -2.35194 88.7297 0.637125L96.2062 66.5522C105.077 65.546 113.984 68.1049 120.969 73.6662L162.291 21.7705Z"/>
</mask>
<path d="M162.291 21.7705C141.543 5.24998 115.082 -2.35194 88.7297 0.637125L96.2062 66.5522C105.077 65.546 113.984 68.1049 120.969 73.6662L162.291 21.7705Z" fill="#F16548" fill-opacity="0.1" stroke="#ECA8AF" stroke-width="2" mask="url(#path-2-inside-2)"/>
<mask id="path-3-inside-3" fill="white">
<path d="M199.778 106.657C200.851 90.5809 198.023 74.4838 191.536 59.7359C185.049 44.9879 175.094 32.0258 162.519 21.9529L121.06 73.7094C125.296 77.1025 128.649 81.4689 130.834 86.4368C133.02 91.4047 133.972 96.8271 133.611 102.242L199.778 106.657Z"/>
</mask>
<path d="M199.778 106.657C200.851 90.5809 198.023 74.4838 191.536 59.7359C185.049 44.9879 175.094 32.0258 162.519 21.9529L121.06 73.7094C125.296 77.1025 128.649 81.4689 130.834 86.4368C133.02 91.4047 133.972 96.8271 133.611 102.242L199.778 106.657Z" fill="#97A3B4" fill-opacity="0.2" stroke="#97A3B4" stroke-width="2" mask="url(#path-3-inside-3)"/>
</svg>
