<svg width="1440" height="277" viewBox="0 0 1440 277" fill="none" xmlns="http://www.w3.org/2000/svg">
<mask id="mask0" mask-type="alpha" maskUnits="userSpaceOnUse" x="0" y="0" width="1440" height="277">
<rect width="1440" height="277" fill="white"/>
</mask>
<g mask="url(#mask0)">
<g opacity="0.8">
<g opacity="0.47">
<path opacity="0.47" d="M1825.5 479.176V481.468H1657.61L1657.25 481.118L1511.73 338.809V190.98L1471.11 151.686H1427.42L1398.05 179.172H1339.93V176.885H1397.09L1426.44 149.398H1472.11L1514.11 190.036V337.874L1658.61 479.176H1825.5Z" fill="#FCF2EB"/>
</g>
<path d="M1825.5 387.57V389.863H1706.14L1597.62 287.85V91.3027L1561.56 55.5049H1413.91V53.2123H1562.57L1600.01 90.377V286.886L1707.11 387.57H1825.5Z" fill="#FCF2EB"/>
<path d="M1402.77 41.36C1395.97 41.36 1390.45 46.6357 1390.45 53.1871C1390.45 59.7386 1395.97 65.019 1402.77 65.019C1408.74 65.019 1413.74 60.9184 1414.86 55.5036C1415.02 54.75 1415.1 53.9816 1415.1 53.2111C1415.1 46.6597 1409.57 41.36 1402.77 41.36ZM1402.77 62.7313C1397.29 62.7313 1392.84 58.4436 1392.84 53.1871C1392.84 47.9306 1397.29 43.643 1402.77 43.643C1408.25 43.643 1412.72 47.9259 1412.72 53.1871C1412.72 58.4484 1408.26 62.7313 1402.77 62.7313Z" fill="#FCF2EB"/>
<path d="M882.367 372.213H879.398V351.177L843.735 315.749V258.94L826.215 241.012H778.446L760.854 223.899H672.463L561.755 118.367H442.179L404.669 155.445H360.287V152.592H403.413L440.923 115.513H562.978L563.414 115.926L673.685 221.046H762.096L779.688 238.158H827.5L846.708 257.808V314.598L882.367 350.022V372.213Z" fill="#FCF2EB"/>
<path d="M1093.15 346.544H1039.88L1019.07 328.923V300.991L977.469 260.378V227.966L932.448 183.967H659.245L558.864 84.1369H440.415L397.207 124.198L396.8 136.764L439.192 95.5467H560.115L660.492 192.523H928.539L944.779 209.065V238.158H941.805V210.197L927.254 195.377H659.26L558.878 98.4004H440.434L393.596 143.939L394.272 122.956L439.216 81.288H560.13L660.507 181.113H933.695L980.438 226.801V259.212L1022.04 299.821V327.638L1041.01 343.69H1091.99L1111.18 326.578H1125.09V329.432H1112.35L1093.15 346.544Z" fill="#FCF2EB"/>
<path d="M1053.43 290.536L1004.21 244.282V150.606L991.224 138.332H935.393L900.108 172.557H665.547L563.074 72.7318H396.56L370.287 97.7193L368.196 95.6954L395.332 69.8782H564.316L666.794 169.703H898.871L934.155 135.479H992.442L1007.19 149.411V243.088L1055.51 288.497L1053.43 290.536Z" fill="#FCF2EB"/>
<path d="M1092.48 280.943H1066.41L1016.1 232.187V138.433L1003.73 124.069H927L891.715 158.298H673.954L571.477 61.322H244.855V58.4684H572.7L675.177 155.445H890.473L925.762 121.215H1005.13L1019.07 137.407V231.007L1067.65 278.09H1092.48V280.943Z" fill="#FCF2EB"/>
<path d="M874.958 132.624H778.197L747.776 104.102H728.956L715.364 115.512H673.969L574.211 23.7101L576.268 21.6526L675.163 112.658H714.246L727.838 101.253H748.989L779.406 129.77H873.653L887.317 115.512H810.844L792.326 102.025L794.125 99.7517L811.846 112.658H894.089L874.958 132.624Z" fill="#FCF2EB"/>
<path d="M736.754 138.334H674.655L575.674 44.2116H321.075V41.3579H576.897L675.878 135.481H736.754V138.334Z" fill="#FCF2EB"/>
<path d="M366.292 114.524C373.95 114.524 380.158 108.565 380.158 101.215C380.158 93.8643 373.95 87.9056 366.292 87.9056C358.635 87.9056 352.427 93.8643 352.427 101.215C352.427 108.565 358.635 114.524 366.292 114.524Z" fill="#FCF2EB"/>
<path d="M737.767 148.751C745.424 148.751 751.632 142.792 751.632 135.442C751.632 128.092 745.424 122.133 737.767 122.133C730.109 122.133 723.901 128.092 723.901 135.442C723.901 142.792 730.109 148.751 737.767 148.751Z" fill="#FCF2EB"/>
<path d="M565.399 26.6182C573.057 26.6182 579.265 20.6595 579.265 13.3091C579.265 5.95868 573.057 0 565.399 0C557.741 0 551.534 5.95868 551.534 13.3091C551.534 20.6595 557.741 26.6182 565.399 26.6182Z" fill="#FCF2EB"/>
<path d="M782.341 77.9258C773.871 77.9258 766.993 84.5395 766.993 92.6545C766.993 100.769 773.871 107.398 782.341 107.398C784.401 107.408 786.444 107.008 788.349 106.223C790.254 105.437 791.984 104.282 793.439 102.822C794.781 101.49 795.846 99.9059 796.576 98.1612C797.305 96.4166 797.683 94.5453 797.688 92.6545C797.688 84.5395 790.791 77.9258 782.341 77.9258ZM782.341 104.544C775.516 104.544 769.962 99.2155 769.962 92.6545C769.962 86.0934 775.516 80.7746 782.341 80.7746C789.166 80.7746 794.719 86.1078 794.719 92.6545C794.719 99.2011 789.166 104.553 782.341 104.553V104.544Z" fill="#FCF2EB"/>
<path d="M246.267 58.4679C245.528 51.0101 238.953 45.1541 230.996 45.1541C222.526 45.1541 215.648 51.7678 215.648 59.8972C215.648 68.0265 222.54 74.6259 230.996 74.6259C238.953 74.6259 245.528 68.7795 246.267 61.3216C246.371 60.3652 246.371 59.4003 246.267 58.444V58.4679ZM230.996 71.777C224.161 71.777 218.608 66.4486 218.608 59.8972C218.608 53.3457 224.161 48.0173 230.996 48.0173C237.83 48.0173 243.37 53.3457 243.37 59.8972C243.37 66.4486 237.806 71.777 230.996 71.777Z" fill="#FCF2EB"/>
<path d="M307.208 25.3076C298.738 25.3076 291.861 31.9214 291.861 40.0507C291.861 48.1801 298.748 54.7795 307.208 54.7795C314.172 54.7795 320.057 50.3143 321.932 44.2281C322.218 43.3008 322.404 42.3459 322.489 41.3793C322.535 40.9444 322.558 40.5073 322.556 40.0699C322.556 31.9214 315.673 25.3076 307.208 25.3076ZM307.208 51.9306C300.383 51.9306 294.83 46.5974 294.83 40.0507C294.83 33.5041 300.383 28.1613 307.208 28.1613C314.033 28.1613 319.582 33.4993 319.582 40.0507C319.582 46.6022 314.033 51.9306 307.208 51.9306Z" fill="#FCF2EB"/>
<path d="M361.711 152.583C361.093 145.01 354.469 139.03 346.421 139.03C337.952 139.03 331.074 145.643 331.074 153.768C331.078 157.112 332.256 160.349 334.402 162.914C335.305 164.007 336.358 164.966 337.53 165.763C340.154 167.547 343.255 168.502 346.429 168.502C349.602 168.502 352.703 167.547 355.328 165.763C356.502 164.967 357.556 164.008 358.459 162.914C360.235 160.79 361.355 158.196 361.682 155.447C361.748 154.889 361.781 154.329 361.783 153.768C361.769 153.37 361.75 152.991 361.711 152.583ZM354.301 162.914C352.056 164.685 349.279 165.648 346.419 165.648C343.559 165.648 340.782 164.685 338.537 162.914C337.143 161.83 336.015 160.443 335.236 158.859C334.458 157.274 334.05 155.533 334.043 153.768C334.043 147.221 339.597 141.888 346.421 141.888C353.246 141.888 358.795 147.221 358.795 153.768C358.788 155.533 358.38 157.274 357.602 158.859C356.823 160.443 355.695 161.83 354.301 162.914Z" fill="#FCF2EB"/>
<path d="M208.689 221.611H211.657V242.646L247.321 278.075V334.884L264.846 352.812H312.61L330.202 369.924H418.593L529.301 475.457H648.876L686.386 438.379H730.774V441.232H687.643L650.133 478.311H528.078L527.641 477.898L417.37 372.778H328.96L311.368 355.666H263.561L244.347 336.016V279.226L208.689 243.802V221.611Z" fill="#FCF2EB"/>
<path d="M103.505 302.607L101.404 304.621L94.4691 297.965L80.9058 284.943V259.289L57.2085 238.719H-3.27948L-17.6149 227.314H-31.5811V224.46H-16.5358L-2.20996 235.865H58.35L83.8746 258.023V283.759L96.2053 295.595L103.505 302.607Z" fill="#FCF2EB"/>
<path d="M697.464 449.885L696.783 470.868L651.844 512.531H530.931L430.544 412.701H157.361L110.618 367.014V334.607L69.0074 293.999V266.186L50.0486 250.124H-0.928806L-20.1323 267.246H-34.0312V264.393H-21.2929L-2.09905 247.275H51.1708L71.981 264.891V292.833L113.587 333.441V365.853L158.612 409.852H431.81L532.192 509.678H650.636L693.853 469.621L694.261 457.055L651.863 498.273H530.94L430.564 401.296H162.521L146.282 384.755V355.657H149.255V383.623L163.806 398.443H431.796L532.183 495.419H650.617L697.464 449.885Z" fill="#FCF2EB"/>
<path d="M210.645 226.395C218.303 226.395 224.511 220.436 224.511 213.086C224.511 205.735 218.303 199.777 210.645 199.777C202.988 199.777 196.78 205.735 196.78 213.086C196.78 220.436 202.988 226.395 210.645 226.395Z" fill="#FCF2EB"/>
<path d="M384.017 400.28V422.472H381.044V401.431L380.914 401.297L378.036 398.444L352.195 372.77L349.327 369.917L345.39 366.008V309.194L327.86 291.271H280.091L262.509 274.153H174.113L63.4002 168.621H-31.5811V165.767H64.628L65.0644 166.189L175.336 271.3H263.741L281.338 288.422H329.15L348.358 308.071V364.857L353.457 369.917L356.325 372.77L382.166 398.444L384.017 400.28Z" fill="#FCF2EB"/>
<path d="M430.184 242.78L446.423 259.321V288.419H443.45V260.453L428.899 245.633H160.904L60.5226 148.657H-31.5811V145.803H61.7647L162.142 242.78H430.184Z" fill="#FCF2EB"/>
<path d="M626.736 376.832V379.685H613.998L594.804 396.798H541.534L520.724 379.186V351.249L479.118 310.636V278.224L434.093 234.22H160.895L60.513 134.4H-31.5811V131.546H61.7743L162.151 231.367H435.345L482.087 277.059V309.471L523.698 350.079V377.891L542.657 393.944H593.634L612.833 376.832H626.736Z" fill="#FCF2EB"/>
<path d="M557.15 338.756L555.078 340.794L553.798 339.591L505.856 294.541V200.864L492.878 188.591H437.042L401.758 222.811H167.192L64.7191 122.986H-31.5811V120.132H65.9613L168.439 219.962H400.516L435.8 185.738H494.092L508.83 199.67V293.342L556.359 338.003L557.15 338.756Z" fill="#FCF2EB"/>
<path d="M594.133 328.344V331.198H568.052L517.751 282.441V188.692L505.377 174.323H428.649L393.365 208.553H175.604L73.1314 111.576H-31.5811V108.722H74.3496L176.822 205.704H392.122L427.407 171.474H506.777L520.724 187.666V281.266L569.294 328.344H594.133Z" fill="#FCF2EB"/>
<path d="M376.607 182.882H279.847L249.425 154.36H230.605L217.013 165.77H175.618L75.8604 73.9684L77.9179 71.9109L176.813 162.916H215.896L229.488 151.506H250.634L281.055 180.029H375.303L388.967 165.77H312.493L293.976 152.279L295.774 150.01L313.491 162.916H395.739L376.607 182.882Z" fill="#FCF2EB"/>
<path d="M238.404 185.735V188.588H176.3L77.3184 94.4609H-31.5811V91.612H78.5462L177.527 185.735H238.404Z" fill="#FCF2EB"/>
<path d="M239.413 199.007C247.071 199.007 253.278 193.049 253.278 185.698C253.278 178.348 247.071 172.389 239.413 172.389C231.755 172.389 225.548 178.348 225.548 185.698C225.548 193.049 231.755 199.007 239.413 199.007Z" fill="#FCF2EB"/>
<path d="M67.0505 76.8765C74.7081 76.8765 80.9159 70.9178 80.9159 63.5674C80.9159 56.217 74.7081 50.2583 67.0505 50.2583C59.3928 50.2583 53.1851 56.217 53.1851 63.5674C53.1851 70.9178 59.3928 76.8765 67.0505 76.8765Z" fill="#FCF2EB"/>
<path d="M283.997 128.18C275.527 128.18 268.649 134.794 268.649 142.918C268.649 151.043 275.541 157.652 283.997 157.652C286.054 157.66 288.093 157.26 289.995 156.477C291.897 155.693 293.626 154.541 295.08 153.086C295.768 152.401 296.385 151.649 296.922 150.841C298.49 148.497 299.325 145.739 299.32 142.918C299.344 134.794 292.452 128.18 283.997 128.18ZM283.997 154.798C277.162 154.798 271.608 149.47 271.608 142.918C271.608 136.367 277.162 131.029 283.997 131.029C290.831 131.029 296.37 136.362 296.37 142.918C296.37 149.474 290.821 154.798 283.997 154.798Z" fill="#FCF2EB"/>
</g>
</g>
</svg>
